Pretendard-cjk.glyphspackage
{
glyphname = percent;
layers = (
{
layerId = "5C20EF92-B63D-42A8-8878-93C2863E0093";
shapes = (
{
closed = 1;
nodes = (
(1088,969,o),
(1273,1206,o),
(1274,1556,cs),
(1273,1906,o),
(1092,2148,o),
(752,2148,cs),
(426,2148,o),
(236,1906,o),
(236,1556,cs),
(236,1211,o),
(417,969,o),
(752,968,cs)
);
},
{
closed = 1;
nodes = (
(650,1280,o),
(588,1389,o),
(588,1556,cs),
(588,1717,o),
(645,1837,o),
(752,1836,cs),
(869,1837,o),
(921,1722,o),
(922,1556,cs),
(921,1389,o),
(864,1280,o),
(752,1280,cs)
);
},
{
closed = 1;
nodes = (
(2574,-97,o),
(2759,140,o),
(2760,490,cs),
(2759,840,o),
(2578,1082,o),
(2238,1082,cs),
(1912,1082,o),
(1722,840,o),
(1722,490,cs),
(1722,145,o),
(1903,-97,o),
(2238,-98,cs)
);
},
{
closed = 1;
nodes = (
(2136,214,o),
(2074,323,o),
(2074,490,cs),
(2074,651,o),
(2131,771,o),
(2238,770,cs),
(2355,771,o),
(2407,656,o),
(2408,490,cs),
(2407,323,o),
(2350,214,o),
(2238,214,cs)
);
},
{
pos = (1110,0);
ref = fraction;
}
);
width = 2996;
},
{
layerId = "B1F27B51-9973-4381-9301-4FE46FE1CA59";
shapes = (
{
closed = 1;
nodes = (
(718,1212,o),
(864,1373,o),
(864,1644,cs),
(864,1915,o),
(718,2076,o),
(528,2076,cs),
(338,2076,o),
(192,1915,o),
(192,1644,cs),
(192,1373,o),
(338,1212,o),
(528,1212,cs)
);
},
{
closed = 1;
nodes = (
(375,1276,o),
(256,1408,o),
(256,1644,cs),
(256,1880,o),
(375,2012,o),
(528,2012,cs),
(681,2012,o),
(800,1880,o),
(800,1644,cs),
(800,1408,o),
(681,1276,o),
(528,1276,cs)
);
},
{
closed = 1;
nodes = (
(1774,-28,o),
(1920,133,o),
(1920,404,cs),
(1920,675,o),
(1774,836,o),
(1584,836,cs),
(1394,836,o),
(1248,675,o),
(1248,404,cs),
(1248,133,o),
(1394,-28,o),
(1584,-28,cs)
);
},
{
closed = 1;
nodes = (
(1431,36,o),
(1312,168,o),
(1312,404,cs),
(1312,640,o),
(1431,772,o),
(1584,772,cs),
(1737,772,o),
(1856,640,o),
(1856,404,cs),
(1856,168,o),
(1737,36,o),
(1584,36,cs)
);
},
{
alignment = -1;
pos = (704,0);
ref = fraction;
}
);
width = 2112;
},
{
associatedMasterId = "CD0E3B44-F66A-4791-B84C-A1128DC61275";
layerId = "7A37FCE2-3627-450B-8D45-41281045F03A";
shapes = (
{
closed = 1;
nodes = (
(1226,160,o),
(1366,-30,o),
(1628,-30,cs),
(1884,-30,o),
(2026,160,o),
(2026,384,cs),
(2026,492,ls),
(2026,716,o),
(1888,906,o),
(1628,906,cs),
(1370,906,o),
(1226,716,o),
(1226,492,cs),
(1226,384,ls)
);
},
{
closed = 1;
nodes = (
(1434,614,o),
(1488,730,o),
(1628,730,cs),
(1770,730,o),
(1818,614,o),
(1818,492,cs),
(1818,384,ls),
(1818,262,o),
(1766,146,o),
(1628,146,cs),
(1484,146,o),
(1434,262,o),
(1434,384,cs),
(1434,492,ls)
);
},
{
closed = 1;
nodes = (
(204,1332,o),
(344,1142,o),
(606,1142,cs),
(864,1142,o),
(1004,1332,o),
(1004,1556,cs),
(1004,1664,ls),
(1004,1888,o),
(868,2078,o),
(606,2078,cs),
(350,2078,o),
(204,1888,o),
(204,1664,cs),
(204,1556,ls)
);
},
{
closed = 1;
nodes = (
(412,1786,o),
(468,1902,o),
(606,1902,cs),
(750,1902,o),
(796,1786,o),
(796,1664,cs),
(796,1556,ls),
(796,1434,o),
(746,1318,o),
(606,1318,cs),
(464,1318,o),
(412,1434,o),
(412,1556,cs),
(412,1664,ls)
);
},
{
alignment = -1;
pos = (748,0);
ref = fraction;
}
);
width = 2229.78868;
},
{
layerId = "CD0E3B44-F66A-4791-B84C-A1128DC61275";
shapes = (
{
closed = 1;
nodes = (
(888,1096,o),
(1034,1296,o),
(1034,1590,cs),
(1034,1878,o),
(894,2078,o),
(626,2078,cs),
(366,2078,o),
(214,1878,o),
(216,1590,cs),
(214,1296,o),
(360,1096,o),
(626,1098,cs)
);
},
{
closed = 1;
nodes = (
(488,1272,o),
(422,1398,o),
(422,1590,cs),
(422,1778,o),
(490,1902,o),
(626,1904,cs),
(768,1906,o),
(828,1778,o),
(828,1590,cs),
(828,1398,o),
(764,1272,o),
(626,1272,cs)
);
},
{
closed = 1;
nodes = (
(2136,-30,o),
(2282,170,o),
(2282,462,cs),
(2282,752,o),
(2140,952,o),
(1874,952,cs),
(1614,952,o),
(1462,752,o),
(1464,462,cs),
(1462,170,o),
(1608,-30,o),
(1874,-28,cs)
);
},
{
closed = 1;
nodes = (
(1736,146,o),
(1670,272,o),
(1670,462,cs),
(1670,652,o),
(1738,776,o),
(1874,778,cs),
(2016,780,o),
(2076,652,o),
(2076,462,cs),
(2076,272,o),
(2012,146,o),
(1874,146,cs)
);
},
{
alignment = -1;
pos = (872,0);
ref = fraction;
}
);
width = 2498;
},
{
associatedMasterId = "B1F27B51-9973-4381-9301-4FE46FE1CA59";
layerId = "BC994D54-0D1F-40B6-BEBD-F228E6C0BEB0";
name = "Feb 27, 22 22:00";
shapes = (
{
closed = 1;
nodes = (
(1248,133,o),
(1394,-28,o),
(1584,-28,cs),
(1774,-28,o),
(1920,133,o),
(1920,372,cs),
(1920,436,ls),
(1920,675,o),
(1774,836,o),
(1584,836,cs),
(1394,836,o),
(1248,675,o),
(1248,436,cs),
(1248,372,ls)
);
},
{
closed = 1;
nodes = (
(1312,640,o),
(1431,772,o),
(1584,772,cs),
(1737,772,o),
(1856,640,o),
(1856,436,cs),
(1856,372,ls),
(1856,168,o),
(1737,36,o),
(1584,36,cs),
(1431,36,o),
(1312,168,o),
(1312,372,cs),
(1312,436,ls)
);
},
{
closed = 1;
nodes = (
(192,1373,o),
(338,1212,o),
(528,1212,cs),
(718,1212,o),
(864,1373,o),
(864,1612,cs),
(864,1676,ls),
(864,1915,o),
(718,2076,o),
(528,2076,cs),
(338,2076,o),
(192,1915,o),
(192,1676,cs),
(192,1612,ls)
);
},
{
closed = 1;
nodes = (
(256,1880,o),
(375,2012,o),
(528,2012,cs),
(681,2012,o),
(800,1880,o),
(800,1676,cs),
(800,1612,ls),
(800,1408,o),
(681,1276,o),
(528,1276,cs),
(375,1276,o),
(256,1408,o),
(256,1612,cs),
(256,1676,ls)
);
},
{
alignment = -1;
pos = (704,0);
ref = fraction;
}
);
width = 2112;
},
{
associatedMasterId = "CD0E3B44-F66A-4791-B84C-A1128DC61275";
layerId = "76C7D185-540C-4A56-A6D5-B5C95F3DB1E7";
name = "Feb 27, 22 22:00";
shapes = (
{
closed = 1;
nodes = (
(1236,160,o),
(1376,-30,o),
(1638,-30,cs),
(1894,-30,o),
(2036,160,o),
(2036,384,cs),
(2036,492,ls),
(2036,716,o),
(1898,906,o),
(1638,906,cs),
(1380,906,o),
(1236,716,o),
(1236,492,cs),
(1236,384,ls)
);
},
{
closed = 1;
nodes = (
(1444,614,o),
(1498,730,o),
(1638,730,cs),
(1780,730,o),
(1828,614,o),
(1828,492,cs),
(1828,384,ls),
(1828,262,o),
(1776,146,o),
(1638,146,cs),
(1494,146,o),
(1444,262,o),
(1444,384,cs),
(1444,492,ls)
);
},
{
closed = 1;
nodes = (
(214,1332,o),
(354,1142,o),
(616,1142,cs),
(874,1142,o),
(1014,1332,o),
(1014,1556,cs),
(1014,1664,ls),
(1014,1888,o),
(878,2078,o),
(616,2078,cs),
(360,2078,o),
(214,1888,o),
(214,1664,cs),
(214,1556,ls)
);
},
{
closed = 1;
nodes = (
(422,1786,o),
(478,1902,o),
(616,1902,cs),
(760,1902,o),
(806,1786,o),
(806,1664,cs),
(806,1556,ls),
(806,1434,o),
(756,1318,o),
(616,1318,cs),
(474,1318,o),
(422,1434,o),
(422,1556,cs),
(422,1664,ls)
);
},
{
alignment = -1;
pos = (748,0);
ref = fraction;
}
);
width = 2250;
},
{
associatedMasterId = "5C20EF92-B63D-42A8-8878-93C2863E0093";
layerId = "BEF9D8DC-6F5F-43DF-9680-53D379A4D0E7";
name = "Feb 27, 22 22:00";
shapes = (
{
closed = 1;
nodes = (
(1308,124,o),
(1478,-100,o),
(1792,-100,cs),
(2106,-100,o),
(2280,124,o),
(2280,384,cs),
(2280,492,ls),
(2280,756,o),
(2110,976,o),
(1792,976,cs),
(1482,976,o),
(1308,752,o),
(1308,492,cs),
(1308,384,ls)
);
},
{
closed = 1;
nodes = (
(1656,572,o),
(1686,664,o),
(1792,664,cs),
(1906,664,o),
(1928,572,o),
(1928,492,cs),
(1928,384,ls),
(1928,304,o),
(1902,216,o),
(1792,216,cs),
(1686,216,o),
(1656,308,o),
(1656,384,cs),
(1656,492,ls)
);
},
{
closed = 1;
nodes = (
(236,1296,o),
(406,1076,o),
(720,1076,cs),
(1034,1076,o),
(1208,1292,o),
(1208,1556,cs),
(1208,1664,ls),
(1208,1928,o),
(1038,2148,o),
(720,2148,cs),
(414,2148,o),
(236,1928,o),
(236,1664,cs),
(236,1556,ls)
);
},
{
closed = 1;
nodes = (
(588,1740,o),
(614,1836,o),
(720,1836,cs),
(834,1836,o),
(856,1744,o),
(856,1664,cs),
(856,1556,ls),
(856,1476,o),
(830,1388,o),
(720,1388,cs),
(618,1388,o),
(588,1476,o),
(588,1556,cs),
(588,1664,ls)
);
},
{
pos = (870,0);
ref = fraction;
}
);
width = 2508;
},
{
associatedMasterId = "5C20EF92-B63D-42A8-8878-93C2863E0093";
layerId = "568E709A-EAB8-47AC-A3E9-A5708443A056";
name = "Feb 27, 22 22:08";
shapes = (
{
closed = 1;
nodes = (
(1034,1076,o),
(1208,1292,o),
(1208,1610,cs),
(1208,1928,o),
(1038,2148,o),
(720,2148,cs),
(414,2148,o),
(236,1928,o),
(236,1610,cs),
(236,1296,o),
(406,1076,o),
(720,1076,cs)
);
},
{
closed = 1;
nodes = (
(638,1388,o),
(588,1476,o),
(588,1610,cs),
(588,1740,o),
(634,1836,o),
(720,1836,cs),
(814,1836,o),
(856,1744,o),
(856,1610,cs),
(856,1476,o),
(810,1388,o),
(720,1388,cs)
);
},
{
closed = 1;
nodes = (
(2426,-98,o),
(2600,118,o),
(2600,436,cs),
(2600,754,o),
(2430,974,o),
(2112,974,cs),
(1806,974,o),
(1628,754,o),
(1628,436,cs),
(1628,122,o),
(1798,-98,o),
(2112,-98,cs)
);
},
{
closed = 1;
nodes = (
(2010,214,o),
(1980,302,o),
(1980,436,cs),
(1980,566,o),
(2006,662,o),
(2112,662,cs),
(2226,662,o),
(2248,570,o),
(2248,436,cs),
(2248,302,o),
(2222,214,o),
(2112,214,cs)
);
},
{
pos = (1030,0);
ref = fraction;
}
);
width = 2836;
}
);
unicode = 37;
userData = {
"interface.width-adjustments" = (
-16
);
};
}
{
glyphname = asterisk;
kernLeft = asciicircum;
kernRight = asciicircum;
layers = (
{
associatedMasterId = "5C20EF92-B63D-42A8-8878-93C2863E0093";
guides = (
{
pos = (0,1238.875);
},
{
pos = (0,763.125);
},
{
orientation = center;
pos = (832,1472);
showMeasurement = 1;
},
{
orientation = center;
angle = 90;
pos = (876,1472);
},
{
angle = -30;
pos = (832,1472);
},
{
angle = 30;
pos = (832,1472);
}
);
layerId = "97A0723D-7FBB-4E7F-A62E-E3A1A7C6FCDB";
name = _base;
shapes = (
{
closed = 1;
nodes = (
(-72,1028,l),
(64,1264,l),
(-248,1432,l),
(64,1604,l),
(-72,1844,l),
(-360,1668,l),
(-336,1984,l),
(-660,1984,l),
(-636,1668,l),
(-928,1844,l),
(-1060,1604,l),
(-748,1432,l),
(-1060,1264,l),
(-928,1028,l),
(-636,1200,l),
(-660,884,l),
(-336,884,l),
(-360,1200,l)
);
},
{
closed = 1;
nodes = (
(672,896,l),
(992,896,l),
(992,2048,l),
(672,2048,l)
);
},
{
closed = 1;
nodes = (
(252,1324,l),
(412,1044,l),
(1412,1620,l),
(1252,1900,l)
);
},
{
closed = 1;
nodes = (
(412,1900,l),
(252,1620,l),
(1252,1044,l),
(1412,1324,l)
);
}
);
width = 1664;
},
{
associatedMasterId = "5C20EF92-B63D-42A8-8878-93C2863E0093";
background = {
shapes = (
{
closed = 1;
nodes = (
(955,1248,o),
(1056,1349,o),
(1056,1472,cs),
(1056,1595,o),
(955,1696,o),
(832,1696,cs),
(709,1696,o),
(608,1595,o),
(608,1472,cs),
(608,1349,o),
(709,1248,o),
(832,1248,cs)
);
}
);
};
guides = (
{
pos = (0,1238.875);
},
{
pos = (0,763.125);
},
{
orientation = center;
angle = 90;
pos = (876,1752);
},
{
angle = -30;
pos = (832,1472);
},
{
angle = 30;
pos = (832,1472);
},
{
angle = 60;
pos = (832,1472);
},
{
angle = -60;
pos = (832,1472);
}
);
layerId = "6C5AA80E-891B-45F3-A4F8-A8296CFF1D53";
name = "Sep 11 18, 18:19";
shapes = (
{
closed = 1;
nodes = (
(412,1044,l),
(720,1276,l),
(672,896,l),
(992,896,l),
(944,1276,l),
(1252,1044,l),
(1412,1324,l),
(1056,1472,l),
(1412,1620,l),
(1252,1900,l),
(944,1668,l),
(992,2048,l),
(672,2048,l),
(720,1668,l),
(412,1900,l),
(252,1620,l),
(608,1472,l),
(252,1324,l)
);
}
);
width = 1664;
},
{
background = {
shapes = (
{
closed = 1;
nodes = (
(998,1216,o),
(1113,1331,o),
(1112,1472,cs),
(1113,1613,o),
(998,1728,o),
(856,1728,cs),
(716,1728,o),
(601,1613,o),
(600,1472,cs),
(601,1331,o),
(716,1216,o),
(856,1216,cs)
);
}
);
};
guides = (
{
pos = (-124,1240);
},
{
pos = (-124,764);
},
{
orientation = center;
angle = 90;
pos = (752,1752);
},
{
angle = -30;
pos = (708,1472);
},
{
angle = 30;
pos = (708,1472);
},
{
angle = 60;
pos = (708,1472);
},
{
angle = -60;
pos = (708,1472);
}
);
layerId = "5C20EF92-B63D-42A8-8878-93C2863E0093";
shapes = (
{
closed = 1;
nodes = (
(984,1252,l),
(1276,1045,l),
(1436,1323,l),
(1114,1472,l),
(1436,1621,l),
(1276,1899,l),
(984,1694,l),
(1016,2048,l),
(696,2048,l),
(728,1694,l),
(436,1899,l),
(276,1621,l),
(600,1472,l),
(276,1323,l),
(436,1045,l),
(728,1252,l),
(696,896,l),
(1016,896,l)
);
}
);
width = 1712;
},
{
guides = (
{
angle = 30;
pos = (568,2056);
},
{
orientation = center;
pos = (648,2056);
},
{
angle = -30;
pos = (568,2056);
}
);
layerId = "B1F27B51-9973-4381-9301-4FE46FE1CA59";
shapes = (
{
closed = 1;
nodes = (
(704,1418,l),
(1156,1156,l),
(1188,1212,l),
(736,1472,l),
(1188,1732,l),
(1156,1788,l),
(704,1528,l),
(704,2048,l),
(640,2048,l),
(640,1528,l),
(188,1788,l),
(156,1732,l),
(608,1472,l),
(156,1212,l),
(188,1156,l),
(640,1418,l),
(640,896,l),
(704,896,l)
);
}
);
width = 1344;
},
{
associatedMasterId = "CD0E3B44-F66A-4791-B84C-A1128DC61275";
layerId = "C62C7AF7-8395-4E08-B1C7-499A48E6DC7F";
shapes = (
{
closed = 1;
nodes = (
(774,896,l),
(758,1334,l),
(1128,1098,l),
(1224,1270,l),
(834,1472,l),
(1224,1674,l),
(1128,1846,l),
(758,1610,l),
(774,2048,l),
(578,2048,l),
(594,1610,l),
(224,1846,l),
(128,1674,l),
(518,1472,l),
(128,1270,l),
(224,1098,l),
(594,1334,l),
(578,896,l)
);
}
);
width = 1351.84906;
},
{
layerId = "CD0E3B44-F66A-4791-B84C-A1128DC61275";
shapes = (
{
closed = 1;
nodes = (
(762,1334,l),
(1134,1101,l),
(1230,1267,l),
(842,1472,l),
(1230,1677,l),
(1134,1843,l),
(762,1610,l),
(778,2048,l),
(586,2048,l),
(602,1610,l),
(230,1843,l),
(134,1677,l),
(522,1472,l),
(134,1267,l),
(230,1101,l),
(602,1334,l),
(586,896,l),
(778,896,l)
);
}
);
width = 1364;
}
);
note = "hexagonal angle: 30 deg";
unicode = 42;
userData = {
com.typemytype.robofont.guideline.magnetic.x5LXEmmtln = 5;
"interface.width-adjustments" = (
-16
);
};
}
{
color = (219,235,247,1);
glyphname = N;
kernLeft = B;
kernRight = H;
layers = (
{
anchors = (
{
name = bottom;
pos = (1020,0);
},
{
name = right;
pos = (2000,0);
},
{
name = top;
pos = (1020,2304);
}
);
guides = (
{
pos = (-136,1652);
},
{
orientation = center;
angle = 90;
pos = (752,240);
}
);
layerId = "5C20EF92-B63D-42A8-8878-93C2863E0093";
shapes = (
{
closed = 1;
nodes = (
(1348,2048,l),
(1348,976,l),
(1332,976,l),
(604,2048,l),
(132,2048,l),
(132,0,l),
(688,0,l),
(688,1076,l),
(700,1076,l),
(1440,0,l),
(1904,0,l),
(1904,2048,l)
);
}
);
width = 2036;
},
{
anchors = (
{
name = bottom;
pos = (1020,0);
},
{
name = bottom_dd;
pos = (2152,-560);
},
{
name = right;
pos = (2000,0);
},
{
name = top;
pos = (1020,2180);
},
{
name = top0315;
pos = (2152,2200);
},
{
name = top_dd;
pos = (2152,2200);
}
);
associatedMasterId = "5C20EF92-B63D-42A8-8878-93C2863E0093";
guides = (
{
pos = (12,1652);
},
{
orientation = center;
angle = 90;
pos = (900,240);
}
);
layerId = "F81B89FA-28D8-48B6-8D66-9AD40CA032B3";
name = "Oct 6 18, 13:13";
shapes = (
{
closed = 1;
nodes = (
(1348,2048,l),
(1348,928,l),
(1332,928,l),
(684,2048,l),
(132,2048,l),
(132,0,l),
(688,0,l),
(688,1124,l),
(700,1124,l),
(1360,0,l),
(1904,0,l),
(1904,2048,l)
);
}
);
width = 2036;
},
{
anchors = (
{
name = bottom;
pos = (1056,0);
},
{
name = right;
pos = (1756,0);
},
{
name = top;
pos = (1056,2304);
}
);
layerId = "B1F27B51-9973-4381-9301-4FE46FE1CA59";
shapes = (
{
closed = 1;
nodes = (
(1760,2048,l),
(1760,120,l),
(1752,120,l),
(352,2048,l),
(288,2048,l),
(288,0,l),
(352,0,l),
(352,1928,l),
(360,1928,l),
(1760,0,l),
(1824,0,l),
(1824,2048,l)
);
}
);
width = 2112;
},
{
anchors = (
{
name = bottom;
pos = (1028,0);
},
{
name = right;
pos = (1840,0);
},
{
name = top;
pos = (1028,2304);
}
);
associatedMasterId = "CD0E3B44-F66A-4791-B84C-A1128DC61275";
layerId = "FEC4983B-3F65-455C-AF41-98331AF22153";
shapes = (
{
closed = 1;
nodes = (
(1590,2048,l),
(1590,450,l),
(1570,450,l),
(460,2048,l),
(214,2048,l),
(214,0,l),
(468,0,l),
(468,1594,l),
(488,1594,l),
(1596,0,l),
(1840,0,l),
(1840,2048,l)
);
}
);
width = 2054.33208;
},
{
anchors = (
{
name = bottom;
pos = (1040,0);
},
{
name = right;
pos = (1852,0);
},
{
name = top;
pos = (1040,2304);
}
);
layerId = "CD0E3B44-F66A-4791-B84C-A1128DC61275";
shapes = (
{
closed = 1;
nodes = (
(1602,2048,l),
(1602,450,l),
(1582,450,l),
(472,2048,l),
(226,2048,l),
(226,0,l),
(480,0,l),
(480,1594,l),
(500,1594,l),
(1608,0,l),
(1852,0,l),
(1852,2048,l)
);
}
);
width = 2078;
}
);
metricLeft = H;
metricRight = H;
unicode = 78;
userData = {
"interface.width-adjustments" = (
-16
);
};
}
{
color = (219,235,247,1);
glyphname = n;
kernLeft = m;
kernRight = a;
layers = (
{
anchors = (
{
name = bottom;
pos = (912,0);
},
{
name = top;
pos = (912,1792);
}
);
guides = (
{
orientation = center;
angle = 90;
pos = (680,-164);
}
);
layerId = "5C20EF92-B63D-42A8-8878-93C2863E0093";
shapes = (
{
closed = 1;
nodes = (
(693,1016,o),
(779,1108,o),
(916,1108,cs),
(1055,1108,o),
(1137,1016,o),
(1136,864,cs),
(1136,0,l),
(1688,0,l),
(1688,980,ls),
(1689,1314,o),
(1478,1556,o),
(1152,1556,cs),
(926,1556,o),
(747,1438,o),
(680,1244,c),
(664,1244,l),
(664,1536,l),
(140,1536,l),
(140,0,l),
(692,0,l),
(692,864,ls)
);
}
);
width = 1820;
},
{
anchors = (
{
name = bottom;
pos = (872,0);
},
{
name = top;
pos = (876,1768);
}
);
associatedMasterId = "5C20EF92-B63D-42A8-8878-93C2863E0093";
guides = (
{
orientation = center;
angle = 90;
pos = (816,-164);
}
);
layerId = "C32BD4CF-CA3A-4334-ACB8-C94177F4B3FA";
name = "Sep 16 18, 18:28";
shapes = (
{
closed = 1;
nodes = (
(680,940,o),
(688,1136,o),
(868,1136,cs),
(976,1136,o),
(1064,1076,o),
(1064,936,cs),
(1064,0,l),
(1616,0,l),
(1616,952,ls),
(1616,1416,o),
(1332,1556,o),
(1068,1556,cs),
(892,1556,o),
(732,1432,o),
(668,1244,c),
(652,1244,l),
(652,1536,l),
(128,1536,l),
(128,0,l),
(680,0,l),
(680,780,ls)
);
}
);
width = 1744;
},
{
anchors = (
{
name = bottom;
pos = (768,0);
},
{
name = top;
pos = (772,1792);
}
);
layerId = "B1F27B51-9973-4381-9301-4FE46FE1CA59";
shapes = (
{
closed = 1;
nodes = (
(304,1300,o),
(500,1492,o),
(772,1492,cs),
(1044,1492,o),
(1232,1304,o),
(1232,1032,cs),
(1232,0,l),
(1296,0,l),
(1296,1032,ls),
(1296,1340,o),
(1080,1556,o),
(772,1556,cs),
(560,1556,o),
(384,1452,o),
(312,1292,c),
(304,1292,l),
(304,1536,l),
(240,1536,l),
(240,0,l),
(304,0,l),
(304,1032,ls)
);
}
);
width = 1536;
},
{
anchors = (
{
name = bottom;
pos = (808,0);
},
{
name = top;
pos = (808,1808);
}
);
associatedMasterId = "B1F27B51-9973-4381-9301-4FE46FE1CA59";
background = {
shapes = (
{
closed = 1;
nodes = (
(336,1300,o),
(532,1492,o),
(804,1492,cs),
(1076,1492,o),
(1264,1304,o),
(1264,1032,cs),
(1264,0,l),
(1328,0,l),
(1328,1032,ls),
(1328,1340,o),
(1112,1556,o),
(804,1556,cs),
(592,1556,o),
(416,1452,o),
(344,1292,c),
(336,1292,l),
(336,1536,l),
(272,1536,l),
(272,0,l),
(336,0,l),
(336,1032,ls)
);
}
);
};
layerId = "CF3E2A04-C349-42D2-AC7F-BD0C28A022C0";
name = "Nov 29 18, 20:13";
shapes = (
{
closed = 1;
nodes = (
(272,0,l),
(336,0,l),
(336,1536,l),
(272,1536,l)
);
},
{
closed = 1;
nodes = (
(336,1032,l),
(336,1300,o),
(532,1492,o),
(804,1492,cs),
(1076,1492,o),
(1264,1304,o),
(1264,1032,cs),
(1264,0,l),
(1328,0,l),
(1328,1032,ls),
(1328,1340,o),
(1112,1556,o),
(804,1556,cs),
(520,1556,o),
(291,1374,o),
(284,1032,c)
);
},
{
closed = 1;
nodes = (
(328,1264,l),
(352,1264,l),
(352,1292,l),
(328,1292,l)
);
}
);
width = 1600;
},
{
anchors = (
{
name = bottom;
pos = (794,0);
},
{
name = top;
pos = (794,1792);
}
);
associatedMasterId = "CD0E3B44-F66A-4791-B84C-A1128DC61275";
layerId = "5A24D926-CFC4-4AF4-9C82-510AC5C3B67B";
shapes = (
{
closed = 1;
nodes = (
(426,1188,o),
(590,1338,o),
(814,1338,cs),
(1032,1338,o),
(1162,1196,o),
(1162,958,cs),
(1162,0,l),
(1406,0,l),
(1406,976,ls),
(1406,1366,o),
(1198,1556,o),
(886,1556,cs),
(654,1556,o),
(510,1452,o),
(438,1294,c),
(418,1294,l),
(418,1536,l),
(182,1536,l),
(182,0,l),
(426,0,l),
(426,922,ls)
);
}
);
width = 1588.61132;
},
{
anchors = (
{
name = bottom;
pos = (806,0);
},
{
name = top;
pos = (806,1792);
}
);
layerId = "CD0E3B44-F66A-4791-B84C-A1128DC61275";
shapes = (
{
closed = 1;
nodes = (
(438,1188,o),
(602,1338,o),
(826,1338,cs),
(1044,1338,o),
(1174,1196,o),
(1174,958,cs),
(1174,0,l),
(1418,0,l),
(1418,976,ls),
(1418,1366,o),
(1210,1556,o),
(898,1556,cs),
(666,1556,o),
(522,1452,o),
(450,1294,c),
(430,1294,l),
(430,1536,l),
(194,1536,l),
(194,0,l),
(438,0,l),
(438,922,ls)
);
}
);
width = 1612;
}
);
metricLeft = m;
unicode = 110;
userData = {
"interface.width-adjustments" = (
-16
);
};
}
{
glyphname = eth;
kernLeft = c;
kernRight = b;
layers = (
{
background = {
shapes = (
{
pos = (-18,0);
ref = o;
}
);
};
layerId = "5C20EF92-B63D-42A8-8878-93C2863E0093";
shapes = (
{
closed = 1;
nodes = (
(1296,2140,l),
(280,1608,l),
(280,1384,l),
(1296,1916,l)
);
},
{
closed = 1;
nodes = (
(1346,-32,o),
(1642,309,o),
(1642,812,cs),
(1642,1561,o),
(997,2057,o),
(280,2150,c),
(280,1884,l),
(558,1802,o),
(947,1587,o),
(1106,1280,c),
(1084,1280,l),
(997,1360,o),
(872,1410,o),
(716,1410,cs),
(325,1410,o),
(84,1092,o),
(84,704,cs),
(84,260,o),
(394,-32,o),
(852,-32,cs)
);
},
{
closed = 1;
nodes = (
(708,370,o),
(604,510,o),
(604,746,cs),
(604,967,o),
(693,1096,o),
(870,1096,cs),
(1044,1096,o),
(1136,968,o),
(1136,746,cs),
(1136,508,o),
(1030,370,o),
(870,370,cs)
);
}
);
width = 1726;
},
{
layerId = "B1F27B51-9973-4381-9301-4FE46FE1CA59";
shapes = (
{
closed = 1;
nodes = (
(1300,2072,l),
(516,1716,l),
(532,1654,l),
(1316,2010,l)
);
},
{
closed = 1;
nodes = (
(1172,-32,o),
(1460,275,o),
(1458,754,cs),
(1456,1321,o),
(1113,1879,o),
(558,2176,c),
(538,2112,l),
(939,1894,o),
(1222,1539,o),
(1350,1128,c),
(1340,1128,l),
(1216,1347,o),
(1033,1460,o),
(804,1460,cs),
(436,1460,o),
(148,1133,o),
(148,714,cs),
(148,295,o),
(436,-32,o),
(804,-32,cs)
);
},
{
closed = 1;
nodes = (
(472,32,o),
(212,331,o),
(212,714,cs),
(212,1095,o),
(474,1396,o),
(804,1396,cs),
(1135,1396,o),
(1396,1096,o),
(1396,714,cs),
(1396,331,o),
(1136,32,o),
(804,32,cs)
);
}
);
width = 1606;
},
{
associatedMasterId = "CD0E3B44-F66A-4791-B84C-A1128DC61275";
layerId = "36DC25DB-9969-4C7D-AEC0-768EB3795263";
shapes = (
{
closed = 1;
nodes = (
(1230,2098,l),
(404,1698,l),
(470,1548,l),
(1296,1948,l)
);
},
{
closed = 1;
nodes = (
(1192,-32,o),
(1460,258,o),
(1460,754,cs),
(1460,1454,o),
(976,1946,o),
(522,2176,c),
(420,2004,l),
(892,1764,o),
(1096,1432,o),
(1186,1182,c),
(1166,1182,l),
(1096,1302,o),
(954,1440,o),
(724,1440,cs),
(382,1440,o),
(110,1138,o),
(110,704,cs),
(110,276,o),
(372,-32,o),
(786,-32,cs)
);
},
{
closed = 1;
nodes = (
(482,184,o),
(354,434,o),
(354,706,cs),
(354,992,o),
(496,1240,o),
(786,1240,cs),
(1098,1240,o),
(1226,948,o),
(1226,690,cs),
(1226,406,o),
(1074,184,o),
(786,184,cs)
);
}
);
width = 1570.69811;
},
{
layerId = "CD0E3B44-F66A-4791-B84C-A1128DC61275";
shapes = (
{
closed = 1;
nodes = (
(1242,2098,l),
(416,1698,l),
(482,1548,l),
(1308,1948,l)
);
},
{
closed = 1;
nodes = (
(1204,-32,o),
(1472,258,o),
(1472,754,cs),
(1472,1454,o),
(988,1946,o),
(534,2176,c),
(432,2004,l),
(904,1764,o),
(1108,1432,o),
(1198,1182,c),
(1178,1182,l),
(1108,1302,o),
(966,1440,o),
(736,1440,cs),
(394,1440,o),
(122,1138,o),
(122,704,cs),
(122,276,o),
(384,-32,o),
(798,-32,cs)
);
},
{
closed = 1;
nodes = (
(494,184,o),
(366,434,o),
(366,706,cs),
(366,992,o),
(508,1240,o),
(798,1240,cs),
(1110,1240,o),
(1238,948,o),
(1238,690,cs),
(1238,406,o),
(1086,184,o),
(798,184,cs)
);
}
);
width = 1594;
}
);
metricLeft = o;
metricRight = o;
unicode = 240;
userData = {
interface.gridadjust.original = "{'width': 1654, 'leftMargin': 166, 'rightMargin': 179}";
"interface.width-adjustments" = (
-16
);
};
}
{
glyphname = thorn;
kernLeft = B;
kernRight = b;
layers = (
{
layerId = "5C20EF92-B63D-42A8-8878-93C2863E0093";
shapes = (
{
closed = 1;
nodes = (
(140,-576,l),
(692,-576,l),
(692,312,l),
(484,728,l),
(692,1312,l),
(692,2048,l),
(140,2048,l)
);
},
{
closed = 1;
nodes = (
(472,124,l),
(708,124,l),
(765,-4,o),
(909,-20,o),
(1036,-20,cs),
(1357,-20,o),
(1641,232,o),
(1640,768,cs),
(1641,1324,o),
(1337,1556,o),
(1040,1556,cs),
(901,1556,o),
(761,1528,o),
(708,1404,c),
(472,1404,l)
);
},
{
closed = 1;
nodes = (
(1125,524,o),
(1037,404,o),
(860,404,cs),
(657,404,o),
(625,584,o),
(624,768,cs),
(625,960,o),
(665,1132,o),
(860,1132,cs),
(1037,1132,o),
(1125,1012,o),
(1124,768,cs)
);
}
);
width = 1732;
},
{
layerId = "B1F27B51-9973-4381-9301-4FE46FE1CA59";
shapes = (
{
closed = 1;
nodes = (
(232,-576,l),
(296,-576,l),
(296,584,l),
(276,768,l),
(296,944,l),
(296,2048,l),
(232,2048,l)
);
},
{
closed = 1;
nodes = (
(266,384,l),
(304,384,l),
(384,128,o),
(580,-32,o),
(824,-32,cs),
(1184,-32,o),
(1416,312,o),
(1416,764,cs),
(1416,1218,o),
(1187,1560,o),
(824,1560,cs),
(577,1560,o),
(387,1399,o),
(304,1144,c),
(266,1144,l)
);
},
{
closed = 1;
nodes = (
(1352,348,o),
(1148,32,o),
(824,32,cs),
(500,32,o),
(296,348,o),
(296,764,cs),
(296,1180,o),
(498,1496,o),
(824,1496,cs),
(1150,1496,o),
(1352,1180,o),
(1352,764,cs)
);
}
);
width = 1558;
},
{
associatedMasterId = "CD0E3B44-F66A-4791-B84C-A1128DC61275";
layerId = "2D72083C-8C6B-490C-9483-0FBE30589A6B";
shapes = (
{
closed = 1;
nodes = (
(182,-576,l),
(426,-576,l),
(426,288,l),
(362,782,l),
(426,1176,l),
(426,2048,l),
(182,2048,l)
);
},
{
closed = 1;
nodes = (
(328,234,l),
(446,234,l),
(498,148,o),
(600,-32,o),
(892,-32,cs),
(1274,-32,o),
(1542,274,o),
(1542,764,cs),
(1542,1250,o),
(1274,1556,o),
(888,1556,cs),
(592,1556,o),
(498,1376,o),
(446,1294,c),
(328,1294,l)
);
},
{
closed = 1;
nodes = (
(1300,442,o),
(1148,186,o),
(856,186,cs),
(574,186,o),
(420,424,o),
(420,768,cs),
(420,1108,o),
(570,1338,o),
(856,1338,cs),
(1152,1338,o),
(1300,1090,o),
(1298,768,cs)
);
}
);
width = 1652.78491;
},
{
layerId = "CD0E3B44-F66A-4791-B84C-A1128DC61275";
shapes = (
{
closed = 1;
nodes = (
(194,-576,l),
(438,-576,l),
(438,288,l),
(374,782,l),
(438,1176,l),
(438,2048,l),
(194,2048,l)
);
},
{
closed = 1;
nodes = (
(340,234,l),
(458,234,l),
(510,148,o),
(612,-32,o),
(904,-32,cs),
(1286,-32,o),
(1554,274,o),
(1554,764,cs),
(1554,1250,o),
(1286,1556,o),
(900,1556,cs),
(604,1556,o),
(510,1376,o),
(458,1294,c),
(340,1294,l)
);
},
{
closed = 1;
nodes = (
(1312,442,o),
(1160,186,o),
(868,186,cs),
(586,186,o),
(432,424,o),
(432,768,cs),
(432,1108,o),
(582,1338,o),
(868,1338,cs),
(1164,1338,o),
(1312,1090,o),
(1310,768,cs)
);
}
);
width = 1676;
}
);
unicode = 254;
userData = {
interface.gridadjust.original = "{'width': 1632, 'leftMargin': 202, 'rightMargin': 159}";
"interface.width-adjustments" = (
-16
);
};
}
{
glyphname = lslash;
kernLeft = B;
kernRight = H;
layers = (
{
layerId = "5C20EF92-B63D-42A8-8878-93C2863E0093";
shapes = (
{
closed = 1;
nodes = (
(-32,1108,l),
(-32,832,l),
(864,1092,l),
(864,1368,l)
);
},
{
ref = l;
}
);
width = 832;
},
{
layerId = "B1F27B51-9973-4381-9301-4FE46FE1CA59";
shapes = (
{
closed = 1;
nodes = (
(-26,952,l),
(-26,882,l),
(518,1134,l),
(518,1204,l)
);
},
{
alignment = -1;
pos = (-28,0);
ref = l;
}
);
width = 492;
},
{
associatedMasterId = "CD0E3B44-F66A-4791-B84C-A1128DC61275";
layerId = "31019C4E-7706-4295-B341-B3850D928351";
shapes = (
{
closed = 1;
nodes = (
(-36,1026,l),
(-36,848,l),
(644,1104,l),
(644,1282,l)
);
},
{
alignment = -1;
ref = l;
}
);
width = 608.41509;
},
{
layerId = "CD0E3B44-F66A-4791-B84C-A1128DC61275";
shapes = (
{
closed = 1;
nodes = (
(-26,1026,l),
(-26,848,l),
(654,1104,l),
(654,1282,l)
);
},
{
alignment = -1;
ref = l;
}
);
width = 628;
}
);
unicode = 322;
userData = {
interface.gridadjust.original = "{'width': 769, 'leftMargin': 51, 'rightMargin': 44}";
"interface.width-adjustments" = (
-16
);
};
}
{
glyphname = phook;
kernLeft = m;
kernRight = b;
layers = (
{
layerId = "5C20EF92-B63D-42A8-8878-93C2863E0093";
shapes = (
{
closed = 1;
nodes = (
(688,1601,o),
(722,1631,o),
(816,1628,cs),
(893,1625,o),
(969,1608,o),
(992,1600,c),
(992,1940,l),
(941,1952,o),
(845,1972,o),
(720,1972,cs),
(306,1972,o),
(140,1861,o),
(140,1536,c),
(688,1536,l)
);
},
{
ref = p;
}
);
width = 1824;
},
{
layerId = "B1F27B51-9973-4381-9301-4FE46FE1CA59";
shapes = (
{
closed = 1;
nodes = (
(296,1743,o),
(345,1796,o),
(486,1796,cs),
(512,1796,o),
(549,1794,o),
(584,1790,c),
(584,1854,l),
(550,1858,o),
(513,1860,o),
(486,1860,cs),
(310,1860,o),
(232,1781,o),
(232,1536,c),
(296,1536,l)
);
},
{
alignment = -1;
ref = p;
}
);
width = 1588;
},
{
associatedMasterId = "CD0E3B44-F66A-4791-B84C-A1128DC61275";
layerId = "13C43B72-3A01-466E-8E99-E60D432249E7";
shapes = (
{
closed = 1;
nodes = (
(418,1640,o),
(500,1694,o),
(640,1694,cs),
(664,1694,o),
(694,1690,o),
(718,1686,c),
(718,1890,l),
(696,1896,o),
(642,1902,o),
(578,1902,cs),
(330,1902,o),
(182,1772,o),
(182,1536,c),
(418,1536,l)
);
},
{
alignment = -1;
ref = p;
}
);
width = 1655.04151;
},
{
layerId = "CD0E3B44-F66A-4791-B84C-A1128DC61275";
shapes = (
{
closed = 1;
nodes = (
(430,1640,o),
(512,1694,o),
(652,1694,cs),
(676,1694,o),
(706,1690,o),
(730,1686,c),
(730,1890,l),
(708,1896,o),
(654,1902,o),
(590,1902,cs),
(342,1902,o),
(194,1772,o),
(194,1536,c),
(430,1536,l)
);
},
{
alignment = -1;
pos = (2,0);
ref = p;
}
);
width = 1680;
}
);
unicode = 421;
userData = {
interface.gridadjust.original = "{'width': 1585, 'leftMargin': 188, 'rightMargin': 126}";
"interface.width-adjustments" = (
-16
);
};
}
{
glyphname = Tonetwo;
kernLeft = S;
kernRight = B;
layers = (
{
anchors = (
{
name = bottom;
pos = (928,0);
},
{
name = cedilla;
pos = (932,0);
},
{
name = top;
pos = (936,2304);
}
);
layerId = "5C20EF92-B63D-42A8-8878-93C2863E0093";
shapes = (
{
closed = 1;
nodes = (
(651,1541,o),
(736,1620,o),
(916,1620,cs),
(1088,1620,o),
(1163,1554,o),
(1164,1464,cs),
(1169,1366,o),
(1082,1309,o),
(888,1268,cs),
(720,1232,ls),
(268,1135,o),
(82,916,o),
(80,604,cs),
(82,200,o),
(393,-24,o),
(912,-24,cs),
(1446,-24,o),
(1794,206,o),
(1796,720,c),
(1268,720,l),
(1259,532,o),
(1133,432,o),
(920,432,cs),
(742,432,o),
(650,503,o),
(648,604,cs,{
name = hr00;
}),
(650,697,o),
(728,754,o),
(956,804,cs),
(1160,848,ls),
(1523,926,o),
(1745,1104,o),
(1744,1424,cs),
(1747,1814,o),
(1403,2076,o),
(916,2076,cs),
(420,2076,o),
(110,1810,o),
(108,1408,c),
(640,1408,l)
);
}
);
width = 1876;
},
{
anchors = (
{
name = bottom;
pos = (828,-32);
},
{
name = cedilla;
pos = (828,0);
},
{
name = top;
pos = (828,2304);
}
);
layerId = "B1F27B51-9973-4381-9301-4FE46FE1CA59";
shapes = (
{
closed = 1;
nodes = (
(296,1816,o),
(503,2016,o),
(820,2016,cs),
(1133,2016,o),
(1364,1821,o),
(1364,1552,cs),
(1364,1344,o),
(1226,1202,o),
(932,1112,cs),
(700,1040,ls),
(346,931,o),
(184,772,o),
(184,520,cs),
(184,199,o),
(448,-32,o),
(836,-32,cs),
(1210,-32,o),
(1456,179,o),
(1476,480,c),
(1412,480,l),
(1392,215,o),
(1174,32,o),
(836,32,cs),
(484,32,o),
(248,230,o),
(248,520,cs),
(248,740,o),
(385,873,o),
(716,976,cs),
(948,1048,ls),
(1270,1149,o),
(1428,1315,o),
(1428,1552,cs),
(1428,1854,o),
(1170,2080,o),
(820,2080,cs),
(469,2080,o),
(232,1852,o),
(212,1536,c),
(276,1536,l)
);
}
);
width = 1660;
},
{
anchors = (
{
name = bottom;
pos = (864,-36);
},
{
name = cedilla;
pos = (866,0);
},
{
name = top;
pos = (870,2304);
}
);
associatedMasterId = "CD0E3B44-F66A-4791-B84C-A1128DC61275";
layerId = "8F5554EF-11F4-4CDE-A492-FDE70CADE859";
shapes = (
{
closed = 1;
nodes = (
(426,1734,o),
(610,1850,o),
(856,1850,cs),
(1126,1850,o),
(1304,1708,o),
(1304,1514,cs),
(1304,1298,o),
(1064,1218,o),
(910,1178,cs),
(704,1122,ls),
(486,1066,o),
(126,940,o),
(126,558,cs),
(126,224,o),
(396,-36,o),
(868,-36,cs),
(1310,-36,o),
(1584,192,o),
(1608,532,c),
(1346,532,l),
(1326,302,o),
(1112,194,o),
(868,194,cs),
(588,194,o),
(374,340,o),
(374,562,cs),
(374,762,o),
(564,838,o),
(780,898,cs),
(1030,968,ls),
(1352,1060,o),
(1552,1224,o),
(1552,1502,cs),
(1552,1848,o),
(1244,2076,o),
(850,2076,cs),
(450,2076,o),
(166,1844,o),
(154,1532,c),
(402,1532,l)
);
}
);
width = 1734.35472;
},
{
anchors = (
{
name = bottom;
pos = (876,-36);
},
{
name = cedilla;
pos = (878,0);
},
{
name = top;
pos = (882,2304);
}
);
layerId = "CD0E3B44-F66A-4791-B84C-A1128DC61275";
shapes = (
{
closed = 1;
nodes = (
(438,1734,o),
(622,1850,o),
(868,1850,cs),
(1138,1850,o),
(1316,1708,o),
(1316,1514,cs),
(1316,1298,o),
(1076,1218,o),
(922,1178,cs),
(716,1122,ls),
(498,1066,o),
(138,940,o),
(138,558,cs),
(138,224,o),
(408,-36,o),
(880,-36,cs),
(1322,-36,o),
(1596,192,o),
(1620,532,c),
(1358,532,l),
(1338,302,o),
(1124,194,o),
(880,194,cs),
(600,194,o),
(386,340,o),
(386,562,cs),
(386,762,o),
(576,838,o),
(792,898,cs),
(1042,968,ls),
(1364,1060,o),
(1564,1224,o),
(1564,1502,cs),
(1564,1848,o),
(1256,2076,o),
(862,2076,cs),
(462,2076,o),
(178,1844,o),
(166,1532,c),
(414,1532,l)
);
}
);
width = 1758;
}
);
metricLeft = S;
metricRight = S;
unicode = 423;
userData = {
interface.gridadjust.original = "{'width': 1672.0, 'leftMargin': 105, 'rightMargin': 109.0}";
"interface.width-adjustments" = (
-16
);
};
}
{
glyphname = eshlooprev;
layers = (
{
layerId = "5C20EF92-B63D-42A8-8878-93C2863E0093";
shapes = (
{
closed = 1;
nodes = (
(980,12,ls),
(980,-388,o),
(1222,-608,o),
(1604,-608,cs),
(1694,-608,o),
(1766,-604,o),
(1844,-588,c),
(1844,-184,l),
(1782,-192,o),
(1742,-196,o),
(1696,-196,cs),
(1570,-196,o),
(1496,-120,o),
(1496,12,cs),
(1496,1512,l),
(980,1232,l)
);
},
{
closed = 1;
nodes = (
(206,1164,o),
(494,884,o),
(848,884,cs),
(1202,884,o),
(1494,1168,o),
(1496,1512,cs),
(1498,1852,o),
(1202,2140,o),
(848,2140,cs),
(490,2140,o),
(202,1852,o),
(204,1512,cs)
);
},
{
closed = 1;
nodes = (
(730,1312,o),
(646,1380,o),
(648,1516,cs),
(650,1644,o),
(730,1712,o),
(852,1712,cs),
(954,1712,o),
(1046,1648,o),
(1048,1516,cs),
(1050,1380,o),
(958,1312,o),
(852,1312,cs)
);
}
);
width = 2048;
},
{
layerId = "B1F27B51-9973-4381-9301-4FE46FE1CA59";
shapes = (
{
closed = 1;
nodes = (
(764,-224,ls),
(764,-461,o),
(842,-576,o),
(1002,-576,cs),
(1034,-576,o),
(1068,-571,o),
(1092,-564,c),
(1092,-500,l),
(1066,-507,o),
(1030,-512,o),
(1002,-512,cs),
(881,-512,o),
(828,-424,o),
(828,-224,cs),
(828,1778,l),
(764,1738,l)
);
},
{
closed = 1;
nodes = (
(95,1571,o),
(261,1407,o),
(462,1408,cs),
(667,1409,o),
(830,1571,o),
(828,1774,cs),
(826,1977,o),
(667,2140,o),
(462,2140,cs),
(261,2140,o),
(97,1977,o),
(96,1774,cs)
);
},
{
closed = 1;
nodes = (
(297,1471,o),
(160,1607,o),
(160,1774,cs),
(160,1941,o),
(297,2076,o),
(462,2076,cs),
(631,2076,o),
(762,1941,o),
(764,1774,cs),
(766,1607,o),
(632,1473,o),
(462,1472,cs)
);
}
);
width = 1188;
},
{
associatedMasterId = "CD0E3B44-F66A-4791-B84C-A1128DC61275";
layerId = "D981390C-3600-472D-809D-CD12431B9F84";
shapes = (
{
closed = 1;
nodes = (
(788,-94,ls),
(788,-408,o),
(920,-576,o),
(1182,-576,cs),
(1232,-576,o),
(1304,-568,o),
(1344,-552,c),
(1344,-332,l),
(1316,-340,o),
(1280,-344,o),
(1254,-344,cs),
(1134,-344,o),
(1070,-280,o),
(1070,-94,cs),
(1070,1672,l),
(788,1552,l,{
name = hr00;
})
);
},
{
closed = 1;
nodes = (
(126,1414,o),
(336,1200,o),
(598,1200,cs),
(856,1200,o),
(1070,1414,o),
(1070,1672,cs),
(1070,1934,o),
(856,2142,o),
(598,2142,cs),
(336,2142,o),
(126,1934,o),
(126,1672,cs)
);
},
{
closed = 1;
nodes = (
(478,1456,o),
(386,1528,o),
(386,1676,cs),
(386,1820,o),
(478,1896,o),
(598,1896,cs),
(714,1896,o),
(806,1820,o),
(806,1676,cs),
(806,1528,o),
(714,1456,o),
(598,1456,cs)
);
}
);
width = 1469.3434;
},
{
layerId = "CD0E3B44-F66A-4791-B84C-A1128DC61275";
shapes = (
{
closed = 1;
nodes = (
(796,-94,ls),
(796,-408,o),
(928,-576,o),
(1190,-576,cs),
(1240,-576,o),
(1312,-568,o),
(1352,-552,c),
(1352,-332,l),
(1324,-340,o),
(1288,-344,o),
(1262,-344,cs),
(1142,-344,o),
(1078,-280,o),
(1078,-94,cs),
(1078,1672,l),
(796,1552,l,{
name = hr00;
})
);
},
{
closed = 1;
nodes = (
(134,1414,o),
(344,1200,o),
(606,1200,cs),
(864,1200,o),
(1078,1414,o),
(1078,1672,cs),
(1078,1934,o),
(864,2142,o),
(606,2142,cs),
(344,2142,o),
(134,1934,o),
(134,1672,cs)
);
},
{
closed = 1;
nodes = (
(486,1456,o),
(394,1528,o),
(394,1676,cs),
(394,1820,o),
(486,1896,o),
(606,1896,cs),
(722,1896,o),
(814,1820,o),
(814,1676,cs),
(814,1528,o),
(722,1456,o),
(606,1456,cs)
);
}
);
width = 1486;
}
);
unicode = 426;
userData = {
interface.gridadjust.original = "{'width': 1313, 'leftMargin': 28, 'rightMargin': 75}";
"interface.width-adjustments" = (
-16
);
};
}
{
glyphname = uni0220;
layers = (
{
background = {
shapes = (
{
closed = 1;
nodes = (
(1764,1452,ls),
(1763,1808,o),
(1479,2032,o),
(1088,2032,cs),
(743,2032,o),
(487,1832,o),
(328,1632,c),
(328,1140,l),
(551,1468,o),
(787,1624,o),
(1008,1624,cs),
(1203,1624,o),
(1239,1540,o),
(1240,1452,cs),
(1240,-572,l),
(1764,-572,l)
);
},
{
closed = 1;
nodes = (
(208,2004,l),
(208,0,l),
(728,0,l),
(728,2004,l)
);
}
);
};
layerId = "5C20EF92-B63D-42A8-8878-93C2863E0093";
shapes = (
{
closed = 1;
nodes = (
(1764,1496,ls),
(1764,1842,o),
(1484,2076,o),
(1100,2076,cs),
(799,2076,o),
(532,1932,o),
(328,1676,c),
(328,1184,l),
(543,1500,o),
(775,1668,o),
(1020,1668,cs),
(1160,1668,o),
(1240,1613,o),
(1240,1496,cs),
(1240,-572,l),
(1764,-572,l)
);
},
{
closed = 1;
nodes = (
(208,2048,l),
(208,0,l),
(728,0,l),
(728,2048,l)
);
}
);
width = 1968;
},
{
background = {
shapes = (
{
closed = 1;
nodes = (
(1330,1260,ls),
(1330,1837,o),
(1097,2034,o),
(652,2034,cs),
(455,2034,o),
(286,1988,o),
(158,1900,c),
(188,1842,l),
(314,1929,o),
(463,1970,o),
(672,1970,cs),
(1058,1970,o),
(1266,1803,o),
(1266,1264,cs),
(1266,-576,l),
(1330,-576,l)
);
},
{
closed = 1;
nodes = (
(140,2004,l),
(140,0,l),
(204,0,l),
(204,2004,l)
);
}
);
};
layerId = "B1F27B51-9973-4381-9301-4FE46FE1CA59";
shapes = (
{
closed = 1;
nodes = (
(1298,1302,ls),
(1298,1879,o),
(1059,2076,o),
(626,2076,cs),
(417,2076,o),
(254,2030,o),
(126,1942,c),
(156,1884,l),
(282,1971,o),
(435,2012,o),
(632,2012,cs),
(1030,2012,o),
(1234,1845,o),
(1234,1306,cs),
(1234,-576,l),
(1298,-576,l)
);
},
{
closed = 1;
nodes = (
(108,2048,l),
(108,0,l),
(172,0,l),
(172,2048,l)
);
}
);
width = 1396;
},
{
associatedMasterId = "CD0E3B44-F66A-4791-B84C-A1128DC61275";
layerId = "45CD870F-6BE7-4AC1-B275-9DCC270C7399";
shapes = (
{
closed = 1;
nodes = (
(1588,1402,ls),
(1588,1852,o),
(1242,2076,o),
(862,2076,cs),
(648,2076,o),
(462,2006,o),
(336,1918,c),
(336,1692,l),
(466,1784,o),
(638,1844,o),
(836,1844,cs),
(1136,1844,o),
(1306,1710,o),
(1306,1402,cs),
(1306,-572,l),
(1588,-572,l)
);
},
{
closed = 1;
nodes = (
(134,2048,l),
(134,0,l),
(412,0,l),
(412,2048,l)
);
}
);
width = 1717.10189;
},
{
layerId = "CD0E3B44-F66A-4791-B84C-A1128DC61275";
shapes = (
{
closed = 1;
nodes = (
(1596,1402,ls),
(1596,1852,o),
(1250,2076,o),
(870,2076,cs),
(656,2076,o),
(470,2006,o),
(344,1918,c),
(344,1692,l),
(474,1784,o),
(646,1844,o),
(844,1844,cs),
(1144,1844,o),
(1314,1710,o),
(1314,1402,cs),
(1314,-572,l),
(1596,-572,l)
);
},
{
closed = 1;
nodes = (
(142,2048,l),
(142,0,l),
(420,0,l),
(420,2048,l)
);
}
);
width = 1734;
}
);
unicode = 544;
userData = {
interface.gridadjust.original = "{'width': 1866, 'leftMargin': 228, 'rightMargin': 186}";
"interface.width-adjustments" = (
-16
);
};
}
{
glyphname = jdotless;
kernLeft = jdotless;
kernRight = idotless;
layers = (
{
anchors = (
{
name = _right;
pos = (616,0);
},
{
name = bottom;
pos = (336,-548);
},
{
name = cross;
pos = (416,944);
},
{
name = top;
pos = (416,1792);
}
);
guides = (
{
angle = 90;
pos = (268,1416);
}
);
layerId = "5C20EF92-B63D-42A8-8878-93C2863E0093";
shapes = (
{
closed = 1;
nodes = (
(140,-40,ls),
(140,-129,o),
(100,-168,o),
(-32,-168,cs),
(-52,-168,o),
(-70,-167,o),
(-96,-164,c),
(-96,-572,l),
(-55,-575,o),
(-24,-576,o),
(16,-576,cs),
(421,-576,o),
(692,-456,o),
(692,-52,cs),
(692,1536,l),
(140,1536,l)
);
}
);
width = 832;
},
{
anchors = (
{
name = _right;
pos = (668,0);
},
{
name = bottom;
pos = (240,-608);
},
{
name = cross;
pos = (280,864);
},
{
name = top;
pos = (280,1792);
}
);
layerId = "B1F27B51-9973-4381-9301-4FE46FE1CA59";
shapes = (
{
closed = 1;
nodes = (
(248,-224,ls),
(248,-403,o),
(112,-512,o),
(-40,-512,cs),
(-48,-512,o),
(-56,-512,o),
(-64,-512,c),
(-64,-576,l),
(-55,-576,o),
(-48,-576,o),
(-40,-576,cs),
(148,-576,o),
(312,-440,o),
(312,-224,cs),
(312,1536,l),
(248,1536,l)
);
}
);
width = 560;
},
{
anchors = (
{
name = _right;
pos = (668,0);
},
{
name = bottom;
pos = (240,-608);
},
{
name = cross;
pos = (280,864);
},
{
name = top;
pos = (280,1792);
}
);
associatedMasterId = "B1F27B51-9973-4381-9301-4FE46FE1CA59";
layerId = "3E744BA4-2313-41A9-99CF-5EEFF31B8241";
name = "May 15, 21 16:48";
shapes = (
{
closed = 1;
nodes = (
(248,-224,ls),
(248,-403,o),
(112,-512,o),
(-40,-512,cs),
(-48,-512,o),
(-56,-512,o),
(-64,-512,c),
(-72,-572,l),
(-56,-576,o),
(-48,-576,o),
(-40,-576,cs),
(148,-576,o),
(312,-440,o),
(312,-224,cs),
(312,1536,l),
(248,1536,l)
);
}
);
width = 560;
},
{
anchors = (
{
name = _right;
pos = (640,0);
},
{
name = bottom;
pos = (360,-548);
},
{
name = cross;
pos = (440,944);
},
{
name = top;
pos = (440,1792);
}
);
associatedMasterId = "5C20EF92-B63D-42A8-8878-93C2863E0093";
guides = (
{
angle = 90;
pos = (456,1416);
}
);
layerId = "4F7A8927-1967-4CE5-89D6-6B98AD04E426";
name = "May 15, 21 16:49";
shapes = (
{
closed = 1;
nodes = (
(164,-40,ls),
(164,-129,o),
(124,-168,o),
(-8,-168,cs),
(-28,-168,o),
(-46,-167,o),
(-72,-164,c),
(-72,-572,l),
(-31,-575,o),
(0,-576,o),
(40,-576,cs),
(445,-576,o),
(716,-456,o),
(716,-52,cs),
(716,1536,l),
(164,1536,l)
);
}
);
width = 880;
},
{
anchors = (
{
name = _right;
pos = (620,0);
},
{
name = bottom;
pos = (226,-630);
},
{
name = cross;
pos = (302,894);
},
{
name = top;
pos = (302,1792);
}
);
associatedMasterId = "CD0E3B44-F66A-4791-B84C-A1128DC61275";
layerId = "6F593765-A0D6-4E8B-9EF6-0E6333C359C9";
shapes = (
{
closed = 1;
nodes = (
(182,-110,l),
(182,-264,o),
(118,-352,o),
(-24,-352,cs),
(-40,-352,o),
(-54,-352,o),
(-70,-352,c),
(-70,-576,l),
(-52,-576,o),
(-36,-576,o),
(-20,-576,cs),
(278,-576,o),
(426,-398,o),
(426,-110,c),
(426,1536,l),
(182,1536,l)
);
}
);
width = 608.41509;
},
{
anchors = (
{
name = _right;
pos = (632,0);
},
{
name = bottom;
pos = (238,-630);
},
{
name = cross;
pos = (314,894);
},
{
name = top;
pos = (314,1792);
}
);
layerId = "CD0E3B44-F66A-4791-B84C-A1128DC61275";
shapes = (
{
closed = 1;
nodes = (
(194,-110,l),
(194,-264,o),
(130,-352,o),
(-12,-352,cs),
(-28,-352,o),
(-42,-352,o),
(-58,-352,c),
(-58,-576,l),
(-40,-576,o),
(-24,-576,o),
(-8,-576,cs),
(290,-576,o),
(438,-398,o),
(438,-110,c),
(438,1536,l),
(194,1536,l)
);
}
);
width = 632;
}
);
metricRight = idotless;
unicode = 567;
userData = {
com.typemytype.robofont.guideline.magnetic.Zernh6wcOg = 5;
interface.gridadjust.original = "{'width': 723, 'leftMargin': -92, 'rightMargin': 213}";
"interface.width-adjustments" = (
-16
);
};
}
{
glyphname = uni023B;
kernLeft = C;
kernRight = C;
layers = (
{
layerId = "5C20EF92-B63D-42A8-8878-93C2863E0093";
shapes = (
{
closed = 1;
nodes = (
(840,-260,l),
(1616,2308,l),
(1332,2308,l),
(556,-260,l)
);
},
{
ref = C;
}
);
width = 2164;
},
{
layerId = "B1F27B51-9973-4381-9301-4FE46FE1CA59";
shapes = (
{
closed = 1;
nodes = (
(540,-260,l),
(1536,2308,l),
(1468,2308,l),
(472,-260,l)
);
},
{
ref = C;
}
);
width = 1972;
},
{
associatedMasterId = "CD0E3B44-F66A-4791-B84C-A1128DC61275";
layerId = "18AF2138-7C8D-46CA-A638-FE278297EF43";
shapes = (
{
closed = 1;
nodes = (
(664,-260,l),
(1572,2308,l),
(1344,2308,l),
(434,-260,l)
);
},
{
alignment = -1;
ref = C;
}
);
width = 1987.23774;
},
{
layerId = "CD0E3B44-F66A-4791-B84C-A1128DC61275";
shapes = (
{
closed = 1;
nodes = (
(674,-260,l),
(1582,2308,l),
(1354,2308,l),
(444,-260,l)
);
},
{
alignment = -1;
ref = C;
}
);
width = 2008;
}
);
metricLeft = C;
metricRight = C;
unicode = 571;
userData = {
com.typemytype.robofont.guideline.magnetic.7GS4PBDdqi = 5;
interface.gridadjust.original = "{'width': 1834, 'leftMargin': 256, 'rightMargin': 2}";
"interface.width-adjustments" = (
-16
);
};
}
{
glyphname = ghook;
kernLeft = c;
kernRight = g;
layers = (
{
layerId = "5C20EF92-B63D-42A8-8878-93C2863E0093";
shapes = (
{
closed = 1;
nodes = (
(1696,1548,ls),
(1696,1640,o),
(1825,1660,o),
(1924,1660,cs),
(1965,1660,o),
(1957,1660,o),
(2048,1652,c),
(2048,2060,l),
(1981,2064,o),
(1909,2076,o),
(1772,2076,cs),
(1485,2076,o),
(1144,2032,o),
(1144,1548,cs),
(1144,1436,l),
(1696,1436,l)
);
},
{
pos = (8,0);
ref = g;
}
);
width = 1896;
},
{
layerId = "B1F27B51-9973-4381-9301-4FE46FE1CA59";
shapes = (
{
closed = 1;
nodes = (
(1328,1780,ls),
(1328,1949,o),
(1377,2012,o),
(1518,2012,cs),
(1544,2012,o),
(1581,2010,o),
(1616,2006,c),
(1616,2070,l),
(1582,2074,o),
(1545,2076,o),
(1518,2076,cs),
(1342,2076,o),
(1264,1987,o),
(1264,1780,cs),
(1264,1504,l),
(1328,1504,l,{
name = hr00;
})
);
},
{
alignment = -1;
pos = (-4,0);
ref = g;
}
);
width = 1564;
},
{
associatedMasterId = "CD0E3B44-F66A-4791-B84C-A1128DC61275";
layerId = "37036BBA-40E0-482C-95B5-5C3A322997AC";
shapes = (
{
closed = 1;
nodes = (
(1474,1662,ls),
(1474,1820,o),
(1570,1866,o),
(1698,1866,cs),
(1726,1866,o),
(1752,1862,o),
(1774,1858,c),
(1774,2064,l),
(1738,2076,o),
(1686,2076,o),
(1634,2076,cs),
(1410,2076,o),
(1238,1930,o),
(1238,1662,cs),
(1238,1464,l),
(1474,1464,l)
);
},
{
alignment = -1;
ref = g;
}
);
width = 1668.51321;
},
{
layerId = "CD0E3B44-F66A-4791-B84C-A1128DC61275";
shapes = (
{
closed = 1;
nodes = (
(1484,1662,ls),
(1484,1820,o),
(1580,1866,o),
(1708,1866,cs),
(1736,1866,o),
(1762,1862,o),
(1784,1858,c),
(1784,2064,l),
(1748,2076,o),
(1696,2076,o),
(1644,2076,cs),
(1420,2076,o),
(1248,1930,o),
(1248,1662,cs),
(1248,1464,l),
(1484,1464,l)
);
},
{
alignment = -1;
ref = g;
}
);
width = 1690;
}
);
unicode = 608;
userData = {
interface.gridadjust.original = "{'width': 1667, 'leftMargin': 129, 'rightMargin': -13}";
"interface.width-adjustments" = (
-16
);
};
}
{
glyphname = babygamma;
layers = (
{
background = {
shapes = (
{
closed = 1;
nodes = (
(294,1044,o),
(350,1080,o),
(396,1080,cs),
(462,1080,o),
(554,1016,o),
(736,732,cs),
(866,528,o),
(974,424,o),
(976,360,cs),
(974,344,o),
(966,316,o),
(932,316,c),
(932,-28,l),
(1210,-28,o),
(1418,84,o),
(1420,320,cs),
(1418,500,o),
(1330,612,o),
(1128,952,cs),
(882,1360,o),
(698,1516,o),
(460,1516,cs),
(238,1516,o),
(122,1416,o),
(28,1304,c),
(252,1008,l)
);
},
{
closed = 1;
nodes = (
(1738,1416,o),
(1622,1516,o),
(1408,1516,cs),
(1158,1516,o),
(978,1360,o),
(736,956,cs),
(526,612,o),
(442,492,o),
(444,320,cs),
(442,84,o),
(646,-28,o),
(932,-28,c),
(932,316,l),
(890,316,o),
(882,344,o),
(884,360,cs),
(882,424,o),
(994,524,o),
(1124,728,cs),
(1298,1004,o),
(1382,1080,o),
(1464,1080,cs),
(1510,1080,o),
(1562,1044,o),
(1608,1008,c),
(1840,1304,l)
);
}
);
};
layerId = "5C20EF92-B63D-42A8-8878-93C2863E0093";
shapes = (
{
closed = 1;
nodes = (
(289,1084,o),
(350,1120,o),
(396,1120,cs),
(462,1120,o),
(540,1047,o),
(746,758,cs),
(881,568,o),
(974,424,o),
(976,360,cs),
(974,344,o),
(966,316,o),
(932,316,c),
(932,-28,l),
(1210,-28,o),
(1418,78,o),
(1418,330,cs),
(1418,494,o),
(1332,653,o),
(1212,854,cs),
(882,1400,o),
(712,1556,o),
(456,1556,cs),
(252,1556,o),
(122,1456,o),
(28,1344,c),
(252,1048,l)
);
},
{
closed = 1;
nodes = (
(1738,1456,o),
(1614,1556,o),
(1408,1556,cs),
(1150,1556,o),
(978,1400,o),
(668,882,cs),
(529,650,o),
(442,492,o),
(442,330,cs),
(442,84,o),
(646,-28,o),
(932,-28,c),
(932,316,l),
(890,316,o),
(882,344,o),
(884,360,cs),
(882,424,o),
(975,563,o),
(1188,856,cs),
(1317,1033,o),
(1382,1120,o),
(1464,1120,cs),
(1510,1120,o),
(1567,1084,o),
(1608,1048,c),
(1840,1344,l)
);
}
);
width = 1864;
},
{
background = {
shapes = (
{
closed = 1;
nodes = (
(334,1402,o),
(410,1452,o),
(504,1452,cs),
(646,1452,o),
(743,1323,o),
(1052,718,cs),
(1220,389,o),
(1262,290,o),
(1262,218,cs),
(1262,108,o),
(1172,36,o),
(1034,36,c),
(1034,-28,l),
(1207,-28,o),
(1326,70,o),
(1326,218,cs),
(1326,301,o),
(1291,393,o),
(1060,842,cs),
(777,1391,o),
(673,1516,o),
(502,1516,cs),
(393,1516,o),
(300,1459,o),
(230,1348,c),
(276,1302,l)
);
},
{
closed = 1;
nodes = (
(1768,1459,o),
(1675,1516,o),
(1566,1516,cs),
(1395,1516,o),
(1291,1391,o),
(1008,842,cs),
(777,393,o),
(742,301,o),
(742,218,cs),
(742,70,o),
(861,-28,o),
(1034,-28,c),
(1034,36,l),
(896,36,o),
(806,108,o),
(806,218,cs),
(806,290,o),
(848,389,o),
(1016,718,cs),
(1326,1323,o),
(1422,1452,o),
(1564,1452,cs),
(1658,1452,o),
(1734,1402,o),
(1792,1302,c),
(1838,1348,l)
);
}
);
};
layerId = "B1F27B51-9973-4381-9301-4FE46FE1CA59";
shapes = (
{
closed = 1;
nodes = (
(302,1446,o),
(378,1496,o),
(472,1496,cs),
(614,1496,o),
(711,1367,o),
(954,890,cs),
(1188,433,o),
(1230,290,o),
(1230,220,cs),
(1230,108,o),
(1140,36,o),
(1002,36,c),
(1002,-28,l),
(1175,-28,o),
(1294,70,o),
(1294,220,cs),
(1294,301,o),
(1259,437,o),
(1020,902,cs),
(745,1435,o),
(641,1560,o),
(474,1560,cs),
(361,1560,o),
(268,1503,o),
(198,1392,c),
(244,1346,l)
);
},
{
closed = 1;
nodes = (
(1736,1503,o),
(1643,1560,o),
(1530,1560,cs),
(1363,1560,o),
(1259,1435,o),
(984,902,cs),
(745,437,o),
(710,301,o),
(710,220,cs),
(710,70,o),
(829,-28,o),
(1002,-28,c),
(1002,36,l),
(864,36,o),
(774,108,o),
(774,220,cs),
(774,290,o),
(816,433,o),
(1058,906,cs),
(1294,1367,o),
(1390,1496,o),
(1532,1496,cs),
(1626,1496,o),
(1702,1446,o),
(1760,1346,c),
(1806,1392,l)
);
}
);
width = 2004;
},
{
associatedMasterId = "CD0E3B44-F66A-4791-B84C-A1128DC61275";
layerId = "9DEEE72A-B45F-4E74-8E16-1BCF4ECC51B8";
shapes = (
{
closed = 1;
nodes = (
(342,1236,o),
(394,1284,o),
(458,1284,cs),
(588,1284,o),
(644,1188,o),
(780,946,cs),
(994,560,o),
(1076,392,o),
(1076,296,cs),
(1076,250,o),
(1054,202,o),
(982,202,c),
(982,-28,l),
(1220,-28,o),
(1356,96,o),
(1356,286,cs),
(1356,464,o),
(1234,690,o),
(1152,836,cs),
(924,1246,o),
(782,1556,o),
(502,1556,cs),
(342,1556,o),
(214,1456,o),
(122,1348,c),
(294,1172,l)
);
},
{
closed = 1;
nodes = (
(1754,1456,o),
(1630,1556,o),
(1468,1556,cs),
(1188,1556,o),
(1038,1248,o),
(812,834,cs),
(732,690,o),
(608,464,o),
(608,286,cs),
(608,96,o),
(748,-28,o),
(982,-28,c),
(982,202,l),
(910,202,o),
(888,250,o),
(888,296,cs),
(888,392,o),
(968,560,o),
(1086,766,cs),
(1324,1180,o),
(1380,1284,o),
(1510,1284,cs),
(1570,1284,o),
(1626,1236,o),
(1674,1172,c),
(1848,1348,l)
);
}
);
width = 1964.2717;
},
{
layerId = "CD0E3B44-F66A-4791-B84C-A1128DC61275";
shapes = (
{
closed = 1;
nodes = (
(354,1236,o),
(406,1284,o),
(470,1284,cs),
(600,1284,o),
(656,1188,o),
(792,946,cs),
(1006,560,o),
(1088,392,o),
(1088,296,cs),
(1088,250,o),
(1066,202,o),
(994,202,c),
(994,-28,l),
(1232,-28,o),
(1368,96,o),
(1368,286,cs),
(1368,464,o),
(1246,690,o),
(1164,836,cs),
(936,1246,o),
(794,1556,o),
(514,1556,cs),
(354,1556,o),
(226,1456,o),
(134,1348,c),
(306,1172,l)
);
},
{
closed = 1;
nodes = (
(1766,1456,o),
(1642,1556,o),
(1480,1556,cs),
(1200,1556,o),
(1050,1248,o),
(824,834,cs),
(744,690,o),
(620,464,o),
(620,286,cs),
(620,96,o),
(760,-28,o),
(994,-28,c),
(994,202,l),
(922,202,o),
(900,250,o),
(900,296,cs),
(900,392,o),
(980,560,o),
(1098,766,cs),
(1336,1180,o),
(1392,1284,o),
(1522,1284,cs),
(1582,1284,o),
(1638,1236,o),
(1686,1172,c),
(1860,1348,l)
);
}
);
width = 1990;
}
);
unicode = 612;
userData = {
interface.gridadjust.original = "{'width': 1807, 'leftMargin': 41, 'rightMargin': 41}";
"interface.width-adjustments" = (
-16
);
};
}
{
glyphname = mhook;
kernLeft = m;
kernRight = a;
layers = (
{
layerId = "5C20EF92-B63D-42A8-8878-93C2863E0093";
shapes = (
{
closed = 1;
nodes = (
(1964,-48,ls),
(1964,-140,o),
(1853,-160,o),
(1756,-160,cs),
(1713,-160,o),
(1677,-156,o),
(1632,-152,c),
(1632,-560,l),
(1697,-564,o),
(1773,-576,o),
(1904,-576,cs),
(2241,-576,o),
(2516,-500,o),
(2516,-48,cs),
(2516,0,l),
(1964,0,l)
);
},
{
ref = m;
}
);
width = 2648;
},
{
layerId = "B1F27B51-9973-4381-9301-4FE46FE1CA59";
shapes = (
{
closed = 1;
nodes = (
(1984,-232,ls),
(1984,-420,o),
(1912,-508,o),
(1772,-508,cs),
(1735,-508,o),
(1702,-502,o),
(1676,-496,c),
(1676,-554,l),
(1700,-566,o),
(1736,-572,o),
(1776,-572,cs),
(1950,-572,o),
(2048,-454,o),
(2048,-232,cs),
(2048,0,l),
(1984,0,l)
);
},
{
alignment = -1;
ref = m;
}
);
width = 2288;
},
{
associatedMasterId = "CD0E3B44-F66A-4791-B84C-A1128DC61275";
layerId = "619F1E90-D791-4014-8EC7-A92BE539D626";
shapes = (
{
closed = 1;
nodes = (
(1964,-162,ls),
(1964,-320,o),
(1868,-366,o),
(1740,-366,cs),
(1712,-366,o),
(1684,-362,o),
(1662,-358,c),
(1662,-564,l),
(1700,-576,o),
(1752,-576,o),
(1802,-576,cs),
(2028,-576,o),
(2208,-430,o),
(2208,-162,cs),
(2208,0,l),
(1964,0,l)
);
},
{
alignment = -1;
ref = m;
}
);
width = 2389.29811;
},
{
layerId = "CD0E3B44-F66A-4791-B84C-A1128DC61275";
shapes = (
{
closed = 1;
nodes = (
(1974,-162,ls),
(1974,-320,o),
(1878,-366,o),
(1750,-366,cs),
(1722,-366,o),
(1694,-362,o),
(1672,-358,c),
(1672,-564,l),
(1710,-576,o),
(1762,-576,o),
(1812,-576,cs),
(2038,-576,o),
(2218,-430,o),
(2218,-162,cs),
(2218,0,l),
(1974,0,l)
);
},
{
alignment = -1;
ref = m;
}
);
width = 2414;
}
);
metricLeft = m;
metricRight = m;
unicode = 625;
userData = {
interface.gridadjust.original = "{'width': 2463, 'leftMargin': 256, 'rightMargin': 159}";
"interface.width-adjustments" = (
-16
);
};
}
{
glyphname = rturnascend;
layers = (
{
layerId = "5C20EF92-B63D-42A8-8878-93C2863E0093";
shapes = (
{
closed = 1;
nodes = (
(576,0,l),
(1060,0,l),
(1060,2112,l),
(544,2112,l),
(544,424,l)
);
},
{
closed = 1;
nodes = (
(120,-28,o),
(168,-28,o),
(216,-28,c),
(484,-28,o),
(660,240,o),
(660,656,c),
(568,748,l),
(576,560,o),
(480,480,o),
(256,480,c),
(220,480,o),
(128,488,o),
(88,492,c),
(84,-12,l)
);
}
);
width = 1140;
},
{
layerId = "B1F27B51-9973-4381-9301-4FE46FE1CA59";
shapes = (
{
closed = 1;
nodes = (
(642,0,l),
(696,0,l),
(696,2112,l),
(632,2112,l),
(632,324,l)
);
},
{
closed = 1;
nodes = (
(169,-18,o),
(194,-20,o),
(224,-20,cs),
(491,-20,o),
(673,191,o),
(674,504,c),
(632,504,l),
(632,237,o),
(460,44,o),
(220,44,cs),
(194,44,o),
(168,47,o),
(140,52,c),
(140,-12,l)
);
}
);
width = 842;
},
{
associatedMasterId = "CD0E3B44-F66A-4791-B84C-A1128DC61275";
layerId = "79B4EEDB-1812-46A4-A0D5-EDFA5A7DDEAE";
shapes = (
{
closed = 1;
nodes = (
(568,0,l),
(840,0,l),
(840,2112,l),
(560,2112,l),
(560,236,l)
);
},
{
closed = 1;
nodes = (
(128,-16,o),
(186,-28,o),
(224,-28,c),
(538,-28,o),
(676,272,o),
(676,624,c),
(602,584,l),
(576,380,o),
(464,238,o),
(236,238,c),
(188,238,o),
(154,242,o),
(106,250,c),
(106,-8,l)
);
}
);
width = 947.63019;
},
{
layerId = "CD0E3B44-F66A-4791-B84C-A1128DC61275";
shapes = (
{
closed = 1;
nodes = (
(580,0,l),
(852,0,l),
(852,2112,l),
(572,2112,l),
(572,236,l)
);
},
{
closed = 1;
nodes = (
(140,-16,o),
(198,-28,o),
(236,-28,c),
(550,-28,o),
(688,272,o),
(688,624,c),
(614,584,l),
(588,380,o),
(476,238,o),
(248,238,c),
(200,238,o),
(166,242,o),
(118,250,c),
(118,-8,l)
);
}
);
width = 970;
}
);
unicode = 634;
userData = {
interface.gridadjust.original = "{'width': 956, 'leftMargin': 41, 'rightMargin': 189}";
"interface.width-adjustments" = (
-16
);
};
}
{
glyphname = finalkaf;
layers = (
{
layerId = "5C20EF92-B63D-42A8-8878-93C2863E0093";
shapes = (
{
closed = 1;
nodes = (
(1618,352,o),
(1566,328,o),
(1360,328,cs),
(1142,328,o),
(806,412,o),
(512,608,c),
(372,228,l),
(750,40,o),
(1018,-28,o),
(1360,-28,cs),
(1846,-28,o),
(2114,172,o),
(2116,436,c),
(2114,720,o),
(1918,848,o),
(1560,912,cs),
(1374,944,o),
(1258,968,o),
(1260,1060,c),
(1258,1144,o),
(1346,1180,o),
(1424,1180,cs),
(1558,1180,o),
(1606,1136,o),
(1608,1024,c),
(2120,1024,l),
(2118,1320,o),
(1854,1516,o),
(1428,1516,cs),
(1010,1516,o),
(774,1288,o),
(776,1032,c),
(774,752,o),
(1046,624,o),
(1324,564,cs),
(1542,516,o),
(1618,492,o),
(1620,428,cs)
);
},
{
closed = 1;
nodes = (
(160,2048,l),
(160,0,l),
(712,0,l),
(712,2048,l)
);
}
);
width = 2308;
},
{
layerId = "B1F27B51-9973-4381-9301-4FE46FE1CA59";
shapes = (
{
closed = 1;
nodes = (
(1196,165,o),
(1016,32,o),
(748,32,cs),
(421,32,o),
(192,152,o),
(80,382,c),
(24,352,l),
(136,106,o),
(397,-32,o),
(748,-32,cs),
(1051,-32,o),
(1260,129,o),
(1260,404,cs),
(1260,610,o),
(1142,716,o),
(804,800,cs),
(463,884,o),
(364,965,o),
(364,1136,cs),
(364,1359,o),
(530,1496,o),
(776,1496,cs),
(986,1496,o),
(1121,1397,o),
(1184,1196,c),
(1248,1212,l),
(1173,1442,o),
(1013,1560,o),
(776,1560,cs),
(494,1560,o),
(300,1395,o),
(300,1136,cs),
(300,931,o),
(419,829,o),
(788,736,cs),
(1101,658,o),
(1196,576,o),
(1196,404,cs)
);
},
{
closed = 1;
nodes = (
(20,2048,l),
(20,0,l),
(84,0,l),
(84,2048,l)
);
}
);
width = 1342;
},
{
associatedMasterId = "CD0E3B44-F66A-4791-B84C-A1128DC61275";
layerId = "34B7AE02-1C0C-4F46-99AE-3594153D7256";
shapes = (
{
closed = 1;
nodes = (
(1330,282,o),
(1224,196,o),
(1028,196,cs),
(874,196,o),
(546,244,o),
(250,514,c),
(146,298,l),
(412,40,o),
(766,-28,o),
(1028,-28,cs),
(1380,-28,o),
(1612,156,o),
(1612,420,c),
(1612,666,o),
(1420,794,o),
(1060,870,cs),
(830,916,o),
(740,968,o),
(740,1084,c),
(740,1186,o),
(820,1294,o),
(1022,1294,cs),
(1208,1294,o),
(1314,1164,o),
(1314,1048,c),
(1596,1048,l),
(1596,1304,o),
(1384,1516,o),
(1022,1516,cs),
(684,1516,o),
(464,1312,o),
(464,1074,c),
(464,830,o),
(664,718,o),
(1004,642,cs),
(1258,586,o),
(1330,524,o),
(1330,396,cs)
);
},
{
closed = 1;
nodes = (
(70,2048,l),
(70,0,l),
(314,0,l),
(314,2048,l)
);
}
);
width = 1725.44151;
},
{
layerId = "CD0E3B44-F66A-4791-B84C-A1128DC61275";
shapes = (
{
closed = 1;
nodes = (
(1338,282,o),
(1232,196,o),
(1036,196,cs),
(882,196,o),
(554,244,o),
(258,514,c),
(154,298,l),
(420,40,o),
(774,-28,o),
(1036,-28,cs),
(1388,-28,o),
(1620,156,o),
(1620,420,c),
(1620,666,o),
(1428,794,o),
(1068,870,cs),
(838,916,o),
(748,968,o),
(748,1084,c),
(748,1186,o),
(828,1294,o),
(1030,1294,cs),
(1216,1294,o),
(1322,1164,o),
(1322,1048,c),
(1604,1048,l),
(1604,1304,o),
(1392,1516,o),
(1030,1516,cs),
(692,1516,o),
(472,1312,o),
(472,1074,c),
(472,830,o),
(672,718,o),
(1012,642,cs),
(1266,586,o),
(1338,524,o),
(1338,396,cs)
);
},
{
closed = 1;
nodes = (
(78,2048,l),
(78,0,l),
(322,0,l),
(322,2048,l)
);
}
);
width = 1742;
}
);
unicode = 682;
userData = {
interface.gridadjust.original = "{'width': 1874, 'leftMargin': 256, 'rightMargin': 135}";
"interface.width-adjustments" = (
-16
);
};
}
{
glyphname = finalmem;
layers = (
{
layerId = "5C20EF92-B63D-42A8-8878-93C2863E0093";
shapes = (
{
closed = 1;
nodes = (
(416,804,l),
(416,520,l),
(908,520,l),
(908,804,l)
);
},
{
closed = 1;
nodes = (
(68,804,l),
(68,0,l),
(440,0,l),
(440,804,l)
);
},
{
closed = 1;
nodes = (
(884,804,l),
(884,0,l),
(1256,0,l),
(1256,804,l)
);
},
{
closed = 1;
nodes = (
(416,2004,l),
(416,1716,l),
(908,1716,l),
(908,2004,l)
);
},
{
closed = 1;
nodes = (
(68,2004,l),
(68,1200,l),
(440,1200,l),
(440,2004,l)
);
},
{
closed = 1;
nodes = (
(884,2004,l),
(884,1200,l),
(1256,1200,l),
(1256,2004,l)
);
}
);
width = 1328;
},
{
layerId = "B1F27B51-9973-4381-9301-4FE46FE1CA59";
shapes = (
{
closed = 1;
nodes = (
(288,800,l),
(288,736,l),
(1284,736,l),
(1284,800,l)
);
},
{
closed = 1;
nodes = (
(256,800,l),
(256,0,l),
(320,0,l),
(320,800,l)
);
},
{
closed = 1;
nodes = (
(1264,800,l),
(1264,0,l),
(1328,0,l),
(1328,800,l)
);
},
{
closed = 1;
nodes = (
(288,2000,l),
(288,1936,l),
(1284,1936,l),
(1284,2000,l)
);
},
{
closed = 1;
nodes = (
(256,2000,l),
(256,1208,l),
(320,1208,l),
(320,2000,l)
);
},
{
closed = 1;
nodes = (
(1264,2000,l),
(1264,1208,l),
(1328,1208,l),
(1328,2000,l)
);
}
);
width = 1572;
},
{
associatedMasterId = "CD0E3B44-F66A-4791-B84C-A1128DC61275";
layerId = "BF371D9B-A5FE-4DC7-A04A-BE94DC863843";
shapes = (
{
closed = 1;
nodes = (
(352,800,l),
(352,630,l),
(1094,630,l),
(1094,800,l)
);
},
{
closed = 1;
nodes = (
(168,800,l),
(168,0,l),
(380,0,l),
(380,800,l)
);
},
{
closed = 1;
nodes = (
(1074,800,l),
(1074,0,l),
(1286,0,l),
(1286,800,l)
);
},
{
closed = 1;
nodes = (
(352,2000,l),
(352,1830,l),
(1094,1830,l),
(1094,2000,l)
);
},
{
closed = 1;
nodes = (
(168,2000,l),
(168,1204,l),
(380,1204,l),
(380,2000,l)
);
},
{
closed = 1;
nodes = (
(1074,2000,l),
(1074,1204,l),
(1286,1204,l),
(1286,2000,l)
);
}
);
width = 1451.68302;
},
{
layerId = "CD0E3B44-F66A-4791-B84C-A1128DC61275";
shapes = (
{
closed = 1;
nodes = (
(366,800,l),
(366,630,l),
(1108,630,l),
(1108,800,l)
);
},
{
closed = 1;
nodes = (
(182,800,l),
(182,0,l),
(394,0,l),
(394,800,l)
);
},
{
closed = 1;
nodes = (
(1088,800,l),
(1088,0,l),
(1300,0,l),
(1300,800,l)
);
},
{
closed = 1;
nodes = (
(366,2000,l),
(366,1830,l),
(1108,1830,l),
(1108,2000,l)
);
},
{
closed = 1;
nodes = (
(182,2000,l),
(182,1204,l),
(394,1204,l),
(394,2000,l)
);
},
{
closed = 1;
nodes = (
(1088,2000,l),
(1088,1204,l),
(1300,1204,l),
(1300,2000,l)
);
}
);
width = 1478;
}
);
unicode = 685;
userData = {
interface.gridadjust.original = "{'width': 1335, 'leftMargin': 110, 'rightMargin': 110}";
"interface.width-adjustments" = (
-16
);
};
}
{
color = (204,240,242,1);
glyphname = breve;
layers = (
{
anchors = (
{
name = _top;
pos = (710,1792);
},
{
name = mkmktop_acc;
pos = (710,2276);
}
);
layerId = "5C20EF92-B63D-42A8-8878-93C2863E0093";
shapes = (
{
closed = 1;
nodes = (
(909,2000,o),
(853,1920,o),
(710,1920,cs),
(561,1920,o),
(505,2004,o),
(506,2088,c),
(162,2088,l),
(161,1828,o),
(373,1660,o),
(710,1660,cs),
(1045,1660,o),
(1257,1828,o),
(1258,2088,c),
(910,2088,l)
);
}
);
width = 1420;
},
{
anchors = (
{
name = _top;
pos = (552,1792);
},
{
name = mkmktop_acc;
pos = (552,2212);
}
);
layerId = "B1F27B51-9973-4381-9301-4FE46FE1CA59";
shapes = (
{
closed = 1;
nodes = (
(712,1942,o),
(656,1884,o),
(552,1884,cs),
(448,1884,o),
(392,1942,o),
(392,2048,c),
(328,2048,l),
(328,1907,o),
(412,1820,o),
(552,1820,cs),
(692,1820,o),
(776,1907,o),
(776,2048,c),
(712,2048,l)
);
}
);
width = 1104;
},
{
anchors = (
{
name = _top;
pos = (602,1792);
},
{
name = mkmktop_acc;
pos = (602,2236);
}
);
associatedMasterId = "CD0E3B44-F66A-4791-B84C-A1128DC61275";
layerId = "0D27F56A-625A-4AB7-B3C2-C1524AA2CD70";
shapes = (
{
closed = 1;
nodes = (
(798,1946,o),
(742,1854,o),
(602,1854,cs),
(462,1854,o),
(410,1946,o),
(410,2048,c),
(186,2048,l),
(186,1832,o),
(348,1680,o),
(602,1680,cs),
(860,1680,o),
(1022,1832,o),
(1022,2048,c),
(798,2048,l)
);
}
);
width = 1204.21887;
},
{
anchors = (
{
name = _top;
pos = (614,1792);
},
{
name = mkmktop_acc;
pos = (614,2236);
}
);
layerId = "CD0E3B44-F66A-4791-B84C-A1128DC61275";
shapes = (
{
closed = 1;
nodes = (
(810,1946,o),
(754,1854,o),
(614,1854,cs),
(474,1854,o),
(422,1946,o),
(422,2048,c),
(198,2048,l),
(198,1832,o),
(360,1680,o),
(614,1680,cs),
(872,1680,o),
(1034,1832,o),
(1034,2048,c),
(810,2048,l)
);
}
);
width = 1228;
}
);
unicode = 728;
userData = {
interface.gridadjust.original = "{'width': 1206, 'leftMargin': 176, 'rightMargin': 201}";
"interface.width-adjustments" = (
-16
);
};
}
{
color = (204,240,242,1);
glyphname = ring;
layers = (
{
anchors = (
{
name = _top;
pos = (608,1792);
}
);
layerId = "5C20EF92-B63D-42A8-8878-93C2863E0093";
shapes = (
{
closed = 1;
nodes = (
(788,1696,o),
(936,1840,o),
(936,2016,cs),
(936,2192,o),
(788,2336,o),
(608,2336,cs),
(428,2336,o),
(280,2192,o),
(280,2016,cs),
(280,1840,o),
(428,1696,o),
(608,1696,cs)
);
},
{
closed = 1;
nodes = (
(535,1891,o),
(476,1948,o),
(476,2016,cs),
(476,2084,o),
(535,2139,o),
(608,2140,cs),
(681,2141,o),
(740,2084,o),
(740,2016,cs),
(740,1948,o),
(681,1893,o),
(608,1892,cs)
);
}
);
width = 1216;
},
{
anchors = (
{
name = _top;
pos = (304,1792);
}
);
guides = (
{
orientation = center;
pos = (844,2540);
}
);
layerId = "B1F27B51-9973-4381-9301-4FE46FE1CA59";
shapes = (
{
closed = 1;
nodes = (
(431,1728,o),
(532,1829,o),
(532,1956,cs),
(532,2083,o),
(431,2184,o),
(304,2184,cs),
(177,2184,o),
(76,2083,o),
(76,1956,cs),
(76,1829,o),
(177,1728,o),
(304,1728,cs)
);
},
{
closed = 1;
nodes = (
(213,1792,o),
(140,1864,o),
(140,1956,cs),
(140,2047,o),
(212,2120,o),
(304,2120,cs),
(395,2120,o),
(468,2048,o),
(468,1956,cs),
(468,1865,o),
(396,1792,o),
(304,1792,cs)
);
}
);
width = 608;
},
{
anchors = (
{
name = _top;
pos = (336,1856);
},
{
name = mkmktop_acc;
pos = (352,2824);
}
);
associatedMasterId = "B1F27B51-9973-4381-9301-4FE46FE1CA59";
guides = (
{
orientation = center;
pos = (508,2400);
},
{
orientation = center;
pos = (980,1952);
},
{
orientation = center;
pos = (980,1856);
}
);
layerId = "2C67753F-5A3C-44E5-A15B-213345C4B850";
name = "Nov 25 18, 14:50";
shapes = (
{
closed = 1;
nodes = (
(424,1792,o),
(496,1864,o),
(496,1952,cs),
(496,2040,o),
(424,2112,o),
(336,2112,cs),
(248,2112,o),
(176,2040,o),
(176,1952,cs),
(176,1864,o),
(248,1792,o),
(336,1792,cs)
);
}
);
width = 672;
},
{
anchors = (
{
name = _top;
pos = (612,1524);
},
{
name = mkmktop_acc;
pos = (612,1920);
}
);
associatedMasterId = "5C20EF92-B63D-42A8-8878-93C2863E0093";
layerId = "ACD1818C-423A-446E-B5A1-6028A675DB36";
name = "Nov 29 18, 22:45";
shapes = (
{
closed = 1;
nodes = (
(304,1544,o),
(428,1436,o),
(612,1436,cs),
(792,1436,o),
(916,1544,o),
(916,1680,cs),
(916,1812,o),
(792,1932,o),
(612,1932,cs),
(428,1932,o),
(304,1812,o),
(304,1680,c)
);
},
{
closed = 1;
nodes = (
(472,1752,o),
(528,1804,o),
(612,1804,cs),
(692,1804,o),
(748,1752,o),
(748,1680,cs),
(748,1608,o),
(696,1552,o),
(612,1552,cs),
(524,1552,o),
(472,1608,o),
(472,1680,c)
);
}
);
width = 1220;
},
{
anchors = (
{
name = _top;
pos = (412,1792);
}
);
associatedMasterId = "CD0E3B44-F66A-4791-B84C-A1128DC61275";
layerId = "31126A68-86C8-4591-B50E-D6E5AB1FC80D";
shapes = (
{
closed = 1;
nodes = (
(616,1708,o),
(772,1856,o),
(772,2048,cs),
(772,2238,o),
(616,2398,o),
(412,2398,cs),
(208,2398,o),
(50,2238,o),
(50,2048,cs),
(50,1856,o),
(208,1708,o),
(412,1708,cs)
);
},
{
closed = 1;
nodes = (
(302,1860,o),
(222,1952,o),
(222,2048,cs),
(222,2146,o),
(302,2242,o),
(412,2242,cs),
(524,2242,o),
(602,2146,o),
(602,2048,cs),
(602,1952,o),
(524,1860,o),
(412,1860,cs)
);
}
);
width = 824.63396;
},
{
anchors = (
{
name = _top;
pos = (416,1792);
}
);
layerId = "CD0E3B44-F66A-4791-B84C-A1128DC61275";
shapes = (
{
closed = 1;
nodes = (
(620,1708,o),
(776,1856,o),
(776,2048,cs),
(776,2238,o),
(620,2398,o),
(416,2398,cs),
(212,2398,o),
(54,2238,o),
(54,2048,cs),
(54,1856,o),
(212,1708,o),
(416,1708,cs)
);
},
{
closed = 1;
nodes = (
(306,1860,o),
(226,1952,o),
(226,2048,cs),
(226,2146,o),
(306,2242,o),
(416,2242,cs),
(528,2242,o),
(606,2146,o),
(606,2048,cs),
(606,1952,o),
(528,1860,o),
(416,1860,cs)
);
}
);
width = 834;
}
);
note = "recipe: offset curve 30, no auto; then redrawn two circles manually for perfect fit.";
unicode = 730;
userData = {
"interface.width-adjustments" = (
-16
);
};
}
{
color = 1;
glyphname = l.sups;
kernLeft = B.sups;
kernRight = H.sups;
layers = (
{
layerId = "5C20EF92-B63D-42A8-8878-93C2863E0093";
shapes = (
{
closed = 1;
nodes = (
(88,2388,l),
(88,1024,l),
(452,1024,l),
(452,2388,l)
);
}
);
userData = {
RMXScaler = {
height = 66.6;
verticalShift = 1024;
weight = -300;
width = 66.6;
};
};
width = 540;
},
{
layerId = "B1F27B51-9973-4381-9301-4FE46FE1CA59";
shapes = (
{
closed = 1;
nodes = (
(144,2388,l),
(144,1024,l),
(204,1024,l),
(204,2388,l)
);
}
);
userData = {
RMXScaler = {
height = 66.6;
verticalShift = 1024;
width = 66.6;
};
};
width = 348;
},
{
associatedMasterId = "CD0E3B44-F66A-4791-B84C-A1128DC61275";
layerId = "C7C2C2CB-A9A7-4A3D-9066-E7E4A0A2CC33";
shapes = (
{
closed = 1;
nodes = (
(100,2388,l),
(100,1024,l),
(314,1024,l),
(314,2388,l)
);
}
);
userData = {
RMXScaler = {
height = 66.6;
verticalShift = 1024;
weight = -50;
width = 66.6;
};
};
width = 413.96226;
},
{
layerId = "CD0E3B44-F66A-4791-B84C-A1128DC61275";
shapes = (
{
closed = 1;
nodes = (
(110,2388,l),
(110,1024,l),
(324,1024,l),
(324,2388,l)
);
}
);
userData = {
RMXScaler = {
height = 66.6;
verticalShift = 1024;
weight = -50;
width = 66.6;
};
};
width = 434;
}
);
metricLeft = h.sups;
unicode = 737;
userData = {
RMXScaler = {
source = l;
};
};
}
{
color = (204,240,242,1);
glyphname = tonebarhighmod.cn;
layers = (
{
layerId = "5C20EF92-B63D-42A8-8878-93C2863E0093";
shapes = (
{
closed = 1;
nodes = (
(528,2004,l),
(528,0,l),
(1044,0,l),
(1044,2004,l)
);
},
{
closed = 1;
nodes = (
(104,1708,l),
(104,1292,l),
(1000,1292,l),
(1000,1708,l)
);
}
);
width = 1140;
},
{
layerId = "B1F27B51-9973-4381-9301-4FE46FE1CA59";
shapes = (
{
closed = 1;
nodes = (
(592,2004,l),
(592,0,l),
(656,0,l),
(656,2004,l)
);
},
{
closed = 1;
nodes = (
(208,1544,l),
(208,1480,l),
(632,1480,l),
(632,1544,l)
);
}
);
width = 866;
},
{
associatedMasterId = "CD0E3B44-F66A-4791-B84C-A1128DC61275";
layerId = "F56BA97C-7C49-4691-8D16-DA5D6764F7DD";
shapes = (
{
closed = 1;
nodes = (
(512,2004,l),
(512,0,l),
(794,0,l),
(794,2004,l)
);
},
{
closed = 1;
nodes = (
(154,1614,l),
(154,1390,l),
(726,1390,l),
(726,1614,l)
);
}
);
width = 947.63019;
},
{
layerId = "CD0E3B44-F66A-4791-B84C-A1128DC61275";
shapes = (
{
closed = 1;
nodes = (
(524,2004,l),
(524,0,l),
(806,0,l),
(806,2004,l)
);
},
{
closed = 1;
nodes = (
(166,1614,l),
(166,1390,l),
(738,1390,l),
(738,1614,l)
);
}
);
width = 972;
}
);
unicode = 742;
userData = {
interface.gridadjust.original = "{'width': 919, 'leftMargin': 55, 'rightMargin': 234}";
"interface.width-adjustments" = (
-16
);
};
}
{
color = (204,240,242,1);
glyphname = uni02F7;
layers = (
{
layerId = "5C20EF92-B63D-42A8-8878-93C2863E0093";
shapes = (
{
closed = 1;
nodes = (
(993,-240,o),
(941,-268,o),
(884,-268,cs),
(749,-268,o),
(629,-156,o),
(480,-156,cs),
(285,-156,o),
(145,-352,o),
(144,-544,c),
(428,-556,l),
(429,-480,o),
(481,-452,o),
(536,-452,cs),
(681,-452,o),
(765,-556,o),
(940,-556,cs),
(1137,-556,o),
(1277,-368,o),
(1276,-172,c),
(992,-156,l)
);
}
);
width = 1420;
},
{
layerId = "B1F27B51-9973-4381-9301-4FE46FE1CA59";
shapes = (
{
closed = 1;
nodes = (
(941,-436,o),
(875,-536,o),
(760,-536,cs),
(586,-536,o),
(553,-310,o),
(352,-310,cs),
(217,-310,o),
(105,-412,o),
(108,-596,c),
(172,-600,l),
(167,-475,o),
(234,-374,o),
(348,-374,cs),
(518,-374,o),
(554,-599,o),
(754,-600,cs),
(890,-601,o),
(1004,-498,o),
(1000,-314,c),
(936,-310,l)
);
}
);
width = 1106;
},
{
associatedMasterId = "CD0E3B44-F66A-4791-B84C-A1128DC61275";
layerId = "C8029F2C-E5AB-447F-A969-7F7EBFA3B5B2";
shapes = (
{
closed = 1;
nodes = (
(914,-310,o),
(854,-378,o),
(778,-378,cs),
(634,-378,o),
(566,-250,o),
(414,-250,cs),
(240,-250,o),
(108,-392,o),
(108,-598,c),
(294,-606,l),
(294,-522,o),
(350,-456,o),
(426,-456,cs),
(578,-456,o),
(608,-584,o),
(796,-584,cs),
(964,-584,o),
(1096,-450,o),
(1096,-242,c),
(914,-226,l)
);
}
);
width = 1204.21887;
},
{
layerId = "CD0E3B44-F66A-4791-B84C-A1128DC61275";
shapes = (
{
closed = 1;
nodes = (
(924,-310,o),
(864,-378,o),
(788,-378,cs),
(644,-378,o),
(576,-250,o),
(424,-250,cs),
(250,-250,o),
(118,-392,o),
(118,-598,c),
(304,-606,l),
(304,-522,o),
(360,-456,o),
(436,-456,cs),
(588,-456,o),
(618,-584,o),
(806,-584,cs),
(974,-584,o),
(1106,-450,o),
(1106,-242,c),
(924,-226,l)
);
}
);
width = 1224;
}
);
unicode = 759;
userData = {
interface.gridadjust.original = "{'width': 1176, 'leftMargin': 96, 'rightMargin': 97}";
"interface.width-adjustments" = (
-16
);
};
}
{
color = (250,227,227,1);
glyphname = bridgesubnosp;
layers = (
{
anchors = (
{
name = _bottom;
pos = (-880,0);
}
);
layerId = "5C20EF92-B63D-42A8-8878-93C2863E0093";
shapes = (
{
closed = 1;
nodes = (
(-1100,-660,l),
(-1100,-112,l),
(-1408,-112,l),
(-1408,-660,l)
);
},
{
closed = 1;
nodes = (
(-600,-400,l),
(-600,-112,l),
(-1168,-112,l),
(-1168,-400,l)
);
},
{
closed = 1;
nodes = (
(-352,-660,l),
(-352,-112,l),
(-660,-112,l),
(-660,-660,l)
);
}
);
width = 0;
},
{
anchors = (
{
name = _bottom;
pos = (-860,0);
}
);
layerId = "B1F27B51-9973-4381-9301-4FE46FE1CA59";
shapes = (
{
closed = 1;
nodes = (
(-1120,-640,l),
(-1120,-152,l),
(-1184,-152,l),
(-1184,-640,l)
);
},
{
closed = 1;
nodes = (
(-580,-216,l),
(-580,-152,l),
(-1148,-152,l),
(-1148,-216,l)
);
},
{
closed = 1;
nodes = (
(-536,-640,l),
(-536,-152,l),
(-600,-152,l),
(-600,-640,l)
);
}
);
width = 0;
},
{
anchors = (
{
name = _bottom;
pos = (-872,0);
}
);
associatedMasterId = "CD0E3B44-F66A-4791-B84C-A1128DC61275";
layerId = "1800FBEB-AAB0-4B17-A705-DCFC519B5B8C";
shapes = (
{
closed = 1;
nodes = (
(-1132,-640,l),
(-1132,-152,l),
(-1342,-152,l),
(-1342,-640,l)
);
},
{
closed = 1;
nodes = (
(-592,-322,l),
(-592,-152,l),
(-1160,-152,l),
(-1160,-322,l)
);
},
{
closed = 1;
nodes = (
(-404,-640,l),
(-404,-152,l),
(-614,-152,l),
(-614,-640,l)
);
}
);
width = 0;
},
{
anchors = (
{
name = _bottom;
pos = (-870,0);
}
);
layerId = "CD0E3B44-F66A-4791-B84C-A1128DC61275";
shapes = (
{
closed = 1;
nodes = (
(-1130,-640,l),
(-1130,-152,l),
(-1340,-152,l),
(-1340,-640,l)
);
},
{
closed = 1;
nodes = (
(-590,-322,l),
(-590,-152,l),
(-1158,-152,l),
(-1158,-322,l)
);
},
{
closed = 1;
nodes = (
(-402,-640,l),
(-402,-152,l),
(-612,-152,l),
(-612,-640,l)
);
}
);
width = 2;
}
);
unicode = 810;
}
{
color = (250,227,227,1);
glyphname = barmidlongnosp;
layers = (
{
layerId = "5C20EF92-B63D-42A8-8878-93C2863E0093";
shapes = (
{
closed = 1;
nodes = (
(-1940,868,l),
(-1940,588,l),
(-72,588,l),
(-72,868,l)
);
}
);
width = 0;
},
{
layerId = "B1F27B51-9973-4381-9301-4FE46FE1CA59";
shapes = (
{
closed = 1;
nodes = (
(-1432,800,l),
(-1432,736,l),
(-12,736,l),
(-12,800,l)
);
}
);
width = 0;
},
{
associatedMasterId = "CD0E3B44-F66A-4791-B84C-A1128DC61275";
layerId = "E3B56A94-FE4E-4B97-90D5-9BC6B6AA35AD";
shapes = (
{
closed = 1;
nodes = (
(-1702,852,l),
(-1702,630,l),
(10,630,l),
(10,852,l)
);
}
);
width = 0;
},
{
layerId = "CD0E3B44-F66A-4791-B84C-A1128DC61275";
shapes = (
{
closed = 1;
nodes = (
(-1696,852,l),
(-1696,630,l),
(16,630,l),
(16,852,l)
);
}
);
width = 4;
}
);
unicode = 822;
}
{
color = (250,227,227,1);
glyphname = uni0349;
layers = (
{
layerId = "5C20EF92-B63D-42A8-8878-93C2863E0093";
shapes = (
{
closed = 1;
nodes = (
(-556,-692,l),
(-556,-120,l),
(-868,-120,l),
(-868,-692,l)
);
},
{
closed = 1;
nodes = (
(-556,-408,l),
(-556,-120,l),
(-1168,-120,l),
(-1168,-408,l)
);
}
);
width = 0;
},
{
layerId = "B1F27B51-9973-4381-9301-4FE46FE1CA59";
shapes = (
{
closed = 1;
nodes = (
(-512,-700,l),
(-512,-196,l),
(-576,-196,l),
(-576,-700,l)
);
},
{
closed = 1;
nodes = (
(-512,-260,l),
(-512,-196,l),
(-1020,-196,l),
(-1020,-260,l)
);
}
);
width = 0;
},
{
associatedMasterId = "CD0E3B44-F66A-4791-B84C-A1128DC61275";
layerId = "955A9932-EA28-4A02-8CB6-9CD3BC9E2616";
shapes = (
{
closed = 1;
nodes = (
(-540,-696,l),
(-540,-166,l),
(-752,-166,l),
(-752,-696,l)
);
},
{
closed = 1;
nodes = (
(-540,-362,l),
(-540,-166,l),
(-1090,-166,l),
(-1090,-362,l)
);
}
);
width = 0;
},
{
layerId = "CD0E3B44-F66A-4791-B84C-A1128DC61275";
shapes = (
{
closed = 1;
nodes = (
(-538,-696,l),
(-538,-166,l),
(-750,-166,l),
(-750,-696,l)
);
},
{
closed = 1;
nodes = (
(-538,-362,l),
(-538,-166,l),
(-1088,-166,l),
(-1088,-362,l)
);
}
);
width = 2;
}
);
unicode = 841;
}
{
glyphname = Omega;
kernRight = Omegagreek;
layers = (
{
anchors = (
{
name = bottom;
pos = (1112,0);
},
{
name = tonos;
pos = (164,2048);
}
);
background = {
shapes = (
{
pos = (56,0);
ref = O;
}
);
};
guides = (
{
orientation = center;
angle = 90;
pos = (940,700);
}
);
layerId = "5C20EF92-B63D-42A8-8878-93C2863E0093";
shapes = (
{
closed = 1;
nodes = (
(968,0,l),
(968,560,l),
(784,632,o),
(668,836,o),
(668,1076,c),
(668,1376,o),
(852,1588,o),
(1112,1588,cs),
(1376,1588,o),
(1556,1376,o),
(1556,1076,cs),
(1556,836,o),
(1440,632,o),
(1256,560,c),
(1256,0,l),
(2124,0,l),
(2124,448,l),
(1772,448,l),
(1772,464,l),
(1988,600,o),
(2124,820,o),
(2124,1132,c),
(2124,1684,o),
(1704,2076,o),
(1112,2076,cs),
(520,2076,o),
(100,1684,o),
(100,1132,cs),
(100,820,o),
(236,600,o),
(452,464,c),
(452,448,l),
(100,448,l),
(100,0,l)
);
}
);
width = 2224;
},
{
anchors = (
{
name = bottom;
pos = (1016,0);
},
{
name = tonos;
pos = (320,2048);
}
);
layerId = "B1F27B51-9973-4381-9301-4FE46FE1CA59";
shapes = (
{
closed = 1;
nodes = (
(820,0,l),
(820,92,l),
(494,265,o),
(238,554,o),
(240,1044,cs),
(242,1587,o),
(551,2010,o),
(1016,2012,cs),
(1478,2010,o),
(1794,1587,o),
(1792,1044,cs),
(1790,550,o),
(1540,266,o),
(1212,92,c),
(1212,0,l),
(1856,0,l),
(1856,64,l),
(1276,64,l),
(1276,80,l),
(1674,284,o),
(1855,615,o),
(1856,1048,cs),
(1857,1640,o),
(1497,2076,o),
(1016,2076,cs),
(532,2076,o),
(175,1643,o),
(176,1048,cs),
(177,612,o),
(356,284,o),
(756,80,c),
(756,64,l),
(176,64,l),
(176,0,l)
);
}
);
width = 2032;
},
{
anchors = (
{
name = bottom;
pos = (1042,0);
},
{
name = tonos;
pos = (246,2048);
}
);
associatedMasterId = "CD0E3B44-F66A-4791-B84C-A1128DC61275";
layerId = "B77A120A-BE51-488C-8B30-396B902D89E3";
shapes = (
{
closed = 1;
nodes = (
(866,0,l),
(866,286,l),
(604,398,o),
(382,700,o),
(382,1080,cs),
(382,1504,o),
(656,1838,o),
(1042,1838,cs),
(1426,1838,o),
(1700,1504,o),
(1700,1080,cs),
(1700,700,o),
(1478,398,o),
(1216,286,c),
(1216,0,l),
(1948,0,l),
(1948,226,l),
(1522,226,l),
(1522,242,l),
(1784,412,o),
(1948,696,o),
(1948,1082,cs),
(1948,1664,o),
(1570,2076,o),
(1042,2076,cs),
(512,2076,o),
(134,1664,o),
(134,1082,cs),
(134,696,o),
(298,412,o),
(560,242,c),
(560,226,l),
(134,226,l),
(134,0,l)
);
}
);
width = 2082.35472;
},
{
anchors = (
{
name = bottom;
pos = (1054,0);
},
{
name = tonos;
pos = (258,2048);
}
);
layerId = "CD0E3B44-F66A-4791-B84C-A1128DC61275";
shapes = (
{
closed = 1;
nodes = (
(878,0,l),
(878,286,l),
(616,398,o),
(394,700,o),
(394,1080,cs),
(394,1504,o),
(668,1838,o),
(1054,1838,cs),
(1438,1838,o),
(1712,1504,o),
(1712,1080,cs),
(1712,700,o),
(1490,398,o),
(1228,286,c),
(1228,0,l),
(1960,0,l),
(1960,226,l),
(1534,226,l),
(1534,242,l),
(1796,412,o),
(1960,696,o),
(1960,1082,cs),
(1960,1664,o),
(1582,2076,o),
(1054,2076,cs),
(524,2076,o),
(146,1664,o),
(146,1082,cs),
(146,696,o),
(310,412,o),
(572,242,c),
(572,226,l),
(146,226,l),
(146,0,l)
);
}
);
width = 2106;
}
);
unicode = (937,8486);
userData = {
interface.gridadjust.original = "{'width': 1880, 'leftMargin': 153, 'rightMargin': 183}";
"interface.width-adjustments" = (
-16
);
};
}
{
glyphname = eta;
kernLeft = m;
kernRight = etagreek;
layers = (
{
anchors = (
{
name = bottom;
pos = (416,0);
},
{
name = top;
pos = (912,1792);
}
);
background = {
shapes = (
{
ref = n;
}
);
};
layerId = "5C20EF92-B63D-42A8-8878-93C2863E0093";
shapes = (
{
closed = 1;
nodes = (
(692,1016,o),
(780,1108,o),
(916,1108,cs),
(1056,1108,o),
(1136,1016,o),
(1136,864,cs),
(1136,-576,l),
(1688,-576,l),
(1688,980,ls),
(1688,1316,o),
(1480,1556,o),
(1152,1556,cs),
(928,1556,o),
(748,1440,o),
(680,1244,c),
(664,1244,l),
(664,1536,l),
(140,1536,l),
(140,0,l),
(692,0,l),
(692,864,ls)
);
}
);
width = 1820;
},
{
anchors = (
{
name = bottom;
pos = (368,16);
},
{
name = top;
pos = (868,1764);
},
{
name = top0315;
pos = (1652,1776);
}
);
associatedMasterId = "5C20EF92-B63D-42A8-8878-93C2863E0093";
background = {
shapes = (
{
ref = n;
}
);
};
layerId = "B53F30FE-43A4-4C10-9E68-58301018C652";
name = "Oct 3 18, 09:37";
shapes = (
{
closed = 1;
nodes = (
(693,940,o),
(693,1136,o),
(880,1136,cs),
(989,1136,o),
(1077,1076,o),
(1076,936,cs),
(1076,-576,l),
(1628,-576,l),
(1628,952,ls),
(1629,1416,o),
(1345,1556,o),
(1080,1556,cs),
(905,1556,o),
(753,1500,o),
(660,1412,c),
(644,1412,l),
(644,1536,l),
(140,1536,l),
(140,0,l),
(692,0,l),
(692,780,ls)
);
}
);
width = 1768;
},
{
anchors = (
{
name = bottom;
pos = (256,0);
},
{
name = top;
pos = (768,1792);
}
);
layerId = "B1F27B51-9973-4381-9301-4FE46FE1CA59";
shapes = (
{
closed = 1;
nodes = (
(304,1300,o),
(500,1492,o),
(772,1492,cs),
(1044,1492,o),
(1232,1304,o),
(1232,1032,cs),
(1232,-576,l),
(1296,-576,l),
(1296,1032,ls),
(1296,1340,o),
(1080,1556,o),
(772,1556,cs),
(560,1556,o),
(384,1452,o),
(312,1292,c),
(304,1292,l),
(304,1536,l),
(240,1536,l),
(240,0,l),
(304,0,l),
(304,1032,ls)
);
}
);
width = 1536;
},
{
anchors = (
{
name = bottom;
pos = (306,0);
},
{
name = top;
pos = (794,1792);
}
);
associatedMasterId = "CD0E3B44-F66A-4791-B84C-A1128DC61275";
layerId = "CFD5D33A-81DD-40AC-85F5-C6F0C70D025A";
shapes = (
{
closed = 1;
nodes = (
(426,1188,o),
(592,1338,o),
(814,1338,cs),
(1032,1338,o),
(1162,1196,o),
(1162,958,cs),
(1162,-576,l),
(1406,-576,l),
(1406,976,ls),
(1406,1366,o),
(1198,1556,o),
(886,1556,cs),
(654,1556,o),
(510,1452,o),
(438,1294,c),
(418,1294,l),
(418,1536,l),
(182,1536,l),
(182,0,l),
(426,0,l),
(426,922,ls)
);
}
);
width = 1588.61132;
},
{
anchors = (
{
name = bottom;
pos = (318,0);
},
{
name = top;
pos = (806,1792);
}
);
layerId = "CD0E3B44-F66A-4791-B84C-A1128DC61275";
shapes = (
{
closed = 1;
nodes = (
(438,1188,o),
(604,1338,o),
(826,1338,cs),
(1044,1338,o),
(1174,1196,o),
(1174,958,cs),
(1174,-576,l),
(1418,-576,l),
(1418,976,ls),
(1418,1366,o),
(1210,1556,o),
(898,1556,cs),
(666,1556,o),
(522,1452,o),
(450,1294,c),
(430,1294,l),
(430,1536,l),
(194,1536,l),
(194,0,l),
(438,0,l),
(438,922,ls)
);
}
);
width = 1612;
}
);
metricLeft = n;
metricRight = n;
unicode = 951;
userData = {
interface.gridadjust.original = "{'width': 1602, 'leftMargin': 197, 'rightMargin': 206}";
"interface.width-adjustments" = (
-16
);
};
}
{
glyphname = iota;
kernLeft = iotadieresisgreek;
kernRight = iotadieresisgreek;
layers = (
{
anchors = (
{
name = top;
pos = (460,1792);
}
);
guides = (
{
pos = (-132,908);
},
{
angle = 90;
pos = (312,1380);
}
);
layerId = "5C20EF92-B63D-42A8-8878-93C2863E0093";
shapes = (
{
closed = 1;
nodes = (
(192,464,l),
(194,128,o),
(382,-16,o),
(704,-16,cs),
(798,-16,o),
(902,0,o),
(992,32,c),
(992,404,l),
(954,404,o),
(930,404,o),
(868,404,cs),
(750,404,o),
(718,440,o),
(716,548,c),
(724,1536,l),
(192,1536,l)
);
}
);
width = 1008;
},
{
anchors = (
{
name = top;
pos = (272,1792);
}
);
layerId = "B1F27B51-9973-4381-9301-4FE46FE1CA59";
shapes = (
{
closed = 1;
nodes = (
(240,240,ls),
(240,88,o),
(323,-20,o),
(440,-20,cs),
(510,-20,o),
(555,-13,o),
(560,-12,c),
(548,52,l),
(544,50,o),
(505,44,o),
(440,44,cs),
(361,44,o),
(304,123,o),
(304,240,cs),
(304,1536,l),
(240,1536,l)
);
}
);
width = 544;
},
{
anchors = (
{
name = top;
pos = (296,1792);
}
);
associatedMasterId = "CD0E3B44-F66A-4791-B84C-A1128DC61275";
layerId = "B2DCF82B-1D22-4D06-8629-361133C0D5ED";
shapes = (
{
closed = 1;
nodes = (
(176,382,l),
(176,86,o),
(318,-20,o),
(508,-20,cs),
(604,-20,o),
(670,-4,o),
(710,8,c),
(710,236,l),
(690,228,o),
(634,216,o),
(594,216,cs),
(510,216,o),
(418,242,o),
(418,384,c),
(420,1536,l),
(176,1536,l)
);
}
);
width = 690.76981;
},
{
anchors = (
{
name = top;
pos = (306,1792);
}
);
layerId = "CD0E3B44-F66A-4791-B84C-A1128DC61275";
shapes = (
{
closed = 1;
nodes = (
(186,382,l),
(186,86,o),
(328,-20,o),
(518,-20,cs),
(614,-20,o),
(680,-4,o),
(720,8,c),
(720,236,l),
(700,228,o),
(644,216,o),
(604,216,cs),
(520,216,o),
(428,242,o),
(428,384,c),
(430,1536,l),
(186,1536,l)
);
}
);
width = 710;
}
);
unicode = (953,617);
userData = {
interface.gridadjust.original = "{'width': 928, 'leftMargin': 272, 'rightMargin': 107}";
"interface.width-adjustments" = (
-16
);
};
}
{
glyphname = lambda;
layers = (
{
background = {
shapes = (
{
closed = 1;
nodes = (
(1577,-28,o),
(1669,-12,o),
(1700,0,c),
(1672,384,l),
(1641,380,o),
(1653,380,o),
(1640,380,cs),
(1563,380,o),
(1537,425,o),
(1480,572,cs),
(1048,1684,ls),
(969,1888,o),
(785,2076,o),
(456,2076,cs),
(361,2076,o),
(285,2060,o),
(192,2028,c),
(312,1616,l),
(537,1688,o),
(545,1588,o),
(600,1456,cs),
(636,1372,l),
(868,784,l),
(1056,248,l),
(1105,132,o),
(1217,-28,o),
(1492,-28,cs)
);
},
{
closed = 1;
nodes = (
(612,0,l),
(864,736,l,{
name = hr00;
}),
(1048,736,l),
(668,1604,l),
(52,0,l)
);
}
);
};
guides = (
{
pos = (-204,1240);
},
{
pos = (-204,764);
}
);
layerId = "5C20EF92-B63D-42A8-8878-93C2863E0093";
shapes = (
{
closed = 1;
nodes = (
(1565,-28,o),
(1662,-15,o),
(1700,0,c),
(1672,384,l),
(1661,381,o),
(1651,380,o),
(1638,380,cs),
(1569,380,o),
(1542,412,o),
(1480,572,cs),
(1048,1684,ls),
(952,1932,o),
(735,2076,o),
(456,2076,cs),
(367,2076,o),
(292,2062,o),
(192,2028,c),
(312,1616,l),
(482,1671,o),
(519,1650,o),
(580,1508,cs),
(636,1372,l),
(868,784,l),
(1056,248,l),
(1131,71,o),
(1287,-28,o),
(1492,-28,cs)
);
},
{
closed = 1;
nodes = (
(612,0,l),
(864,736,l,{
name = hr00;
}),
(1048,736,l),
(668,1604,l),
(52,0,l)
);
}
);
width = 1752;
},
{
background = {
shapes = (
{
closed = 1;
nodes = (
(1397,-16,o),
(1424,-12,o),
(1448,-4,c),
(1422,58,l),
(1399,52,o),
(1376,48,o),
(1360,48,cs),
(1290,48,o),
(1250,105,o),
(1174,312,cs),
(626,1816,ls),
(553,2013,o),
(468,2086,o),
(308,2088,cs),
(264,2088,o),
(217,2082,o),
(172,2070,c),
(196,2010,l),
(394,2056,o),
(490,2001,o),
(566,1796,cs),
(714,1386,l),
(730,1342,l),
(1126,256,ls),
(1203,48,o),
(1260,-16,o),
(1368,-16,cs)
);
},
{
closed = 1;
nodes = (
(192,0,l),
(694,1410,l),
(726,1410,l),
(678,1552,l),
(124,0,l)
);
}
);
};
layerId = "B1F27B51-9973-4381-9301-4FE46FE1CA59";
shapes = (
{
closed = 1;
nodes = (
(1365,-16,o),
(1392,-12,o),
(1416,-4,c),
(1390,58,l),
(1367,52,o),
(1344,48,o),
(1328,48,cs),
(1258,48,o),
(1217,105,o),
(1142,312,cs),
(598,1804,ls),
(526,2001,o),
(440,2072,o),
(280,2076,cs),
(236,2077,o),
(189,2070,o),
(144,2058,c),
(168,1998,l),
(366,2044,o),
(464,1990,o),
(538,1784,cs),
(682,1386,l),
(698,1342,l),
(1094,256,ls),
(1171,48,o),
(1228,-16,o),
(1336,-16,cs)
);
},
{
closed = 1;
nodes = (
(160,0,l),
(662,1410,l),
(694,1410,l),
(646,1552,l),
(92,0,l)
);
}
);
width = 1506;
},
{
associatedMasterId = "CD0E3B44-F66A-4791-B84C-A1128DC61275";
layerId = "F3F3C980-E324-4F02-9B7B-612DEA0D4BE1";
shapes = (
{
closed = 1;
nodes = (
(1446,-22,o),
(1484,-16,o),
(1524,-8,c),
(1472,204,l),
(1460,204,o),
(1432,200,o),
(1416,200,cs),
(1338,200,o),
(1316,264,o),
(1296,318,cs),
(774,1726,ls),
(688,1962,o),
(540,2076,o),
(318,2076,cs),
(238,2076,o),
(170,2060,o),
(144,2048,c),
(206,1834,l),
(402,1882,o),
(486,1840,o),
(568,1628,cs),
(628,1474,l),
(704,1296,l),
(1068,256,ls),
(1132,68,o),
(1254,-22,o),
(1410,-22,cs)
);
},
{
closed = 1;
nodes = (
(326,0,l),
(730,1170,l),
(766,1170,l),
(664,1628,l),
(64,0,l)
);
}
);
width = 1586.9434;
},
{
layerId = "CD0E3B44-F66A-4791-B84C-A1128DC61275";
shapes = (
{
closed = 1;
nodes = (
(1456,-22,o),
(1494,-16,o),
(1534,-8,c),
(1482,204,l),
(1470,204,o),
(1442,200,o),
(1426,200,cs),
(1348,200,o),
(1326,264,o),
(1306,318,cs),
(784,1726,ls),
(698,1962,o),
(550,2076,o),
(328,2076,cs),
(248,2076,o),
(180,2060,o),
(154,2048,c),
(216,1834,l),
(412,1882,o),
(496,1840,o),
(578,1628,cs),
(638,1474,l),
(714,1296,l),
(1078,256,ls),
(1142,68,o),
(1264,-22,o),
(1420,-22,cs)
);
},
{
closed = 1;
nodes = (
(336,0,l),
(740,1170,l),
(776,1170,l),
(674,1628,l),
(74,0,l)
);
}
);
width = 1608;
}
);
unicode = 955;
userData = {
interface.gridadjust.original = "{'width': 1562.0, 'leftMargin': 48, 'rightMargin': 73.0}";
"interface.width-adjustments" = (
-16
);
};
}
{
glyphname = rho;
kernLeft = m;
kernRight = b;
layers = (
{
anchors = (
{
name = cross;
pos = (412,-212);
},
{
name = top;
pos = (880,1792);
}
);
layerId = "5C20EF92-B63D-42A8-8878-93C2863E0093";
shapes = (
{
closed = 1;
nodes = (
(676,-572,l),
(676,760,ls),
(676,976,o),
(725,1116,o),
(872,1116,cs),
(1045,1116,o),
(1084,948,o),
(1084,776,cs),
(1084,748,ls),
(1085,592,o),
(1065,396,o),
(876,396,cs),
(697,396,o),
(677,576,o),
(676,760,c),
(464,772,l),
(509,304,o),
(625,-28,o),
(1016,-28,cs),
(1393,-28,o),
(1613,272,o),
(1612,748,cs),
(1612,776,ls),
(1612,1168,o),
(1461,1556,o),
(892,1556,cs),
(417,1556,o),
(144,1288,o),
(144,828,cs),
(144,-572,l)
);
}
);
width = 1704;
},
{
anchors = (
{
name = cross;
pos = (228,-284);
},
{
name = top;
pos = (744,1792);
}
);
background = {
shapes = (
{
closed = 1;
nodes = (
(312,-572,l),
(300,724,ls),
(296,1143,o),
(462,1420,o),
(806,1420,cs),
(1151,1420,o),
(1314,1144,o),
(1314,724,cs),
(1314,716,ls),
(1314,304,o),
(1150,32,o),
(798,32,cs),
(510,32,o),
(340,212,o),
(302,546,c),
(264,512,l),
(292,159,o),
(484,-32,o),
(796,-32,cs),
(1185,-32,o),
(1378,267,o),
(1378,716,cs),
(1378,724,ls),
(1378,1180,o),
(1187,1484,o),
(806,1484,cs),
(424,1484,o),
(236,1181,o),
(236,724,cs),
(236,-572,l)
);
}
);
};
layerId = "B1F27B51-9973-4381-9301-4FE46FE1CA59";
shapes = (
{
closed = 1;
nodes = (
(280,-572,l),
(268,760,ls),
(264,1219,o),
(430,1496,o),
(774,1496,cs),
(1119,1496,o),
(1282,1220,o),
(1282,760,cs),
(1282,716,ls),
(1282,304,o),
(1118,32,o),
(766,32,cs),
(478,32,o),
(308,212,o),
(270,546,c),
(232,512,l),
(260,159,o),
(452,-32,o),
(764,-32,cs),
(1153,-32,o),
(1346,267,o),
(1346,716,cs),
(1346,760,ls),
(1346,1256,o),
(1155,1560,o),
(774,1560,cs),
(392,1560,o),
(204,1257,o),
(204,760,cs),
(204,-572,l)
);
}
);
width = 1486;
},
{
anchors = (
{
name = cross;
pos = (286,-254);
},
{
name = top;
pos = (794,1792);
}
);
associatedMasterId = "CD0E3B44-F66A-4791-B84C-A1128DC61275";
layerId = "FB26179A-ADD4-40BA-AF66-1E770A154C8A";
shapes = (
{
closed = 1;
nodes = (
(410,-572,l),
(402,792,ls),
(400,1050,o),
(512,1330,o),
(790,1330,cs),
(1062,1330,o),
(1184,1066,o),
(1184,718,cs),
(1184,690,ls),
(1184,420,o),
(1064,190,o),
(798,190,cs),
(496,190,o),
(402,486,o),
(402,678,c),
(244,488,l),
(352,172,o),
(498,-28,o),
(812,-28,cs),
(1196,-28,o),
(1436,272,o),
(1436,690,cs),
(1436,718,ls),
(1436,1222,o),
(1198.009,1556,o),
(790,1556,cs),
(434,1556,o),
(166,1304,o),
(166,788,cs),
(166,-572,l)
);
}
);
width = 1546.74717;
},
{
anchors = (
{
name = cross;
pos = (298,-254);
},
{
name = top;
pos = (806,1792);
}
);
layerId = "CD0E3B44-F66A-4791-B84C-A1128DC61275";
shapes = (
{
closed = 1;
nodes = (
(422,-572,l),
(414,792,ls),
(412,1050,o),
(524,1330,o),
(802,1330,cs),
(1074,1330,o),
(1196,1066,o),
(1196,718,cs),
(1196,690,ls),
(1196,420,o),
(1076,190,o),
(810,190,cs),
(508,190,o),
(414,486,o),
(414,678,c),
(256,488,l),
(364,172,o),
(510,-28,o),
(824,-28,cs),
(1208,-28,o),
(1448,272,o),
(1448,690,cs),
(1448,718,ls),
(1448,1222,o),
(1210,1556,o),
(802,1556,cs),
(446,1556,o),
(178,1304,o),
(178,788,cs),
(178,-572,l)
);
}
);
width = 1570;
}
);
unicode = 961;
userData = {
interface.gridadjust.original = "{'width': 1602, 'leftMargin': 197, 'rightMargin': 142}";
"interface.width-adjustments" = (
-16
);
};
}
{
glyphname = pisymbolgreek;
layers = (
{
anchors = (
{
name = bottom;
pos = (1434,0);
},
{
name = top;
pos = (1432,1792);
}
);
layerId = "5C20EF92-B63D-42A8-8878-93C2863E0093";
shapes = (
{
closed = 1;
nodes = (
(132,1536,l),
(132,1200,l),
(2736,1200,l),
(2736,1536,l)
);
},
{
closed = 1;
nodes = (
(392,1316,o),
(300,1038,o),
(296,750,cs),
(290,216,o),
(552,-28,o),
(948,-28,cs),
(1364,-28,o),
(1548,304,o),
(1548,774,cs),
(1548,944,l),
(1156,944,l),
(1156,704,ls),
(1156,500,o),
(1086,388,o),
(986,388,cs),
(870,388,o),
(812,536,o),
(812,766,cs),
(812,988,o),
(892,1254,o),
(1028,1536,c),
(548,1536,l)
);
},
{
closed = 1;
nodes = (
(1978,1254,o),
(2056,988,o),
(2056,766,cs),
(2056,536,o),
(1998,388,o),
(1882,388,cs),
(1782,388,o),
(1712,500,o),
(1712,704,cs),
(1712,944,l),
(1320,944,l),
(1320,774,ls),
(1320,304,o),
(1506,-28,o),
(1920,-28,cs),
(2316,-28,o),
(2578,216,o),
(2572,750,cs),
(2570,1038,o),
(2476,1316,o),
(2320,1536,c),
(1840,1536,l)
);
}
);
width = 2868;
},
{
anchors = (
{
name = bottom;
pos = (936,0);
},
{
name = top;
pos = (936,1792);
}
);
background = {
shapes = (
{
closed = 1;
nodes = (
(132,1488,l),
(132,1424,l),
(1828,1424,l),
(1828,1488,l)
);
},
{
closed = 1;
nodes = (
(1664,1286,o),
(1720,1052,o),
(1724,796,cs),
(1731,330,o),
(1573,36,o),
(1334,36,cs),
(1120,36,o),
(992,263,o),
(992,616,cs),
(992,1024,l),
(928,1024,l),
(928,696,ls),
(928,234,o),
(1068,-28,o),
(1328,-28,cs),
(1614,-28,o),
(1790,288,o),
(1788,772,cs),
(1787,1038,o),
(1732,1285,o),
(1624,1488,c),
(1554,1488,l)
);
},
{
closed = 1;
nodes = (
(190,1289,o),
(132,1040,o),
(132,780,cs),
(132,287,o),
(303,-28,o),
(588,-28,cs),
(849,-28,o),
(992,235,o),
(992,696,cs),
(992,1024,l),
(928,1024,l),
(928,616,ls),
(928,264,o),
(799,36,o),
(586,36,cs),
(347,36,o),
(194,324,o),
(196,780,cs),
(197,1044,o),
(254,1280,o),
(366,1488,c),
(296,1488,l)
);
}
);
};
layerId = "B1F27B51-9973-4381-9301-4FE46FE1CA59";
shapes = (
{
closed = 1;
nodes = (
(92,1536,l),
(92,1472,l),
(1788,1472,l),
(1788,1536,l)
);
},
{
closed = 1;
nodes = (
(98,1332,o),
(32,1080,o),
(32,780,cs),
(32,288,o),
(224,-28,o),
(532,-28,cs),
(812,-28,o),
(972,230,o),
(972,696,cs),
(972,992,l),
(908,992,l),
(908,616,ls),
(908,264,o),
(760,36,o),
(530,36,cs),
(274,36,o),
(96,324,o),
(96,786,cs),
(98,1064,o),
(160,1322,o),
(296,1536,c),
(226,1536,l)
);
},
{
closed = 1;
nodes = (
(1720,1322,o),
(1784,1064,o),
(1784,786,cs),
(1786,324,o),
(1606,36,o),
(1350,36,cs),
(1122,36,o),
(972,264,o),
(972,616,cs),
(972,992,l),
(908,992,l),
(908,696,ls),
(908,230,o),
(1068,-28,o),
(1348,-28,cs),
(1658,-28,o),
(1848,288,o),
(1848,780,cs),
(1848,1080,o),
(1784,1332,o),
(1654,1536,c),
(1584,1536,l)
);
}
);
width = 1880;
},
{
anchors = (
{
name = bottom;
pos = (1116,0);
},
{
name = top;
pos = (1116,1792);
}
);
associatedMasterId = "CD0E3B44-F66A-4791-B84C-A1128DC61275";
layerId = "58054DC5-41FE-48CA-A665-0B5F2FE38A3F";
shapes = (
{
closed = 1;
nodes = (
(92,1536,l),
(92,1314,l),
(2142,1314,l),
(2142,1536,l)
);
},
{
closed = 1;
nodes = (
(190,1306,o),
(120,1058,o),
(120,780,cs),
(120,268,o),
(324,-28,o),
(670,-28,cs),
(990,-28,o),
(1168,216,o),
(1168,652,c),
(1168,1022,l),
(976,1022,l),
(976,650,ls),
(976,356,o),
(864,196,o),
(690,196,cs),
(494,196,o),
(374,404,o),
(374,760,cs),
(374,1006,o),
(416,1208,o),
(608,1536,c),
(334,1536,l)
);
},
{
closed = 1;
nodes = (
(1820,1208,o),
(1860,1006,o),
(1860,760,cs),
(1860,404,o),
(1742,196,o),
(1544,196,cs),
(1372,196,o),
(1258,356,o),
(1258,650,cs),
(1258,1022,l),
(1066,1022,l),
(1066,652,l),
(1066,216,o),
(1244,-28,o),
(1564,-28,cs),
(1912,-28,o),
(2116,268,o),
(2114,780,cs),
(2114,1058,o),
(2044,1306,o),
(1900,1536,c),
(1626,1536,l)
);
}
);
width = 2234.71698;
},
{
anchors = (
{
name = bottom;
pos = (1126,0);
},
{
name = top;
pos = (1126,1792);
}
);
layerId = "CD0E3B44-F66A-4791-B84C-A1128DC61275";
shapes = (
{
closed = 1;
nodes = (
(102,1536,l),
(102,1314,l),
(2152,1314,l),
(2152,1536,l)
);
},
{
closed = 1;
nodes = (
(200,1306,o),
(130,1058,o),
(130,780,cs),
(130,268,o),
(334,-28,o),
(680,-28,cs),
(1000,-28,o),
(1178,216,o),
(1178,652,c),
(1178,1022,l),
(986,1022,l),
(986,650,ls),
(986,356,o),
(874,196,o),
(700,196,cs),
(504,196,o),
(384,404,o),
(384,760,cs),
(384,1006,o),
(426,1208,o),
(618,1536,c),
(344,1536,l)
);
},
{
closed = 1;
nodes = (
(1830,1208,o),
(1870,1006,o),
(1870,760,cs),
(1870,404,o),
(1752,196,o),
(1554,196,cs),
(1382,196,o),
(1268,356,o),
(1268,650,cs),
(1268,1022,l),
(1076,1022,l),
(1076,652,l),
(1076,216,o),
(1254,-28,o),
(1574,-28,cs),
(1922,-28,o),
(2126,268,o),
(2124,780,cs),
(2124,1058,o),
(2054,1306,o),
(1910,1536,c),
(1636,1536,l)
);
}
);
width = 2254;
}
);
unicode = 982;
userData = {
interface.gridadjust.original = "{'width': 2211.0, 'leftMargin': 109, 'rightMargin': 65.0}";
"interface.width-adjustments" = (
-16
);
};
}
{
glyphname = uni03D7;
layers = (
{
background = {
shapes = (
{
closed = 1;
nodes = (
(1880,1488,l),
(1492,1488,l),
(336,0,l),
(676,0,l)
);
},
{
closed = 1;
nodes = (
(1352,796,o),
(1388,632,o),
(1432,496,cs),
(1516,236,o),
(1656,104,o),
(1656,-28,cs),
(1656,-108,o),
(1592,-176,o),
(1380,-176,cs),
(1372,-176,o),
(1352,-176,o),
(1332,-172,c),
(1332,-540,l),
(1412,-548,o),
(1472,-548,o),
(1532,-548,cs),
(2024,-548,o),
(2088,-200,o),
(2088,-108,cs),
(2088,192,o),
(1904,336,o),
(1776,708,cs),
(1712,892,o),
(1696,1128,o),
(1704,1400,c),
(1360,1012,l)
);
},
{
closed = 1;
nodes = (
(836,1024,ls),
(836,1260,o),
(804,1516,o),
(392,1516,cs),
(312,1516,o),
(196,1508,o),
(136,1496,c),
(136,1140,l),
(176,1144,o),
(216,1148,o),
(256,1148,cs),
(340,1148,o),
(436,1128,o),
(436,1024,cs),
(436,0,l),
(836,364,l)
);
}
);
};
layerId = "5C20EF92-B63D-42A8-8878-93C2863E0093";
shapes = (
{
closed = 1;
nodes = (
(1880,1536,l),
(1540,1536,l),
(336,0,l),
(676,0,l)
);
},
{
closed = 1;
nodes = (
(1352,796,o),
(1388,632,o),
(1432,496,cs),
(1516,236,o),
(1656,104,o),
(1656,-28,cs),
(1656,-108,o),
(1592,-176,o),
(1380,-176,cs),
(1372,-176,o),
(1352,-176,o),
(1332,-172,c),
(1332,-540,l),
(1412,-548,o),
(1472,-548,o),
(1532,-548,cs),
(2024,-548,o),
(2088,-200,o),
(2088,-108,cs),
(2088,192,o),
(1904,336,o),
(1776,708,cs),
(1712,892,o),
(1696,1128,o),
(1704,1440,c),
(1360,1052,l)
);
},
{
closed = 1;
nodes = (
(836,1064,ls),
(836,1300,o),
(804,1556,o),
(392,1556,cs),
(312,1556,o),
(196,1548,o),
(136,1536,c),
(136,1180,l),
(176,1184,o),
(216,1188,o),
(256,1188,cs),
(340,1188,o),
(436,1168,o),
(436,1064,cs),
(436,0,l),
(836,364,l)
);
}
);
width = 2224;
},
{
background = {
shapes = (
{
closed = 1;
nodes = (
(1412,1488,l,{
name = hr00;
}),
(1334,1488,l),
(260,0,l),
(338,0,l)
);
},
{
closed = 1;
nodes = (
(1186,868,o),
(1236,574,o),
(1408,196,cs),
(1496,6,o),
(1522,-80,o),
(1522,-194,cs),
(1522,-392,o),
(1438,-484,o),
(1254,-484,cs),
(1222,-484,o),
(1186,-482,o),
(1154,-476,c),
(1154,-536,l),
(1188,-544,o),
(1222,-548,o),
(1258,-548,cs),
(1474,-548,o),
(1586,-426,o),
(1586,-194,cs),
(1586,-72,o),
(1556,38,o),
(1464,228,cs),
(1302,574,o),
(1250,872,o),
(1272,1332,c),
(1208,1306,l)
);
},
{
closed = 1;
nodes = (
(440,1320,ls),
(440,1456,o),
(382,1516,o),
(252,1516,cs),
(214,1516,o),
(178,1512,o),
(148,1504,c),
(148,1444,l),
(180,1450,o),
(214,1452,o),
(248,1452,cs),
(350,1452,o),
(376,1422,o),
(376,1300,cs),
(376,100,l),
(440,156,l)
);
}
);
};
layerId = "B1F27B51-9973-4381-9301-4FE46FE1CA59";
shapes = (
{
closed = 1;
nodes = (
(1380,1536,l,{
name = hr00;
}),
(1302,1536,l),
(228,0,l),
(306,0,l)
);
},
{
closed = 1;
nodes = (
(1154,876,o),
(1204,574,o),
(1376,196,cs),
(1464,6,o),
(1490,-80,o),
(1490,-194,cs),
(1490,-392,o),
(1406,-484,o),
(1222,-484,cs),
(1190,-484,o),
(1154,-482,o),
(1122,-476,c),
(1122,-536,l),
(1156,-544,o),
(1190,-548,o),
(1226,-548,cs),
(1442,-548,o),
(1554,-426,o),
(1554,-194,cs),
(1554,-72,o),
(1524,38,o),
(1432,228,cs),
(1270,574,o),
(1218,880,o),
(1240,1380,c),
(1176,1354,l)
);
},
{
closed = 1;
nodes = (
(408,1364,ls),
(408,1500,o),
(350,1560,o),
(220,1560,cs),
(182,1560,o),
(146,1556,o),
(116,1548,c),
(116,1488,l),
(148,1494,o),
(182,1496,o),
(216,1496,cs),
(318,1496,o),
(344,1466,o),
(344,1344,cs),
(344,100,l),
(408,156,l)
);
}
);
width = 1670;
},
{
associatedMasterId = "CD0E3B44-F66A-4791-B84C-A1128DC61275";
layerId = "AC5F72BA-1B9A-4A10-8079-CDBBD03008FC";
shapes = (
{
closed = 1;
nodes = (
(1688,1536,l),
(1396,1536,l),
(288,0,l),
(582,0,l)
);
},
{
closed = 1;
nodes = (
(1296,882,o),
(1332,734,o),
(1368,614,cs),
(1468,294,o),
(1586,162,o),
(1586,-68,cs),
(1586,-252,o),
(1490,-316,o),
(1344,-316,cs),
(1320,-316,o),
(1282,-312,o),
(1258,-304,c),
(1258,-524,l),
(1298,-536,o),
(1370,-548,o),
(1414,-548,cs),
(1684,-548,o),
(1862,-372,o),
(1862,-68,cs),
(1862,246,o),
(1728,406,o),
(1624,724,cs),
(1578,864,o),
(1528,1066,o),
(1504,1362,c),
(1274,1110,l)
);
},
{
closed = 1;
nodes = (
(718,1076,ls),
(718,1382,o),
(542,1556,o),
(274,1556,cs),
(226,1556,o),
(156,1544,o),
(112,1532,c),
(112,1312,l),
(140,1320,o),
(176,1324,o),
(200,1324,cs),
(348,1324,o),
(440,1262,o),
(440,1076,cs),
(440,58,l),
(718,314,l)
);
}
);
width = 1973.10189;
},
{
layerId = "CD0E3B44-F66A-4791-B84C-A1128DC61275";
shapes = (
{
closed = 1;
nodes = (
(1698,1536,l),
(1406,1536,l),
(298,0,l),
(592,0,l)
);
},
{
closed = 1;
nodes = (
(1306,882,o),
(1342,734,o),
(1378,614,cs),
(1478,294,o),
(1596,162,o),
(1596,-68,cs),
(1596,-252,o),
(1500,-316,o),
(1354,-316,cs),
(1330,-316,o),
(1292,-312,o),
(1268,-304,c),
(1268,-524,l),
(1308,-536,o),
(1380,-548,o),
(1424,-548,cs),
(1694,-548,o),
(1872,-372,o),
(1872,-68,cs),
(1872,246,o),
(1738,406,o),
(1634,724,cs),
(1588,864,o),
(1538,1066,o),
(1514,1362,c),
(1284,1110,l)
);
},
{
closed = 1;
nodes = (
(728,1076,ls),
(728,1382,o),
(552,1556,o),
(284,1556,cs),
(236,1556,o),
(166,1544,o),
(122,1532,c),
(122,1312,l),
(150,1320,o),
(186,1324,o),
(210,1324,cs),
(358,1324,o),
(450,1262,o),
(450,1076,cs),
(450,58,l),
(728,314,l)
);
}
);
width = 1994;
}
);
unicode = 983;
userData = {
interface.gridadjust.original = "{'width': 1827, 'leftMargin': 41, 'rightMargin': 41}";
"interface.width-adjustments" = (
-16
);
};
}
{
glyphname = Stigma;
layers = (
{
background = {
shapes = (
{
closed = 1;
nodes = (
(1573,-548,o),
(1925,-352,o),
(1924,24,cs),
(1925,216,o),
(1845,392,o),
(1628,456,cs),
(1136,604,ls),
(901,676,o),
(777,836,o),
(776,1196,cs),
(776,1184,ls),
(777,1400,o),
(853,1592,o),
(1124,1592,cs),
(1385,1592,o),
(1473,1504,o),
(1476,1296,c),
(2008,1296,l),
(1973,1708,o),
(1685,2032,o),
(1124,2032,cs),
(617,2032,o),
(229,1664,o),
(228,1180,cs),
(228,1196,ls),
(229,496,o),
(541,256,o),
(860,180,cs),
(1236,92,ls),
(1333,68,o),
(1377,40,o),
(1376,-20,cs),
(1377,-128,o),
(1237,-148,o),
(1104,-144,c),
(1108,-540,l,{
name = hr00;
})
);
}
);
};
guides = (
{
pos = (-128,-540);
}
);
layerId = "5C20EF92-B63D-42A8-8878-93C2863E0093";
shapes = (
{
closed = 1;
nodes = (
(1606,-549,o),
(1925,-328,o),
(1926,30,cs),
(1925,246,o),
(1819,400,o),
(1628,456,cs),
(1136,604,ls),
(886,681,o),
(776,856,o),
(776,1176,cs),
(776,1208,ls),
(776,1504,o),
(892,1636,o),
(1152,1636,cs),
(1375,1636,o),
(1473,1546,o),
(1476,1340,c),
(2008,1340,l),
(1970,1786,o),
(1626,2076,o),
(1136,2076,cs),
(604,2076,o),
(228,1715,o),
(228,1204,cs),
(228,1176,ls),
(228,624,o),
(451,305,o),
(860,194,cs),
(1236,92,ls),
(1340,64,o),
(1376,36,o),
(1376,-18,cs),
(1376,-106,o),
(1282,-149,o),
(1104,-144,c),
(1108,-540,l,{
name = hr00;
})
);
}
);
width = 2236;
},
{
background = {
shapes = (
{
closed = 1;
nodes = (
(1531,-499,o),
(1616,-405,o),
(1616,-284,cs),
(1616,-155,o),
(1518,-90,o),
(1268,0,cs),
(844,152,ls),
(533,263,o),
(312,464,o),
(312,918,cs),
(312,1052,ls),
(312,1631,o),
(572,1970,o),
(1008,1968,cs),
(1344,1967,o),
(1549,1769,o),
(1602,1392,c),
(1664,1392,l),
(1617,1801,o),
(1382,2032,o),
(1008,2032,cs),
(536,2032,o),
(248,1665,o),
(248,1052,cs),
(248,910,ls),
(248,433,o),
(482,216,o),
(836,88,cs),
(1244,-60,ls),
(1472,-143,o),
(1551,-190,o),
(1552,-282,cs),
(1553,-369,o),
(1484,-449,o),
(1394,-468,c),
(1394,-532,l)
);
}
);
};
layerId = "B1F27B51-9973-4381-9301-4FE46FE1CA59";
shapes = (
{
closed = 1;
nodes = (
(1499,-499,o),
(1584,-405,o),
(1584,-284,cs),
(1584,-155,o),
(1486,-90,o),
(1236,0,cs),
(812,152,ls),
(501,263,o),
(280,464,o),
(280,918,cs),
(280,1096,ls),
(280,1675,o),
(540,2015,o),
(976,2012,cs),
(1312,2010,o),
(1517,1813,o),
(1570,1436,c),
(1632,1436,l),
(1585,1845,o),
(1350,2076,o),
(976,2076,cs),
(504,2076,o),
(216,1709,o),
(216,1096,cs),
(216,910,ls),
(216,433,o),
(450,216,o),
(804,88,cs),
(1212,-60,ls),
(1440,-143,o),
(1519,-190,o),
(1520,-282,cs),
(1521,-369,o),
(1452,-449,o),
(1362,-468,c),
(1362,-532,l)
);
}
);
width = 1846;
},
{
associatedMasterId = "CD0E3B44-F66A-4791-B84C-A1128DC61275";
layerId = "86129171-14B1-4190-A906-B30D742856D5";
shapes = (
{
closed = 1;
nodes = (
(1542,-518,o),
(1704,-378,o),
(1704,-170,cs),
(1704,-4,o),
(1598,104,o),
(1378,178,cs),
(914,338,ls),
(638,432,o),
(502,620,o),
(502,910,cs),
(502,1146,ls),
(502,1588,o),
(686,1838,o),
(1028,1838,cs),
(1284,1838,o),
(1430,1702,o),
(1476,1398,c),
(1766,1398,l),
(1722,1826,o),
(1448,2076,o),
(1026,2076,cs),
(530,2076,o),
(208,1710,o),
(208,1146,cs),
(208,910,ls),
(208,502,o),
(424,226,o),
(856,86,cs),
(1302,-60,ls),
(1386,-90,o),
(1414,-128,o),
(1414,-184,cs),
(1414,-262,o),
(1360,-296,o),
(1260,-304,c),
(1260,-540,l,{
name = hr00;
})
);
}
);
width = 1973.39623;
},
{
layerId = "CD0E3B44-F66A-4791-B84C-A1128DC61275";
shapes = (
{
closed = 1;
nodes = (
(1552,-518,o),
(1714,-378,o),
(1714,-170,cs),
(1714,-4,o),
(1608,104,o),
(1388,178,cs),
(924,338,ls),
(648,432,o),
(512,620,o),
(512,910,cs),
(512,1146,ls),
(512,1588,o),
(696,1838,o),
(1038,1838,cs),
(1294,1838,o),
(1440,1702,o),
(1486,1398,c),
(1776,1398,l),
(1732,1826,o),
(1458,2076,o),
(1036,2076,cs),
(540,2076,o),
(218,1710,o),
(218,1146,cs),
(218,910,ls),
(218,502,o),
(434,226,o),
(866,86,cs),
(1312,-60,ls),
(1396,-90,o),
(1424,-128,o),
(1424,-184,cs),
(1424,-262,o),
(1370,-296,o),
(1270,-304,c),
(1270,-540,l,{
name = hr00;
})
);
}
);
width = 1994;
}
);
unicode = 986;
userData = {
interface.gridadjust.original = "{'width': 1834, 'leftMargin': 161, 'rightMargin': 121}";
"interface.width-adjustments" = (
-16
);
};
}
{
glyphname = koppa;
layers = (
{
background = {
shapes = (
{
closed = 1;
nodes = (
(472,1180,l),
(472,772,l),
(1604,772,l),
(1604,1180,l)
);
},
{
closed = 1;
nodes = (
(688,1988,l),
(236,1124,l),
(236,772,l),
(688,772,l),
(1268,1988,l)
);
},
{
closed = 1;
nodes = (
(1820,1180,l),
(1400,1180,l),
(816,0,l),
(1396,0,l),
(1820,852,l)
);
}
);
};
layerId = "5C20EF92-B63D-42A8-8878-93C2863E0093";
shapes = (
{
closed = 1;
nodes = (
(472,1200,l),
(472,792,l),
(1604,792,l),
(1604,1200,l)
);
},
{
closed = 1;
nodes = (
(720,2050,l),
(236,1144,l),
(236,792,l),
(688,792,l),
(1298,2050,l)
);
},
{
closed = 1;
nodes = (
(1820,1200,l),
(1400,1200,l),
(816,0,l),
(1396,0,l),
(1820,872,l)
);
}
);
width = 2048;
},
{
layerId = "B1F27B51-9973-4381-9301-4FE46FE1CA59";
shapes = (
{
closed = 1;
nodes = (
(116,1062,l),
(116,998,l),
(1012,998,l),
(1012,1062,l)
);
},
{
closed = 1;
nodes = (
(394,2048,l),
(76,1022,l),
(76,998,l),
(134,998,l),
(460,2048,l)
);
},
{
closed = 1;
nodes = (
(1058,1062,l),
(1000,1062,l),
(670,0,l),
(736,0,l),
(1058,1038,l)
);
}
);
width = 1126;
},
{
associatedMasterId = "CD0E3B44-F66A-4791-B84C-A1128DC61275";
layerId = "0B23BC97-FD7E-4A0D-B74F-F8EE78B25432";
shapes = (
{
closed = 1;
nodes = (
(292,1122,l),
(292,898,l),
(1170,898,l),
(1170,1122,l)
);
},
{
closed = 1;
nodes = (
(490,2048,l),
(102,984,l),
(102,898,l),
(332,898,l),
(750,2048,l)
);
},
{
closed = 1;
nodes = (
(1366,1122,l),
(1138,1122,l),
(722,0,l),
(982,0,l),
(1366,1040,l)
);
}
);
width = 1469.3434;
},
{
layerId = "CD0E3B44-F66A-4791-B84C-A1128DC61275";
shapes = (
{
closed = 1;
nodes = (
(300,1122,l),
(300,898,l),
(1178,898,l),
(1178,1122,l)
);
},
{
closed = 1;
nodes = (
(498,2048,l),
(110,984,l),
(110,898,l),
(340,898,l),
(758,2048,l)
);
},
{
closed = 1;
nodes = (
(1374,1122,l),
(1146,1122,l),
(730,0,l),
(990,0,l),
(1374,1040,l)
);
}
);
width = 1484;
}
);
unicode = 991;
userData = {
interface.gridadjust.original = "{'width': 1462, 'leftMargin': 103, 'rightMargin': 103}";
"interface.width-adjustments" = (
-16
);
};
}
{
glyphname = afii10029;
kernLeft = Elcyrillic;
kernRight = H;
layers = (
{
anchors = (
{
name = bottom;
pos = (1024,0);
},
{
name = right;
pos = (1952,0);
}
);
layerId = "5C20EF92-B63D-42A8-8878-93C2863E0093";
shapes = (
{
closed = 1;
nodes = (
(200,0,ls),
(720,0,o),
(916,256,o),
(952,972,cs),
(984,1616,l),
(1420,1616,l),
(1420,0,l),
(1956,0,l),
(1956,2048,l),
(472,2048,l),
(440,1188,ls),
(420,640,o),
(324,468,o),
(120,436,cs),
(64,428,l),
(64,0,l)
);
}
);
width = 2088;
},
{
anchors = (
{
name = bottom;
pos = (996,0);
},
{
name = right;
pos = (1624,0);
}
);
layerId = "B1F27B51-9973-4381-9301-4FE46FE1CA59";
shapes = (
{
closed = 1;
nodes = (
(80,0,ls),
(393,0,o),
(524,256,o),
(546,916,cs),
(582,1984,l),
(1564,1984,l),
(1564,0,l),
(1628,0,l),
(1628,2048,l),
(520,2048,l),
(482,944,ls),
(461,317,o),
(353,64,o),
(104,64,cs),
(60,64,l),
(60,0,l)
);
}
);
width = 1916;
},
{
anchors = (
{
name = bottom;
pos = (984,0);
},
{
name = right;
pos = (1730,0);
}
);
associatedMasterId = "CD0E3B44-F66A-4791-B84C-A1128DC61275";
layerId = "A42116AE-90A7-472E-970F-A058686DB202";
shapes = (
{
closed = 1;
nodes = (
(118,0,ls),
(572,0,o),
(664,366,o),
(690,1012,cs),
(722,1822,l),
(1478,1822,l),
(1478,0,l),
(1734,0,l),
(1734,2048,l),
(480,2048,l),
(444,1064,ls),
(422,460,o),
(354,234,o),
(100,234,cs),
(40,232,l),
(40,0,l)
);
}
);
width = 1946.35472;
},
{
anchors = (
{
name = bottom;
pos = (994,0);
},
{
name = right;
pos = (1740,0);
}
);
layerId = "CD0E3B44-F66A-4791-B84C-A1128DC61275";
shapes = (
{
closed = 1;
nodes = (
(128,0,ls),
(582,0,o),
(674,366,o),
(700,1012,cs),
(732,1822,l),
(1488,1822,l),
(1488,0,l),
(1744,0,l),
(1744,2048,l),
(490,2048,l),
(454,1064,ls),
(432,460,o),
(364,234,o),
(110,234,cs),
(50,232,l),
(50,0,l)
);
}
);
width = 1970;
}
);
metricLeft = A;
metricRight = H;
unicode = 1051;
userData = {
interface.gridadjust.original = "{'width': 1997, 'leftMargin': 67, 'rightMargin': 244}";
"interface.width-adjustments" = (
-16
);
};
}
{
glyphname = afii10049;
kernLeft = eight;
kernRight = H;
layers = (
{
anchors = (
{
name = bottom;
pos = (996,0);
},
{
name = top;
pos = (1028,2304);
}
);
layerId = "5C20EF92-B63D-42A8-8878-93C2863E0093";
shapes = (
{
closed = 1;
nodes = (
(1824,2048,l),
(940,2048,ls),
(485,2048,o),
(180,1788,o),
(180,1352,cs),
(180,911,o),
(493,676,o),
(960,676,cs),
(1488,676,l),
(1488,1108,l),
(1072,1108,ls),
(877,1108,o),
(760,1177,o),
(760,1352,cs),
(760,1528,o),
(877,1604,o),
(1072,1604,cs),
(1268,1604,l),
(1268,0,l),
(1824,0,l)
);
},
{
closed = 1;
nodes = (
(112,0,l),
(716,0,l),
(1216,940,l),
(624,940,l)
);
}
);
width = 1956;
},
{
anchors = (
{
name = bottom;
pos = (896,0);
},
{
name = top;
pos = (924,2304);
}
);
layerId = "B1F27B51-9973-4381-9301-4FE46FE1CA59";
shapes = (
{
closed = 1;
nodes = (
(1464,2048,l),
(864,2048,ls),
(520,2048,o),
(276,1815,o),
(276,1464,cs),
(276,1115,o),
(520,884,o),
(864,884,cs),
(1432,884,l),
(1432,948,l),
(864,948,ls),
(557,948,o),
(340,1152,o),
(340,1464,cs),
(340,1778,o),
(557,1984,o),
(864,1984,cs),
(1400,1984,l),
(1400,0,l),
(1464,0,l)
);
},
{
closed = 1;
nodes = (
(180,0,l),
(252,0,l),
(756,932,l),
(684,932,l)
);
}
);
width = 1752;
},
{
anchors = (
{
name = bottom;
pos = (932,0);
},
{
name = top;
pos = (968,2304);
}
);
associatedMasterId = "CD0E3B44-F66A-4791-B84C-A1128DC61275";
layerId = "C8131120-98A5-4D01-B19B-89CD6F87A0AB";
shapes = (
{
closed = 1;
nodes = (
(1612,2048,l),
(916,2048,ls),
(436,2048,o),
(218,1782,o),
(218,1418,cs),
(218,1054,o),
(436,796,o),
(912,796,cs),
(1472,796,l),
(1472,1026,l),
(924,1026,ls),
(598,1026,o),
(470,1174,o),
(470,1418,cs),
(470,1662,o),
(598,1822,o),
(928,1822,cs),
(1358,1822,l),
(1358,0,l),
(1612,0,l)
);
},
{
closed = 1;
nodes = (
(138,0,l),
(434,0,l),
(930,920,l),
(642,920,l)
);
}
);
width = 1826.06038;
},
{
anchors = (
{
name = bottom;
pos = (944,0);
},
{
name = top;
pos = (980,2304);
}
);
layerId = "CD0E3B44-F66A-4791-B84C-A1128DC61275";
shapes = (
{
closed = 1;
nodes = (
(1624,2048,l),
(928,2048,ls),
(448,2048,o),
(230,1782,o),
(230,1418,cs),
(230,1054,o),
(448,796,o),
(924,796,cs),
(1484,796,l),
(1484,1026,l),
(936,1026,ls),
(610,1026,o),
(482,1174,o),
(482,1418,cs),
(482,1662,o),
(610,1822,o),
(940,1822,cs),
(1370,1822,l),
(1370,0,l),
(1624,0,l)
);
},
{
closed = 1;
nodes = (
(150,0,l),
(446,0,l),
(942,920,l),
(654,920,l)
);
}
);
width = 1850;
}
);
metricLeft = eight;
metricRight = H;
note = "R flipped";
unicode = 1071;
userData = {
interface.gridadjust.original = "{'width': 1810, 'leftMargin': 122, 'rightMargin': 252}";
"interface.width-adjustments" = (
-16
);
};
}
{
glyphname = decyrillic;
kernLeft = elcyrillic;
kernRight = decyrillic;
layers = (
{
background = {
shapes = (
{
closed = 1;
nodes = (
(1164,412,l),
(696,412,l),
(696,420,l),
(763,529,o),
(786,645,o),
(796,784,c),
(796,782,o),
(816,1111,o),
(816,1112,c),
(1164,1112,l)
);
},
{
closed = 1;
nodes = (
(556,-384,l),
(556,0,l),
(1428,0,l),
(1428,-384,l),
(1936,-384,l),
(1936,412,l),
(1724,412,l),
(1724,1520,l),
(352,1520,l),
(308,828,ls),
(295,623,o),
(265,462,o),
(152,412,c),
(48,412,l),
(48,-384,l)
);
}
);
};
layerId = "5C20EF92-B63D-42A8-8878-93C2863E0093";
shapes = (
{
closed = 1;
nodes = (
(584,-456,l),
(584,0,l),
(1392,0,l),
(1392,-456,l),
(1912,-456,l),
(1912,416,l),
(1672,416,l),
(1672,1536,l),
(360,1536,l),
(328,1104,ls),
(312,888,o),
(300,472,o),
(160,416,c),
(48,416,l),
(48,-456,l)
);
},
{
closed = 1;
nodes = (
(768,560,o),
(800,772,o),
(816,1104,cs),
(816,1136,l),
(1160,1136,l),
(1160,416,l),
(688,416,l)
);
}
);
width = 1976;
},
{
layerId = "B1F27B51-9973-4381-9301-4FE46FE1CA59";
shapes = (
{
closed = 1;
nodes = (
(88,-432,l),
(88,0,l),
(1412,0,l),
(1412,-432,l),
(1476,-432,l),
(1476,64,l),
(1264,64,l),
(1264,1536,l),
(488,1536,l),
(424,824,ls),
(394,490,o),
(312,250,o),
(166,64,c),
(24,64,l),
(24,-432,l)
);
},
{
closed = 1;
nodes = (
(385,269,o),
(459,498,o),
(488,824,cs),
(546,1472,l),
(1200,1472,l),
(1200,64,l),
(246,64,l)
);
}
);
width = 1560;
},
{
associatedMasterId = "CD0E3B44-F66A-4791-B84C-A1128DC61275";
layerId = "27815053-26CA-45D6-B2F3-D000A6E16A1A";
shapes = (
{
closed = 1;
nodes = (
(264,-440,l),
(264,0,l),
(1392,0,l),
(1392,-440,l),
(1634,-440,l),
(1634,224,l),
(1398,224,l),
(1398,1536,l),
(414,1536,l),
(362,932,ls),
(326,508,o),
(272,352,o),
(148,224,c),
(20,224,l),
(20,-440,l)
);
},
{
closed = 1;
nodes = (
(530,366,o),
(568,612,o),
(600,932,cs),
(640,1312,l),
(1156,1312,l),
(1156,224,l),
(422,224,l)
);
}
);
width = 1697.78868;
},
{
layerId = "CD0E3B44-F66A-4791-B84C-A1128DC61275";
shapes = (
{
closed = 1;
nodes = (
(274,-440,l),
(274,0,l),
(1402,0,l),
(1402,-440,l),
(1644,-440,l),
(1644,224,l),
(1408,224,l),
(1408,1536,l),
(424,1536,l),
(372,932,ls),
(336,508,o),
(282,352,o),
(158,224,c),
(30,224,l),
(30,-440,l)
);
},
{
closed = 1;
nodes = (
(540,366,o),
(578,612,o),
(610,932,cs),
(650,1312,l),
(1166,1312,l),
(1166,224,l),
(432,224,l)
);
}
);
width = 1718;
}
);
unicode = 1076;
userData = {
interface.gridadjust.original = "{'width': 1719, 'leftMargin': 62, 'rightMargin': 85}";
"interface.width-adjustments" = (
-16
);
};
}
{
glyphname = ereversedcyrillic;
kernRight = b;
layers = (
{
anchors = (
{
name = top;
pos = (788,1792);
}
);
layerId = "5C20EF92-B63D-42A8-8878-93C2863E0093";
shapes = (
{
closed = 1;
nodes = (
(956,1139,o),
(976,970,o),
(976,780,cs),
(976,756,ls),
(976,595,o),
(964,401,o),
(748,400,c),
(612,401,o),
(568,492,o),
(568,612,c),
(84,612,l),
(84,191,o),
(352,-28,o),
(748,-28,cs),
(1244,-28,o),
(1496,298,o),
(1496,756,cs),
(1496,780,ls),
(1496,1234,o),
(1240,1564,o),
(748,1564,c),
(356,1564,o),
(84,1341,o),
(84,964,c),
(568,964,l),
(568,1081,o),
(612,1139,o),
(748,1140,cs)
);
},
{
closed = 1;
nodes = (
(660,900,l),
(660,628,l),
(1116,628,l),
(1116,900,l)
);
}
);
width = 1580;
},
{
anchors = (
{
name = top;
pos = (712,1792);
}
);
layerId = "B1F27B51-9973-4381-9301-4FE46FE1CA59";
shapes = (
{
closed = 1;
nodes = (
(980,1488,o),
(1212,1187,o),
(1212,796,cs),
(1212,740,ls),
(1212,345,o),
(978,36,o),
(676,36,cs),
(427,36,o),
(211,239,o),
(212,472,c),
(148,472,l),
(147,197,o),
(398,-28,o),
(676,-28,cs),
(1021,-28,o),
(1276,318,o),
(1276,740,cs),
(1276,796,ls),
(1276,1211,o),
(1026,1552,o),
(676,1552,cs),
(403,1552,o),
(147,1344,o),
(148,1092,c),
(212,1092,l),
(211,1301,o),
(430,1488,o),
(676,1488,cs)
);
},
{
closed = 1;
nodes = (
(480,800,l),
(480,736,l),
(1240,736,l),
(1240,800,l)
);
}
);
width = 1424;
},
{
anchors = (
{
name = top;
pos = (728,1792);
}
);
associatedMasterId = "CD0E3B44-F66A-4791-B84C-A1128DC61275";
layerId = "9EC38677-BD80-4242-8E48-4A0D6ABBFD5D";
shapes = (
{
closed = 1;
nodes = (
(964,1330,o),
(1108,1050,o),
(1108,792,cs),
(1108,736,ls),
(1108,484,o),
(960,200,o),
(692,198,cs),
(514,200,o),
(348,354,o),
(348,526,c),
(110,526,l),
(110,218,o),
(356,-28,o),
(692,-28,cs),
(1114,-28,o),
(1352,328,o),
(1352,736,cs),
(1352,792,ls),
(1352,1200,o),
(1114,1556,o),
(692,1556,cs),
(390,1556,o),
(110,1310,o),
(110,1042,c),
(348,1042,l),
(348,1200,o),
(534,1330,o),
(692,1332,cs)
);
},
{
closed = 1;
nodes = (
(538,884,l),
(538,664,l),
(1206,664,l),
(1206,884,l)
);
}
);
width = 1461.76604;
},
{
anchors = (
{
name = top;
pos = (740,1792);
}
);
layerId = "CD0E3B44-F66A-4791-B84C-A1128DC61275";
shapes = (
{
closed = 1;
nodes = (
(976,1330,o),
(1120,1050,o),
(1120,792,cs),
(1120,736,ls),
(1120,484,o),
(972,200,o),
(704,198,cs),
(526,200,o),
(360,354,o),
(360,526,c),
(122,526,l),
(122,218,o),
(368,-28,o),
(704,-28,cs),
(1126,-28,o),
(1364,328,o),
(1364,736,cs),
(1364,792,ls),
(1364,1200,o),
(1126,1556,o),
(704,1556,cs),
(402,1556,o),
(122,1310,o),
(122,1042,c),
(360,1042,l),
(360,1200,o),
(546,1330,o),
(704,1332,cs)
);
},
{
closed = 1;
nodes = (
(550,884,l),
(550,664,l),
(1218,664,l),
(1218,884,l)
);
}
);
width = 1486;
}
);
metricLeft = o;
metricRight = o;
unicode = 1101;
userData = {
interface.gridadjust.original = "{'width': 1517, 'leftMargin': 135, 'rightMargin': 147}";
"interface.width-adjustments" = (
-16
);
};
}
{
glyphname = dzhecyrillic;
kernLeft = m;
kernRight = a;
layers = (
{
layerId = "5C20EF92-B63D-42A8-8878-93C2863E0093";
shapes = (
{
closed = 1;
nodes = (
(592,-496,l),
(1120,-496,l),
(1120,196,l),
(592,196,l)
);
},
{
angle = 180;
pos = (1712,1536);
ref = pecyrillic;
}
);
width = 1712;
},
{
layerId = "B1F27B51-9973-4381-9301-4FE46FE1CA59";
shapes = (
{
closed = 1;
nodes = (
(768,-492,l),
(832,-492,l),
(832,44,l),
(768,44,l)
);
},
{
alignment = -1;
angle = 180;
pos = (1568,1536);
ref = pecyrillic;
}
);
width = 1568;
},
{
associatedMasterId = "CD0E3B44-F66A-4791-B84C-A1128DC61275";
layerId = "0898ABA2-E235-4190-94D2-E4EFFE2F1730";
shapes = (
{
closed = 1;
nodes = (
(666,-492,l),
(908,-492,l),
(908,102,l),
(666,102,l)
);
},
{
alignment = -1;
angle = 180;
pos = (1578,1536);
ref = pecyrillic;
}
);
width = 1578.15849;
},
{
layerId = "CD0E3B44-F66A-4791-B84C-A1128DC61275";
shapes = (
{
closed = 1;
nodes = (
(680,-492,l),
(922,-492,l),
(922,102,l),
(680,102,l)
);
},
{
alignment = -1;
angle = 180;
pos = (1602,1536);
ref = pecyrillic;
}
);
width = 1602;
}
);
metricLeft = idotless;
metricRight = idotless;
unicode = 1119;
userData = {
interface.gridadjust.original = "{'width': 1635, 'leftMargin': 213, 'rightMargin': 213}";
"interface.width-adjustments" = (
-16
);
};
}
{
glyphname = Eiotifiedcyrillic;
kernLeft = B;
kernRight = C;
layers = (
{
guides = (
{
angle = 90;
pos = (8,2160);
}
);
layerId = "5C20EF92-B63D-42A8-8878-93C2863E0093";
shapes = (
{
closed = 1;
nodes = (
(588,1212,l),
(588,796,l),
(2032,796,l),
(2032,1212,l)
);
},
{
closed = 1;
nodes = (
(2716,1840,o),
(2364,2076,o),
(1940,2076,cs),
(1396,2076,o),
(992,1692,o),
(992,1020,c),
(992,348,o),
(1396,-28,o),
(1940,-28,cs),
(2384,-28,o),
(2716,220,o),
(2840,628,c),
(2300,720,l),
(2236,536,o),
(2112,460,o),
(1940,460,cs),
(1704,460,o),
(1552,600,o),
(1552,1020,c),
(1552,1440,o),
(1704,1588,o),
(1940,1588,cs),
(2120,1588,o),
(2248,1500,o),
(2312,1312,c),
(2844,1404,l)
);
},
{
closed = 1;
nodes = (
(132,2048,l),
(132,0,l),
(688,0,l),
(688,2048,l)
);
}
);
width = 2956;
},
{
layerId = "B1F27B51-9973-4381-9301-4FE46FE1CA59";
shapes = (
{
closed = 1;
nodes = (
(308,1098,l),
(308,1034,l),
(1616,1034,l),
(1616,1098,l)
);
},
{
closed = 1;
nodes = (
(2248,1700,o),
(1996,2076,o),
(1514,2076,cs),
(1010,2076,o),
(666,1652,o),
(666,1024,cs),
(666,396,o),
(1010,-28,o),
(1514,-28,cs),
(1996,-28,o),
(2248,352,o),
(2298,640,c),
(2230,640,l),
(2180,364,o),
(1932,36,o),
(1514,36,cs),
(1094,36,o),
(730,380,o),
(730,1024,cs),
(730,1660,o),
(1094,2012,o),
(1514,2012,cs),
(1932,2012,o),
(2180,1680,o),
(2230,1408,c),
(2298,1408,l)
);
},
{
closed = 1;
nodes = (
(288,2048,l),
(288,0,l),
(352,0,l),
(352,2048,l)
);
}
);
width = 2438;
},
{
associatedMasterId = "CD0E3B44-F66A-4791-B84C-A1128DC61275";
layerId = "711A0E4D-BC2D-4740-A024-8915BDAC716F";
shapes = (
{
closed = 1;
nodes = (
(404,1154,l),
(404,928,l),
(1802,928,l),
(1802,1154,l)
);
},
{
closed = 1;
nodes = (
(2418,1828,o),
(2082,2076,o),
(1670,2076,cs),
(1146,2076,o),
(766,1672,o),
(766,1024,c),
(766,376,o),
(1146,-28,o),
(1670,-28,cs),
(2082,-28,o),
(2418,220,o),
(2496,640,c),
(2240,642,l),
(2180,360,o),
(1940,210,o),
(1670,210,cs),
(1302,210,o),
(1012,494,o),
(1012,1024,c),
(1012,1554,o),
(1302,1838,o),
(1670,1838,cs),
(1940,1838,o),
(2182,1688,o),
(2242,1406,c),
(2496,1408,l)
);
},
{
closed = 1;
nodes = (
(214,2048,l),
(214,0,l),
(468,0,l),
(468,2048,l)
);
}
);
width = 2615.35849;
},
{
layerId = "CD0E3B44-F66A-4791-B84C-A1128DC61275";
shapes = (
{
closed = 1;
nodes = (
(416,1154,l),
(416,928,l),
(1814,928,l),
(1814,1154,l)
);
},
{
closed = 1;
nodes = (
(2430,1828,o),
(2094,2076,o),
(1682,2076,cs),
(1158,2076,o),
(778,1672,o),
(778,1024,c),
(778,376,o),
(1158,-28,o),
(1682,-28,cs),
(2094,-28,o),
(2430,220,o),
(2508,640,c),
(2252,642,l),
(2192,360,o),
(1952,210,o),
(1682,210,cs),
(1314,210,o),
(1024,494,o),
(1024,1024,c),
(1024,1554,o),
(1314,1838,o),
(1682,1838,cs),
(1952,1838,o),
(2194,1688,o),
(2254,1406,c),
(2508,1408,l)
);
},
{
closed = 1;
nodes = (
(226,2048,l),
(226,0,l),
(480,0,l),
(480,2048,l)
);
}
);
width = 2638;
}
);
unicode = 1124;
userData = {
interface.gridadjust.original = "{'width': 2526, 'leftMargin': 257, 'rightMargin': 68}";
"interface.width-adjustments" = (
-16
);
};
}
{
glyphname = Omegatitlocyrillic;
layers = (
{
layerId = "5C20EF92-B63D-42A8-8878-93C2863E0093";
shapes = (
{
closed = 1;
nodes = (
(1940,2284,o),
(1732,2456,o),
(1508,2456,cs),
(1304,2456,o),
(1180,2356,o),
(1180,2156,cs),
(1180,2100,l),
(1368,2100,l),
(1368,2132,ls),
(1368,2224,o),
(1432,2272,o),
(1520,2272,cs),
(1680,2272,o),
(2072,2100,o),
(2072,2100,cs),
(2072,2100,l),
(2232,2284,l),
(2228,2284,l)
);
},
{
closed = 1;
nodes = (
(1592,1756,o),
(1716,1876,o),
(1716,1984,cs),
(1716,2124,l),
(1472,2124,l),
(1472,1992,ls),
(1472,1928,o),
(1436,1860,o),
(1372,1784,c),
(1492,1708,l)
);
},
{
closed = 1;
nodes = (
(604,2004,o),
(260,1740,o),
(260,1272,c),
(260,704,ls),
(260,232,o),
(608,-28,o),
(1072,-28,cs),
(1464,-28,o),
(1760,244,o),
(1760,728,cs),
(1760,1120,l),
(1316,1120,l),
(1316,728,ls),
(1316,516,o),
(1252,400,o),
(1072,400,cs),
(904,400,o),
(796,484,o),
(796,704,cs),
(796,1272,l),
(796,1484,o),
(900,1572,o),
(1072,1572,c),
(1072,2004,l)
);
},
{
closed = 1;
nodes = (
(2232,1572,o),
(2340,1484,o),
(2340,1272,cs),
(2340,704,ls),
(2340,488,o),
(2232,400,o),
(2064,400,cs),
(1884,400,o),
(1816,516,o),
(1816,728,cs),
(1816,1120,l),
(1376,1120,l),
(1376,728,ls),
(1376,244,o),
(1672,-28,o),
(2064,-28,cs),
(2528,-28,o),
(2876,232,o),
(2876,704,cs),
(2876,1272,ls),
(2876,1740,o),
(2528,2004,o),
(2064,2004,c),
(2064,1572,l)
);
}
);
width = 3136;
},
{
layerId = "B1F27B51-9973-4381-9301-4FE46FE1CA59";
shapes = (
{
closed = 1;
nodes = (
(1185,2364,o),
(1087,2521,o),
(874,2522,cs),
(720,2523,o),
(620,2441,o),
(620,2308,cs),
(620,2300,l),
(684,2300,l),
(684,2304,ls),
(684,2402,o),
(749,2459,o),
(872,2458,cs),
(1078,2456,o),
(1165,2300,o),
(1486,2300,cs),
(1542,2300,l),
(1542,2364,l),
(1482,2364,ls)
);
},
{
closed = 1;
nodes = (
(1037,1936,o),
(1076,2013,o),
(1076,2094,cs),
(1076,2194,l),
(1012,2194,l),
(1012,2102,ls),
(1012,2032,o),
(986,1971,o),
(918,1886,c),
(958,1858,l)
);
},
{
closed = 1;
nodes = (
(321,2004,o),
(204,1847,o),
(204,1568,cs),
(204,436,ls),
(204,127,o),
(342,-28,o),
(618,-28,cs),
(889,-28,o),
(1030,131,o),
(1030,436,cs),
(1030,1128,l),
(966,1128,l),
(966,436,ls),
(966,166,o),
(853,36,o),
(618,36,cs),
(378,36,o),
(268,162,o),
(268,436,cs),
(268,1566,ls),
(268,1814,o),
(356,1940,o),
(528,1940,c),
(528,2004,l)
);
},
{
closed = 1;
nodes = (
(1640,1940,o),
(1728,1814,o),
(1728,1566,cs),
(1728,436,ls),
(1728,162,o),
(1618,36,o),
(1378,36,cs),
(1143,36,o),
(1030,166,o),
(1030,436,cs),
(1030,1128,l),
(966,1128,l),
(966,436,ls),
(966,131,o),
(1107,-28,o),
(1378,-28,cs),
(1654,-28,o),
(1792,127,o),
(1792,436,cs),
(1792,1568,ls),
(1792,1847,o),
(1675,2004,o),
(1468,2004,c),
(1468,1940,l)
);
}
);
width = 1996;
},
{
associatedMasterId = "CD0E3B44-F66A-4791-B84C-A1128DC61275";
layerId = "B3F6BDD7-9129-4353-AF45-673F845826C4";
shapes = (
{
closed = 1;
nodes = (
(1510,2416,o),
(1356,2580,o),
(1140,2580,cs),
(936,2580,o),
(812,2488,o),
(812,2280,cs),
(812,2232,l),
(1000,2232,l),
(1000,2256,ls),
(1000,2356,o),
(1060,2396,o),
(1144,2396,cs),
(1300,2396,o),
(1482,2232,o),
(1794,2232,cs),
(1852,2232,l),
(1856,2416,l),
(1802,2416,l)
);
},
{
closed = 1;
nodes = (
(1290,1866,o),
(1414,1986,o),
(1414,2094,cs),
(1414,2234,l),
(1182,2234,l),
(1182,2102,ls),
(1182,2034,o),
(1146,1970,o),
(1086,1894,c),
(1198,1818,l)
);
},
{
closed = 1;
nodes = (
(456,2004,o),
(212,1794,o),
(212,1378,c),
(212,598,ls),
(212,178,o),
(456,-28,o),
(778,-28,cs),
(1100,-28,o),
(1338,162,o),
(1338,548,cs),
(1338,1124,l),
(1104,1124,l),
(1104,548,ls),
(1104,318,o),
(970,204,o),
(778,204,cs),
(622,204,o),
(506,332,o),
(506,598,cs),
(506,1378,l),
(506,1644,o),
(622,1768,o),
(778,1768,c),
(778,2004,l)
);
},
{
closed = 1;
nodes = (
(1876,1768,o),
(1992,1644,o),
(1992,1378,cs),
(1992,598,ls),
(1992,332,o),
(1876,204,o),
(1716,204,cs),
(1528,204,o),
(1394,318,o),
(1394,548,cs),
(1394,1124,l),
(1160,1124,l),
(1160,548,ls),
(1160,162,o),
(1394,-28,o),
(1716,-28,cs),
(2044,-28,o),
(2282,178,o),
(2282,598,cs),
(2282,1378,ls),
(2282,1794,o),
(2044,2004,o),
(1716,2004,c),
(1716,1768,l)
);
}
);
width = 2494.91321;
},
{
layerId = "CD0E3B44-F66A-4791-B84C-A1128DC61275";
shapes = (
{
closed = 1;
nodes = (
(1520,2416,o),
(1366,2580,o),
(1150,2580,cs),
(946,2580,o),
(822,2488,o),
(822,2280,cs),
(822,2232,l),
(1010,2232,l),
(1010,2256,ls),
(1010,2356,o),
(1070,2396,o),
(1154,2396,cs),
(1310,2396,o),
(1492,2232,o),
(1804,2232,cs),
(1862,2232,l),
(1866,2416,l),
(1812,2416,l)
);
},
{
closed = 1;
nodes = (
(1300,1866,o),
(1424,1986,o),
(1424,2094,cs),
(1424,2234,l),
(1192,2234,l),
(1192,2102,ls),
(1192,2034,o),
(1156,1970,o),
(1096,1894,c),
(1208,1818,l)
);
},
{
closed = 1;
nodes = (
(466,2004,o),
(222,1794,o),
(222,1378,c),
(222,598,ls),
(222,178,o),
(466,-28,o),
(788,-28,cs),
(1110,-28,o),
(1348,162,o),
(1348,548,cs),
(1348,1124,l),
(1114,1124,l),
(1114,548,ls),
(1114,318,o),
(980,204,o),
(788,204,cs),
(632,204,o),
(516,332,o),
(516,598,cs),
(516,1378,l),
(516,1644,o),
(632,1768,o),
(788,1768,c),
(788,2004,l)
);
},
{
closed = 1;
nodes = (
(1886,1768,o),
(2002,1644,o),
(2002,1378,cs),
(2002,598,ls),
(2002,332,o),
(1886,204,o),
(1726,204,cs),
(1538,204,o),
(1404,318,o),
(1404,548,cs),
(1404,1124,l),
(1170,1124,l),
(1170,548,ls),
(1170,162,o),
(1404,-28,o),
(1726,-28,cs),
(2054,-28,o),
(2292,178,o),
(2292,598,cs),
(2292,1378,ls),
(2292,1794,o),
(2054,2004,o),
(1726,2004,c),
(1726,1768,l)
);
}
);
width = 2514;
}
);
unicode = 1148;
userData = {
interface.gridadjust.original = "{'width': 2461, 'leftMargin': 210, 'rightMargin': 195}";
"interface.width-adjustments" = (
-16
);
};
}
{
glyphname = Otcyrillic;
layers = (
{
layerId = "5C20EF92-B63D-42A8-8878-93C2863E0093";
shapes = (
{
closed = 1;
nodes = (
(1324,2176,l),
(1584,2176,l),
(1584,2352,l),
(2144,2352,l),
(2140,2564,l),
(796,2564,l),
(796,2352,l),
(1324,2352,l)
);
},
{
closed = 1;
nodes = (
(1200,728,ls),
(1200,516,o),
(1128,400,o),
(952,400,cs),
(756,400,o),
(688,520,o),
(688,728,cs),
(688,1988,l),
(132,1988,l),
(132,728,ls),
(132,244,o),
(480,-28,o),
(952,-28,cs),
(1344,-28,o),
(1640,244,o),
(1640,728,cs),
(1640,1988,l),
(1200,1988,l)
);
},
{
closed = 1;
nodes = (
(2260,728,ls),
(2260,516,o),
(2196,400,o),
(2008,400,cs),
(1824,400,o),
(1748,516,o),
(1748,728,cs),
(1748,1988,l),
(1308,1988,l),
(1308,728,ls),
(1308,244,o),
(1612,-28,o),
(2008,-28,cs),
(2472,-28,o),
(2808,244,o),
(2808,728,cs),
(2808,1988,l),
(2260,1988,l)
);
}
);
width = 2940;
},
{
layerId = "B1F27B51-9973-4381-9301-4FE46FE1CA59";
shapes = (
{
closed = 1;
nodes = (
(1052,2176,l),
(1116,2176,l),
(1116,2412,l),
(1576,2412,l),
(1576,2476,l),
(592,2476,l),
(592,2412,l),
(1052,2412,l)
);
},
{
closed = 1;
nodes = (
(1052,436,ls),
(1052,166,o),
(939,36,o),
(704,36,cs),
(464,36,o),
(354,162,o),
(354,436,cs),
(354,2048,l),
(290,2048,l),
(290,436,ls),
(290,127,o),
(428,-28,o),
(704,-28,cs),
(975,-28,o),
(1116,131,o),
(1116,436,cs),
(1116,1128,l),
(1052,1128,l)
);
},
{
closed = 1;
nodes = (
(1814,436,ls),
(1814,162,o),
(1704,36,o),
(1464,36,cs),
(1229,36,o),
(1116,166,o),
(1116,436,cs),
(1116,1128,l),
(1052,1128,l),
(1052,436,ls),
(1052,131,o),
(1193,-28,o),
(1464,-28,cs),
(1740,-28,o),
(1878,127,o),
(1878,436,cs),
(1878,2048,l),
(1814,2048,l)
);
}
);
width = 2166;
},
{
associatedMasterId = "CD0E3B44-F66A-4791-B84C-A1128DC61275";
layerId = "0894488F-3914-4D55-A855-EEFA19A98A5C";
shapes = (
{
closed = 1;
nodes = (
(1098,2176,l),
(1346,2176,l),
(1346,2352,l),
(1804,2352,l),
(1800,2510,l),
(662,2510,l),
(662,2352,l),
(1098,2352,l)
);
},
{
closed = 1;
nodes = (
(1094,548,ls),
(1094,318,o),
(960,204,o),
(772,204,cs),
(614,204,o),
(468,318,o),
(468,548,cs),
(468,2046,l),
(214,2046,l),
(214,548,ls),
(214,162,o),
(448,-28,o),
(772,-28,cs),
(1094,-28,o),
(1332,162,o),
(1332,548,cs),
(1332,2046,l),
(1094,2046,l)
);
},
{
closed = 1;
nodes = (
(1978,548,ls),
(1978,318,o),
(1820,204,o),
(1648,204,cs),
(1476,204,o),
(1350,318,o),
(1350,548,cs),
(1350,2046,l),
(1116,2046,l),
(1116,548,ls),
(1116,162,o),
(1334,-28,o),
(1648,-28,cs),
(1972,-28,o),
(2230,162,o),
(2230,548,cs),
(2230,2046,l),
(1978,2046,l)
);
}
);
width = 2443.28302;
},
{
layerId = "CD0E3B44-F66A-4791-B84C-A1128DC61275";
shapes = (
{
closed = 1;
nodes = (
(1110,2176,l),
(1358,2176,l),
(1358,2352,l),
(1816,2352,l),
(1812,2510,l),
(674,2510,l),
(674,2352,l),
(1110,2352,l)
);
},
{
closed = 1;
nodes = (
(1106,548,ls),
(1106,318,o),
(972,204,o),
(784,204,cs),
(626,204,o),
(480,318,o),
(480,548,cs),
(480,2046,l),
(226,2046,l),
(226,548,ls),
(226,162,o),
(460,-28,o),
(784,-28,cs),
(1106,-28,o),
(1344,162,o),
(1344,548,cs),
(1344,2046,l),
(1106,2046,l)
);
},
{
closed = 1;
nodes = (
(1990,548,ls),
(1990,318,o),
(1832,204,o),
(1660,204,cs),
(1488,204,o),
(1362,318,o),
(1362,548,cs),
(1362,2046,l),
(1128,2046,l),
(1128,548,ls),
(1128,162,o),
(1346,-28,o),
(1660,-28,cs),
(1984,-28,o),
(2242,162,o),
(2242,548,cs),
(2242,2046,l),
(1990,2046,l)
);
}
);
width = 2468;
}
);
unicode = 1150;
userData = {
interface.gridadjust.original = "{'width': 2471, 'leftMargin': 248, 'rightMargin': 159}";
"interface.width-adjustments" = (
-16
);
};
}
{
glyphname = Kaverticalstrokecyrillic;
kernLeft = B;
kernRight = K;
layers = (
{
layerId = "5C20EF92-B63D-42A8-8878-93C2863E0093";
shapes = (
{
closed = 1;
nodes = (
(772,440,l),
(1024,440,l),
(1024,1616,l),
(772,1616,l)
);
},
{
closed = 1;
nodes = (
(680,0,l),
(680,740,l),
(1080,740,l),
(1408,0,l),
(2088,0,l),
(1492,1120,l),
(2024,2048,l),
(1368,2048,l),
(1036,1256,l),
(680,1256,l),
(680,2048,l),
(132,2048,l),
(132,0,l)
);
}
);
width = 2104;
},
{
layerId = "B1F27B51-9973-4381-9301-4FE46FE1CA59";
shapes = (
{
closed = 1;
nodes = (
(656,678,l),
(720,678,l),
(720,1422,l),
(656,1422,l)
);
},
{
closed = 1;
nodes = (
(352,0,l),
(352,1018,l),
(898,1018,l),
(1548,0,l),
(1624,0,l),
(954,1050,l),
(1496,2048,l),
(1424,2048,l),
(898,1080,l),
(352,1080,l),
(352,2048,l),
(288,2048,l),
(288,0,l)
);
}
);
width = 1688;
},
{
associatedMasterId = "CD0E3B44-F66A-4791-B84C-A1128DC61275";
layerId = "4FF8E49F-D2DE-4EE6-A76C-7C3E8E7044E0";
shapes = (
{
closed = 1;
nodes = (
(634,564,l),
(856,564,l),
(856,1476,l),
(634,1476,l)
);
},
{
closed = 1;
nodes = (
(468,0,l),
(468,888,l),
(966,888,l),
(1470,0,l),
(1756,0,l),
(1180,1026,l),
(1720,2048,l),
(1422,2048,l),
(950,1132,l),
(468,1132,l),
(468,2048,l),
(214,2048,l),
(214,0,l)
);
}
);
width = 1794.57358;
},
{
layerId = "CD0E3B44-F66A-4791-B84C-A1128DC61275";
shapes = (
{
closed = 1;
nodes = (
(646,564,l),
(868,564,l),
(868,1476,l),
(646,1476,l)
);
},
{
closed = 1;
nodes = (
(480,0,l),
(480,888,l),
(978,888,l),
(1482,0,l),
(1768,0,l),
(1192,1026,l),
(1732,2048,l),
(1434,2048,l),
(962,1132,l),
(480,1132,l),
(480,2048,l),
(226,2048,l),
(226,0,l)
);
}
);
width = 1818;
}
);
metricLeft = K;
metricRight = K;
unicode = 1180;
userData = {
interface.gridadjust.original = "{'width': 1783, 'leftMargin': 220, 'rightMargin': 11}";
"interface.width-adjustments" = (
-16
);
};
}
{
glyphname = cheabkhasiancyrillic;
kernLeft = t;
kernRight = e;
layers = (
{
layerId = "5C20EF92-B63D-42A8-8878-93C2863E0093";
shapes = (
{
closed = 1;
nodes = (
(33,850,o),
(244,640,o),
(648,640,c),
(648,944,l),
(460,944,o),
(401,1050,o),
(400,1252,c),
(32,1252,l)
);
},
{
pos = (492,0);
ref = e;
}
);
width = 2204;
},
{
layerId = "B1F27B51-9973-4381-9301-4FE46FE1CA59";
shapes = (
{
closed = 1;
nodes = (
(157,876,o),
(273,769,o),
(528,768,c),
(528,832,l),
(309,833,o),
(222,912,o),
(224,1108,c),
(160,1108,l)
);
},
{
alignment = -1;
pos = (368,0);
ref = e;
}
);
width = 1928;
},
{
associatedMasterId = "CD0E3B44-F66A-4791-B84C-A1128DC61275";
layerId = "A1767388-34B7-44D4-86F0-F97233B98755";
shapes = (
{
closed = 1;
nodes = (
(40,876,o),
(208,686,o),
(542,686,c),
(542,894,l),
(342,894,o),
(258,1002,o),
(258,1182,c),
(40,1182,l)
);
},
{
alignment = -1;
pos = (414,0);
ref = e;
}
);
width = 1992.12075;
},
{
layerId = "CD0E3B44-F66A-4791-B84C-A1128DC61275";
shapes = (
{
closed = 1;
nodes = (
(50,876,o),
(218,686,o),
(552,686,c),
(552,894,l),
(352,894,o),
(268,1002,o),
(268,1182,c),
(50,1182,l)
);
},
{
alignment = -1;
pos = (414,0);
ref = e;
}
);
width = 2016;
}
);
metricLeft = f;
metricRight = e;
unicode = 1213;
userData = {
interface.gridadjust.original = "{'width': 1671, 'leftMargin': -55, 'rightMargin': -15}";
"interface.width-adjustments" = (
-16
);
};
}
{
glyphname = Enhookcyrillic;
kernLeft = B;
kernRight = H;
layers = (
{
layerId = "5C20EF92-B63D-42A8-8878-93C2863E0093";
shapes = (
{
closed = 1;
nodes = (
(1424,-16,ls),
(1424,-160,o),
(1276,-184,o),
(1152,-184,cs),
(1113,-184,o),
(1037,-178,o),
(1000,-176,c),
(1000,-616,l),
(1009,-616,o),
(1097,-628,o),
(1172,-628,cs),
(1981,-628,o),
(1980,-200,o),
(1980,-56,cs),
(1980,0,l),
(1424,0,l,{
name = hr00;
})
);
},
{
ref = H;
}
);
width = 2112;
},
{
layerId = "B1F27B51-9973-4381-9301-4FE46FE1CA59";
shapes = (
{
closed = 1;
nodes = (
(1656,-232,ls),
(1656,-418,o),
(1586,-508,o),
(1442,-508,cs),
(1412,-508,o),
(1388,-505,o),
(1370,-500,c),
(1370,-564,l),
(1389,-569,o),
(1418,-572,o),
(1448,-572,cs),
(1624,-572,o),
(1720,-452,o),
(1720,-232,cs),
(1720,0,l),
(1656,0,l)
);
},
{
alignment = -1;
ref = H;
}
);
width = 2008;
},
{
associatedMasterId = "CD0E3B44-F66A-4791-B84C-A1128DC61275";
layerId = "6FA9363E-61F9-4C00-A465-A05624EB670C";
shapes = (
{
closed = 1;
nodes = (
(1552,-156,ls),
(1552,-316,o),
(1458,-364,o),
(1330,-364,cs),
(1302,-364,o),
(1274,-360,o),
(1254,-356,c),
(1254,-566,l),
(1288,-576,o),
(1342,-578,o),
(1390,-578,cs),
(1628,-578,o),
(1808,-422,o),
(1808,-162,cs),
(1808,0,l),
(1552,0,l)
);
},
{
alignment = -1;
ref = H;
}
);
width = 2021.07925;
},
{
layerId = "CD0E3B44-F66A-4791-B84C-A1128DC61275";
shapes = (
{
closed = 1;
nodes = (
(1562,-156,ls),
(1562,-316,o),
(1468,-364,o),
(1340,-364,cs),
(1312,-364,o),
(1284,-360,o),
(1264,-356,c),
(1264,-566,l),
(1298,-576,o),
(1352,-578,o),
(1400,-578,cs),
(1638,-578,o),
(1818,-422,o),
(1818,-162,cs),
(1818,0,l),
(1562,0,l)
);
},
{
alignment = -1;
ref = H;
}
);
width = 2046;
}
);
metricLeft = H;
metricRight = H;
unicode = 1223;
userData = {
interface.gridadjust.original = "{'width': 2010, 'leftMargin': 242, 'rightMargin': 244}";
"interface.width-adjustments" = (
-16
);
};
}
{
color = (250,227,227,1);
glyphname = uni1DC5;
layers = (
{
layerId = "5C20EF92-B63D-42A8-8878-93C2863E0093";
shapes = (
{
closed = 1;
nodes = (
(-400,1672,l),
(-400,1920,l),
(-1008,1920,l),
(-1148,2112,l),
(-1676,2112,l),
(-1244,1672,l)
);
}
);
width = 0;
},
{
layerId = "B1F27B51-9973-4381-9301-4FE46FE1CA59";
shapes = (
{
closed = 1;
nodes = (
(-350,1724,l),
(-350,1788,l),
(-832,1788,l),
(-1004,2112,l),
(-1078,2112,l),
(-856,1722,l)
);
}
);
width = 0;
},
{
associatedMasterId = "CD0E3B44-F66A-4791-B84C-A1128DC61275";
layerId = "741E2063-E917-4DB6-91B6-9B8151E087B9";
shapes = (
{
closed = 1;
nodes = (
(-382,1704,l),
(-382,1912,l),
(-922,1912,l),
(-1012,2112,l),
(-1322,2112,l),
(-1022,1704,l)
);
}
);
width = 0;
},
{
layerId = "CD0E3B44-F66A-4791-B84C-A1128DC61275";
shapes = (
{
closed = 1;
nodes = (
(-372,1704,l),
(-372,1912,l),
(-912,1912,l),
(-1002,2112,l),
(-1312,2112,l),
(-1012,1704,l)
);
}
);
width = 8;
}
);
unicode = 7621;
}
{
color = (250,227,227,1);
glyphname = uni1DED;
layers = (
{
layerId = "5C20EF92-B63D-42A8-8878-93C2863E0093";
shapes = (
{
closed = 1;
nodes = (
(-1220,1360,l),
(-980,1728,l),
(-1184,1840,l),
(-1424,1472,l)
);
},
{
closed = 1;
nodes = (
(-706,1632,o),
(-574,1800,o),
(-572,2016,cs),
(-572,2032,ls),
(-574,2244,o),
(-702,2420,o),
(-956,2420,cs),
(-1210,2420,o),
(-1338,2248,o),
(-1336,2032,cs),
(-1336,2016,ls),
(-1338,1800,o),
(-1206,1632,o),
(-956,1632,cs)
);
},
{
closed = 1;
nodes = (
(-1062,1828,o),
(-1090,1920,o),
(-1088,2016,cs),
(-1088,2032,ls),
(-1090,2128,o),
(-1058,2224,o),
(-956,2224,cs),
(-850,2224,o),
(-822,2124,o),
(-820,2032,cs),
(-820,2016,ls),
(-822,1916,o),
(-854,1828,o),
(-956,1828,cs)
);
}
);
width = 0;
},
{
layerId = "B1F27B51-9973-4381-9301-4FE46FE1CA59";
shapes = (
{
closed = 1;
nodes = (
(-1102,1424,l),
(-914,1732,l),
(-964,1776,l),
(-1154,1458,l)
);
},
{
closed = 1;
nodes = (
(-556,1632,o),
(-408,1774,o),
(-408,2016,cs),
(-408,2032,ls),
(-408,2282,o),
(-558,2420,o),
(-748,2420,cs),
(-938,2420,o),
(-1100,2280,o),
(-1100,2032,cs),
(-1100,2016,ls),
(-1100,1774,o),
(-940,1632,o),
(-748,1632,cs)
);
},
{
closed = 1;
nodes = (
(-924,1696,o),
(-1036,1834,o),
(-1036,2014,cs),
(-1036,2034,ls),
(-1036,2218,o),
(-924,2356,o),
(-744,2356,cs),
(-576,2356,o),
(-472,2232,o),
(-472,2034,cs),
(-472,2014,ls),
(-472,1824,o),
(-576,1696,o),
(-748,1696,cs)
);
}
);
width = 0;
},
{
associatedMasterId = "CD0E3B44-F66A-4791-B84C-A1128DC61275";
layerId = "4C329A06-57D5-4036-A94A-5F2B1C0FD383";
shapes = (
{
closed = 1;
nodes = (
(-1146,1392,l),
(-918,1756,l),
(-1060,1840,l),
(-1288,1472,l)
);
},
{
closed = 1;
nodes = (
(-626,1632,o),
(-482,1784,o),
(-482,2016,cs),
(-482,2032,ls),
(-482,2268,o),
(-626,2420,o),
(-844,2420,cs),
(-1056,2420,o),
(-1204,2268,o),
(-1204,2032,cs),
(-1204,2016,ls),
(-1204,1784,o),
(-1056,1632,o),
(-844,1632,cs)
);
},
{
closed = 1;
nodes = (
(-966,1782,o),
(-1022,1874,o),
(-1022,2016,cs),
(-1022,2032,ls),
(-1022,2178,o),
(-966,2270,o),
(-844,2270,cs),
(-720,2270,o),
(-664,2178,o),
(-664,2032,cs),
(-664,2016,ls),
(-664,1870,o),
(-720,1782,o),
(-844,1782,cs)
);
}
);
width = 0.19623;
},
{
layerId = "CD0E3B44-F66A-4791-B84C-A1128DC61275";
shapes = (
{
closed = 1;
nodes = (
(-1142,1392,l),
(-914,1756,l),
(-1056,1840,l),
(-1284,1472,l)
);
},
{
closed = 1;
nodes = (
(-622,1632,o),
(-478,1784,o),
(-478,2016,cs),
(-478,2032,ls),
(-478,2268,o),
(-622,2420,o),
(-840,2420,cs),
(-1052,2420,o),
(-1200,2268,o),
(-1200,2032,cs),
(-1200,2016,ls),
(-1200,1784,o),
(-1052,1632,o),
(-840,1632,cs)
);
},
{
closed = 1;
nodes = (
(-962,1782,o),
(-1018,1874,o),
(-1018,2016,cs),
(-1018,2032,ls),
(-1018,2178,o),
(-962,2270,o),
(-840,2270,cs),
(-716,2270,o),
(-660,2178,o),
(-660,2032,cs),
(-660,2016,ls),
(-660,1870,o),
(-716,1782,o),
(-840,1782,cs)
);
}
);
width = 2;
}
);
unicode = 7661;
}
{
color = (250,227,227,1);
glyphname = uni1DF0;
layers = (
{
layerId = "5C20EF92-B63D-42A8-8878-93C2863E0093";
shapes = (
{
closed = 1;
nodes = (
(-1264,1360,l),
(-1020,1728,l),
(-1224,1840,l),
(-1464,1472,l)
);
},
{
closed = 1;
nodes = (
(-828,1652,l),
(-600,1652,l),
(-600,2412,l),
(-852,2412,l),
(-852,1840,l)
);
},
{
closed = 1;
nodes = (
(-830,1912,o),
(-862,1836,o),
(-972,1836,cs),
(-1030,1836,o),
(-1070,1868,o),
(-1068,1940,cs),
(-1068,2412,l),
(-1316,2412,l),
(-1316,1940,ls),
(-1318,1728,o),
(-1210,1640,o),
(-1056,1640,cs),
(-862,1640,o),
(-746,1792,o),
(-744,2008,c),
(-828,2004,l)
);
}
);
width = 0;
},
{
layerId = "B1F27B51-9973-4381-9301-4FE46FE1CA59";
shapes = (
{
closed = 1;
nodes = (
(-1098,1426,l),
(-922,1718,l),
(-972,1760,l),
(-1152,1458,l)
);
},
{
closed = 1;
nodes = (
(-518,1652,l),
(-472,1652,l),
(-472,2412,l),
(-536,2412,l),
(-536,1820,l)
);
},
{
closed = 1;
nodes = (
(-536,1804,o),
(-608,1704,o),
(-780,1704,cs),
(-932,1704,o),
(-976,1772,o),
(-976,1972,cs),
(-976,2412,l),
(-1040,2412,l),
(-1040,1976,ls),
(-1040,1746,o),
(-968,1640,o),
(-788,1640,cs),
(-590,1640,o),
(-496,1772,o),
(-496,2008,c),
(-536,2004,l)
);
}
);
width = 0;
},
{
associatedMasterId = "CD0E3B44-F66A-4791-B84C-A1128DC61275";
layerId = "4AA77398-4232-4DE6-8BA5-836E4BC08F63";
shapes = (
{
closed = 1;
nodes = (
(-1148,1392,l),
(-920,1756,l),
(-1060,1840,l),
(-1290,1472,l)
);
},
{
closed = 1;
nodes = (
(-660,1652,l),
(-522,1652,l),
(-522,2412,l),
(-708,2412,l),
(-708,1828,l)
);
},
{
closed = 1;
nodes = (
(-680,1870,o),
(-732,1786,o),
(-856,1786,cs),
(-954,1786,o),
(-986,1852,o),
(-986,1960,cs),
(-986,2412,l),
(-1168,2412,l),
(-1168,1962,ls),
(-1168,1732,o),
(-1068,1640,o),
(-908,1640,cs),
(-700,1640,o),
(-616,1792,o),
(-616,2008,c),
(-680,2004,l)
);
}
);
width = 0.29434;
},
{
layerId = "CD0E3B44-F66A-4791-B84C-A1128DC61275";
shapes = (
{
closed = 1;
nodes = (
(-1142,1392,l),
(-914,1756,l),
(-1054,1840,l),
(-1284,1472,l)
);
},
{
closed = 1;
nodes = (
(-654,1652,l),
(-516,1652,l),
(-516,2412,l),
(-702,2412,l),
(-702,1828,l)
);
},
{
closed = 1;
nodes = (
(-674,1870,o),
(-726,1786,o),
(-850,1786,cs),
(-948,1786,o),
(-980,1852,o),
(-980,1960,cs),
(-980,2412,l),
(-1162,2412,l),
(-1162,1962,ls),
(-1162,1732,o),
(-1062,1640,o),
(-902,1640,cs),
(-694,1640,o),
(-610,1792,o),
(-610,2008,c),
(-674,2004,l)
);
}
);
width = 4;
}
);
unicode = 7664;
}
{
color = (250,227,227,1);
glyphname = uni1DF4;
layers = (
{
layerId = "5C20EF92-B63D-42A8-8878-93C2863E0093";
shapes = (
{
closed = 1;
nodes = (
(-1290,2540,o),
(-1234,2488,o),
(-1156,2488,cs),
(-1070,2488,o),
(-1014,2540,o),
(-1016,2612,cs),
(-1014,2684,o),
(-1074,2732,o),
(-1156,2732,cs),
(-1234,2732,o),
(-1290,2680,o),
(-1292,2612,cs)
);
},
{
closed = 1;
nodes = (
(-870,2540,o),
(-810,2488,o),
(-736,2488,cs),
(-650,2488,o),
(-594,2540,o),
(-596,2612,cs),
(-594,2680,o),
(-650,2732,o),
(-736,2732,cs),
(-810,2732,o),
(-870,2684,o),
(-872,2612,cs)
);
},
{
closed = 1;
nodes = (
(-812,1652,l),
(-584,1652,l),
(-584,2412,l),
(-840,2412,l),
(-840,1840,l)
);
},
{
closed = 1;
nodes = (
(-814,1916,o),
(-842,1836,o),
(-960,1836,cs),
(-1010,1836,o),
(-1054,1868,o),
(-1056,1940,cs),
(-1056,2412,l),
(-1304,2412,l),
(-1304,1940,ls),
(-1302,1728,o),
(-1194,1640,o),
(-1040,1640,cs),
(-842,1640,o),
(-730,1796,o),
(-732,2008,c),
(-816,2004,l)
);
}
);
width = 0;
},
{
layerId = "B1F27B51-9973-4381-9301-4FE46FE1CA59";
shapes = (
{
closed = 1;
nodes = (
(-956,2552,o),
(-928,2522,o),
(-892,2522,cs),
(-858,2522,o),
(-828,2552,o),
(-828,2586,cs),
(-828,2622,o),
(-858,2650,o),
(-892,2650,cs),
(-928,2650,o),
(-956,2622,o),
(-956,2586,cs)
);
},
{
closed = 1;
nodes = (
(-680,2552,o),
(-652,2522,o),
(-616,2522,cs),
(-582,2522,o),
(-552,2552,o),
(-552,2586,cs),
(-552,2622,o),
(-582,2650,o),
(-616,2650,cs),
(-652,2650,o),
(-680,2622,o),
(-680,2586,cs)
);
},
{
closed = 1;
nodes = (
(-518,1652,l),
(-472,1652,l),
(-472,2412,l),
(-536,2412,l),
(-536,1820,l)
);
},
{
closed = 1;
nodes = (
(-536,1804,o),
(-608,1704,o),
(-780,1704,cs),
(-932,1704,o),
(-976,1772,o),
(-976,1972,cs),
(-976,2412,l),
(-1040,2412,l),
(-1040,1976,ls),
(-1040,1746,o),
(-968,1640,o),
(-788,1640,cs),
(-590,1640,o),
(-496,1772,o),
(-496,2008,c),
(-536,2004,l)
);
}
);
width = 0;
},
{
associatedMasterId = "CD0E3B44-F66A-4791-B84C-A1128DC61275";
layerId = "61DA8DE0-0608-444D-A505-571A9545E437";
shapes = (
{
closed = 1;
nodes = (
(-1120,2536,o),
(-1080,2496,o),
(-1016,2496,cs),
(-948,2496,o),
(-908,2536,o),
(-908,2592,cs),
(-908,2648,o),
(-948,2692,o),
(-1014,2692,cs),
(-1080,2692,o),
(-1120,2648,o),
(-1120,2592,cs)
);
},
{
closed = 1;
nodes = (
(-786,2536,o),
(-750,2496,o),
(-682,2496,cs),
(-614,2496,o),
(-578,2536,o),
(-578,2592,cs),
(-578,2648,o),
(-614,2692,o),
(-682,2692,cs),
(-750,2692,o),
(-786,2648,o),
(-786,2592,cs)
);
},
{
closed = 1;
nodes = (
(-660,1652,l),
(-522,1652,l),
(-522,2412,l),
(-704,2412,l),
(-704,1828,l)
);
},
{
closed = 1;
nodes = (
(-680,1866,o),
(-732,1786,o),
(-856,1786,cs),
(-946,1786,o),
(-986,1840,o),
(-986,1960,cs),
(-986,2412,l),
(-1168,2412,l),
(-1168,1962,ls),
(-1168,1732,o),
(-1068,1640,o),
(-908,1640,cs),
(-700,1640,o),
(-616,1792,o),
(-616,2008,c),
(-680,2004,l)
);
}
);
width = 0.29434;
},
{
layerId = "CD0E3B44-F66A-4791-B84C-A1128DC61275";
shapes = (
{
closed = 1;
nodes = (
(-1116,2536,o),
(-1076,2496,o),
(-1012,2496,cs),
(-944,2496,o),
(-904,2536,o),
(-904,2592,cs),
(-904,2648,o),
(-944,2692,o),
(-1010,2692,cs),
(-1076,2692,o),
(-1116,2648,o),
(-1116,2592,cs)
);
},
{
closed = 1;
nodes = (
(-782,2536,o),
(-746,2496,o),
(-678,2496,cs),
(-610,2496,o),
(-574,2536,o),
(-574,2592,cs),
(-574,2648,o),
(-610,2692,o),
(-678,2692,cs),
(-746,2692,o),
(-782,2648,o),
(-782,2592,cs)
);
},
{
closed = 1;
nodes = (
(-656,1652,l),
(-518,1652,l),
(-518,2412,l),
(-700,2412,l),
(-700,1828,l)
);
},
{
closed = 1;
nodes = (
(-676,1866,o),
(-728,1786,o),
(-852,1786,cs),
(-942,1786,o),
(-982,1840,o),
(-982,1960,cs),
(-982,2412,l),
(-1164,2412,l),
(-1164,1962,ls),
(-1164,1732,o),
(-1064,1640,o),
(-904,1640,cs),
(-696,1640,o),
(-612,1792,o),
(-612,2008,c),
(-676,2004,l)
);
}
);
width = 2;
}
);
unicode = 7668;
}
{
glyphname = slongstroke;
kernLeft = f;
kernRight = f;
layers = (
{
guides = (
{
angle = 90;
pos = (356,-84);
}
);
layerId = "5C20EF92-B63D-42A8-8878-93C2863E0093";
shapes = (
{
closed = 1;
nodes = (
(1060,1120,l),
(1060,1536,l,{
name = hr00;
}),
(32,1208,l),
(32,788,l)
);
},
{
pos = (-24,0);
ref = _part.f_base;
}
);
width = 1132;
},
{
guides = (
{
angle = 90;
pos = (252,536);
}
);
layerId = "B1F27B51-9973-4381-9301-4FE46FE1CA59";
shapes = (
{
closed = 1;
nodes = (
(632,1468,l),
(632,1536,l,{
name = hr00;
}),
(160,1324,l),
(160,1256,l)
);
},
{
pos = (-48,0);
ref = _part.f_base;
}
);
width = 820;
},
{
associatedMasterId = "CD0E3B44-F66A-4791-B84C-A1128DC61275";
layerId = "4B26C820-AF42-4D3C-9FCE-66D0AA002F5B";
shapes = (
{
closed = 1;
nodes = (
(724,1296,l),
(724,1536,l),
(40,1278,l),
(40,1038,l)
);
},
{
alignment = -1;
pos = (-66,0);
ref = _part.f_base;
}
);
width = 888.90566;
},
{
layerId = "CD0E3B44-F66A-4791-B84C-A1128DC61275";
shapes = (
{
closed = 1;
nodes = (
(734,1296,l),
(734,1536,l),
(50,1278,l),
(50,1038,l)
);
},
{
alignment = -1;
pos = (-66,0);
ref = _part.f_base;
}
);
width = 910;
}
);
metricLeft = f;
metricRight = f;
unicode = 7836;
userData = {
interface.gridadjust.original = "{'width': 1031, 'leftMargin': 125, 'rightMargin': 41}";
"interface.width-adjustments" = (
-16
);
};
}
{
color = (204,240,242,1);
glyphname = uni1FCE;
layers = (
{
anchors = (
{
name = _top;
pos = (640,1616);
}
);
layerId = "5C20EF92-B63D-42A8-8878-93C2863E0093";
shapes = (
{
closed = 1;
nodes = (
(832,1580,l),
(1164,2020,l),
(1164,2048,l),
(860,2048,l),
(696,1620,l),
(696,1580,l)
);
},
{
closed = 1;
nodes = (
(396,2048,l),
(396,1912,ls),
(394,1840,o),
(386,1748,o),
(288,1704,c),
(412,1552,l),
(534,1600,o),
(638,1728,o),
(640,1904,cs),
(640,2048,l)
);
}
);
width = 1452;
},
{
anchors = (
{
name = _top;
pos = (298,1616);
}
);
layerId = "B1F27B51-9973-4381-9301-4FE46FE1CA59";
shapes = (
{
closed = 1;
nodes = (
(432,1592,l),
(716,2038,l),
(716,2056,l),
(648,2056,l),
(384,1610,l),
(384,1592,l)
);
},
{
closed = 1;
nodes = (
(296,2056,l),
(296,2012,ls),
(296,1840,o),
(264,1745,o),
(134,1592,c),
(180,1570,l),
(322,1714,o),
(360,1823,o),
(360,2004,cs),
(360,2056,l)
);
}
);
width = 864;
},
{
anchors = (
{
name = _top;
pos = (498,1616);
}
);
associatedMasterId = "CD0E3B44-F66A-4791-B84C-A1128DC61275";
layerId = "6EE04FAB-C3A0-4061-955C-74521B5034C9";
shapes = (
{
closed = 1;
nodes = (
(698,1584,l),
(1016,2020,l),
(1016,2048,l),
(726,2048,l),
(570,1604,l),
(570,1584,l)
);
},
{
closed = 1;
nodes = (
(302,2048,l),
(302,1944,ls),
(302,1812,o),
(262,1720,o),
(190,1638,c),
(298,1552,l),
(458,1640,o),
(550,1774,o),
(550,1936,cs),
(550,2048,l)
);
}
);
width = 1205.00377;
},
{
anchors = (
{
name = _top;
pos = (506,1616);
}
);
layerId = "CD0E3B44-F66A-4791-B84C-A1128DC61275";
shapes = (
{
closed = 1;
nodes = (
(706,1584,l),
(1024,2020,l),
(1024,2048,l),
(734,2048,l),
(578,1604,l),
(578,1584,l)
);
},
{
closed = 1;
nodes = (
(310,2048,l),
(310,1944,ls),
(310,1812,o),
(270,1720,o),
(198,1638,c),
(306,1552,l),
(466,1640,o),
(558,1774,o),
(558,1936,cs),
(558,2048,l)
);
}
);
width = 1222;
}
);
unicode = 8142;
userData = {
interface.gridadjust.original = "{'width': 1078.0, 'leftMargin': 131, 'rightMargin': 121.0}";
"interface.width-adjustments" = (
-16
);
};
}
{
glyphname = undertie;
layers = (
{
layerId = "5C20EF92-B63D-42A8-8878-93C2863E0093";
shapes = (
{
closed = 1;
nodes = (
(1805,-680,o),
(2249,-524,o),
(2424,-324,c),
(2268,-160,l),
(2077,-240,o),
(1705,-344,o),
(1236,-344,cs),
(773,-344,o),
(421,-248,o),
(228,-160,c),
(52,-324,l),
(273,-536,o),
(669,-680,o),
(1236,-680,cs)
);
}
);
width = 2472;
},
{
layerId = "B1F27B51-9973-4381-9301-4FE46FE1CA59";
shapes = (
{
closed = 1;
nodes = (
(1450,-659,o),
(1742,-542,o),
(2004,-238,c),
(1954,-214,l),
(1720,-466,o),
(1440,-596,o),
(1056,-594,cs),
(672,-592,o),
(391,-465,o),
(158,-214,c),
(108,-238,l),
(370,-541,o),
(662,-657,o),
(1056,-658,cs)
);
}
);
width = 2114;
},
{
associatedMasterId = "CD0E3B44-F66A-4791-B84C-A1128DC61275";
layerId = "4DE8A56B-1DA2-45C8-B01C-5CDDE9BC6566";
shapes = (
{
closed = 1;
nodes = (
(1660,-664,o),
(1994,-482,o),
(2162,-270,c),
(2034,-160,l),
(1846,-280,o),
(1556,-386,o),
(1114,-386,cs),
(674,-386,o),
(408,-288,o),
(224,-160,c),
(70,-270,l),
(280,-496,o),
(570,-664,o),
(1114,-664,cs)
);
}
);
width = 2228.90566;
},
{
layerId = "CD0E3B44-F66A-4791-B84C-A1128DC61275";
shapes = (
{
closed = 1;
nodes = (
(1672,-664,o),
(2006,-482,o),
(2174,-270,c),
(2046,-160,l),
(1858,-280,o),
(1568,-386,o),
(1126,-386,cs),
(686,-386,o),
(420,-288,o),
(236,-160,c),
(82,-270,l),
(292,-496,o),
(582,-664,o),
(1126,-664,cs)
);
}
);
width = 2252;
}
);
unicode = 8255;
userData = {
interface.gridadjust.original = "{'width': 2138, 'leftMargin': 28, 'rightMargin': 27}";
"interface.width-adjustments" = (
-16
);
};
}
{
color = 1;
glyphname = four.sups;
kernLeft = four.sups;
kernRight = four.sups;
layers = (
{
layerId = "5C20EF92-B63D-42A8-8878-93C2863E0093";
shapes = (
{
closed = 1;
nodes = (
(1264,1204,l),
(1264,1500,l),
(440,1500,l),
(440,1512,l),
(728,1864,l),
(872,1864,l),
(872,2252,l),
(624,2252,l),
(72,1496,l),
(72,1204,l)
);
},
{
closed = 1;
nodes = (
(1088,1024,l),
(1088,2252,l),
(744,2252,l),
(744,1424,l),
(736,1292,l),
(736,1024,l)
);
}
);
userData = {
RMXScaler = {
height = 60;
verticalShift = 1024;
weight = -300;
width = 66.6;
};
};
width = 1328;
},
{
layerId = "B1F27B51-9973-4381-9301-4FE46FE1CA59";
shapes = (
{
closed = 1;
nodes = (
(964,1304,l),
(964,1364,l),
(180,1364,l),
(180,1368,l),
(724,2148,l),
(760,2148,l),
(760,2252,l),
(720,2252,l),
(100,1352,l),
(100,1304,l)
);
},
{
closed = 1;
nodes = (
(792,1024,l),
(792,2252,l),
(728,2252,l),
(728,1344,l),
(728,1320,l),
(728,1024,l)
);
}
);
userData = {
RMXScaler = {
height = 60;
verticalShift = 1024;
width = 66.6;
};
};
width = 1064;
},
{
associatedMasterId = "CD0E3B44-F66A-4791-B84C-A1128DC61275";
layerId = "98F7CF67-D1EC-4BC7-9197-96AE258EF8C5";
shapes = (
{
closed = 1;
nodes = (
(1100,1254,l),
(1100,1430,l),
(298,1430,l),
(298,1438,l),
(712,2008,l),
(806,2008,l),
(806,2252,l),
(654,2252,l),
(72,1426,l),
(72,1254,l)
);
},
{
closed = 1;
nodes = (
(932,1024,l),
(932,2252,l),
(720,2252,l),
(720,1382,l),
(720,1308,l),
(720,1024,l)
);
}
);
userData = {
RMXScaler = {
height = 60;
verticalShift = 1024;
weight = -50;
width = 66.6;
};
};
width = 1166.84528;
},
{
layerId = "CD0E3B44-F66A-4791-B84C-A1128DC61275";
shapes = (
{
closed = 1;
nodes = (
(1110,1254,l),
(1110,1430,l),
(308,1430,l),
(308,1438,l),
(722,2008,l),
(816,2008,l),
(816,2252,l),
(664,2252,l),
(82,1426,l),
(82,1254,l)
);
},
{
closed = 1;
nodes = (
(942,1024,l),
(942,2252,l),
(730,2252,l),
(730,1382,l),
(730,1308,l),
(730,1024,l)
);
}
);
userData = {
RMXScaler = {
height = 60;
verticalShift = 1024;
weight = -50;
width = 66.6;
};
};
width = 1188;
}
);
unicode = 8308;
userData = {
RMXScaler = {
source = four;
};
};
}
{
color = 1;
glyphname = plus.sups;
kernLeft = hyphen.sups;
kernRight = hyphen.sups;
layers = (
{
layerId = "5C20EF92-B63D-42A8-8878-93C2863E0093";
shapes = (
{
closed = 1;
nodes = (
(796,1072,l),
(796,2020,l),
(488,2020,l),
(488,1072,l)
);
},
{
closed = 1;
nodes = (
(1132,1392,l),
(1132,1700,l),
(148,1700,l),
(148,1392,l)
);
}
);
userData = {
RMXScaler = {
height = 63;
verticalShift = 1024;
weight = -300;
width = 66.6;
};
};
width = 1280;
},
{
layerId = "B1F27B51-9973-4381-9301-4FE46FE1CA59";
shapes = (
{
closed = 1;
nodes = (
(596,1156,l),
(596,1900,l),
(536,1900,l),
(536,1156,l)
);
},
{
closed = 1;
nodes = (
(956,1500,l),
(956,1560,l),
(172,1560,l),
(172,1500,l)
);
}
);
userData = {
RMXScaler = {
height = 63;
verticalShift = 1024;
width = 66.6;
};
};
width = 1128;
},
{
associatedMasterId = "CD0E3B44-F66A-4791-B84C-A1128DC61275";
layerId = "20B28930-EFA8-41A4-86A1-86AEBA89C62A";
shapes = (
{
closed = 1;
nodes = (
(682,1114,l),
(682,1962,l),
(496,1962,l),
(496,1114,l)
);
},
{
closed = 1;
nodes = (
(1030,1446,l),
(1030,1630,l),
(144,1630,l),
(144,1446,l)
);
}
);
userData = {
RMXScaler = {
height = 63;
verticalShift = 1024;
weight = -50;
width = 66.6;
};
};
width = 1173.4717;
},
{
layerId = "CD0E3B44-F66A-4791-B84C-A1128DC61275";
shapes = (
{
closed = 1;
nodes = (
(692,1114,l),
(692,1962,l),
(506,1962,l),
(506,1114,l)
);
},
{
closed = 1;
nodes = (
(1040,1446,l),
(1040,1630,l),
(154,1630,l),
(154,1446,l)
);
}
);
userData = {
RMXScaler = {
height = 63;
verticalShift = 1024;
weight = -50;
width = 66.6;
};
};
width = 1194;
}
);
unicode = 8314;
userData = {
RMXScaler = {
source = plus;
};
};
}
{
color = 1;
glyphname = parenleft.sups;
kernLeft = parenleft.sups;
kernRight = parenleft.sups;
layers = (
{
layerId = "5C20EF92-B63D-42A8-8878-93C2863E0093";
shapes = (
{
closed = 1;
nodes = (
(164,1216,o),
(260,944,o),
(460,724,c),
(804,724,l),
(664,856,o),
(544,1236,o),
(544,1564,cs),
(544,1888,o),
(664,2276,o),
(804,2404,c),
(460,2404,l),
(260,2184,o),
(164,1912,o),
(164,1564,cs)
);
}
);
userData = {
RMXScaler = {
height = 66.6;
verticalShift = 1024;
weight = -300;
width = 66.6;
};
};
width = 828;
},
{
layerId = "B1F27B51-9973-4381-9301-4FE46FE1CA59";
shapes = (
{
closed = 1;
nodes = (
(184,1312,o),
(256,1016,o),
(392,748,c),
(452,748,l),
(320,1004,o),
(248,1312,o),
(248,1600,cs),
(248,1892,o),
(320,2192,o),
(452,2452,c),
(392,2452,l),
(252,2176,o),
(184,1884,o),
(184,1600,cs)
);
}
);
userData = {
RMXScaler = {
height = 66.6;
verticalShift = 1024;
width = 66.6;
};
};
width = 544;
},
{
associatedMasterId = "CD0E3B44-F66A-4791-B84C-A1128DC61275";
layerId = "5CC646BA-67DF-4E9D-9BB7-23D6B5CBC78D";
shapes = (
{
closed = 1;
nodes = (
(156,1258,o),
(240,980,o),
(404,736,c),
(612,736,l),
(484,922,o),
(380,1260,o),
(380,1580,cs),
(380,1884,o),
(476,2226,o),
(612,2428,c),
(404,2428,l),
(240,2180,o),
(156,1904,o),
(156,1580,cs)
);
}
);
userData = {
RMXScaler = {
height = 66.6;
verticalShift = 1024;
weight = -50;
width = 66.6;
};
};
width = 651.23774;
},
{
layerId = "CD0E3B44-F66A-4791-B84C-A1128DC61275";
shapes = (
{
closed = 1;
nodes = (
(166,1258,o),
(250,980,o),
(414,736,c),
(622,736,l),
(494,922,o),
(390,1260,o),
(390,1580,cs),
(390,1884,o),
(486,2226,o),
(622,2428,c),
(414,2428,l),
(250,2180,o),
(166,1904,o),
(166,1580,cs)
);
}
);
userData = {
RMXScaler = {
height = 66.6;
verticalShift = 1024;
weight = -50;
width = 66.6;
};
};
width = 672;
}
);
unicode = 8317;
userData = {
RMXScaler = {
source = parenleft;
};
};
}
{
color = (204,240,242,1);
glyphname = tugrik;
layers = (
{
layerId = "5C20EF92-B63D-42A8-8878-93C2863E0093";
shapes = (
{
closed = 1;
nodes = (
(480,1020,l),
(480,816,l),
(1456,1200,l),
(1456,1412,l)
);
},
{
closed = 1;
nodes = (
(480,600,l),
(480,396,l),
(1456,780,l),
(1456,992,l)
);
},
{
ref = T;
}
);
width = 1932;
},
{
layerId = "B1F27B51-9973-4381-9301-4FE46FE1CA59";
shapes = (
{
closed = 1;
nodes = (
(344,1056,l),
(344,992,l),
(1320,1376,l),
(1320,1448,l)
);
},
{
closed = 1;
nodes = (
(344,628,l),
(344,564,l),
(1320,948,l),
(1320,1020,l)
);
},
{
alignment = -1;
ref = T;
}
);
width = 1664;
},
{
associatedMasterId = "CD0E3B44-F66A-4791-B84C-A1128DC61275";
layerId = "7B70331E-8362-41D4-88D3-E91396AE2D24";
shapes = (
{
closed = 1;
nodes = (
(386,1098,l),
(386,894,l),
(1362,1278,l),
(1362,1490,l)
);
},
{
closed = 1;
nodes = (
(386,678,l),
(386,474,l),
(1362,858,l),
(1362,1070,l)
);
},
{
alignment = -1;
ref = T;
}
);
width = 1747.43396;
},
{
layerId = "CD0E3B44-F66A-4791-B84C-A1128DC61275";
shapes = (
{
closed = 1;
nodes = (
(396,1098,l),
(396,894,l),
(1372,1278,l),
(1372,1490,l)
);
},
{
closed = 1;
nodes = (
(396,678,l),
(396,474,l),
(1372,858,l),
(1372,1070,l)
);
},
{
alignment = -1;
ref = T;
}
);
width = 1770;
}
);
metricLeft = T;
metricRight = T;
unicode = 8366;
userData = {
interface.gridadjust.original = "{'width': 1680, 'leftMargin': 128, 'rightMargin': 16}";
"interface.width-adjustments" = (
-16
);
};
}
{
color = (204,240,242,1);
glyphname = uni20B6;
layers = (
{
layerId = "5C20EF92-B63D-42A8-8878-93C2863E0093";
shapes = (
{
closed = 1;
nodes = (
(128,1488,l),
(128,1120,l),
(1876,1120,l),
(1876,1488,l)
);
},
{
closed = 1;
nodes = (
(1108,500,ls),
(1108,128,o),
(1256,-28,o),
(1620,-28,cs),
(1712,-28,o),
(1804,-20,o),
(1900,16,c),
(1900,392,l),
(1868,388,o),
(1836,388,o),
(1780,388,cs),
(1664,388,o),
(1628,420,o),
(1628,512,cs),
(1628,1868,l),
(1108,1868,l)
);
},
{
closed = 1;
nodes = (
(388,2048,l),
(388,0,l),
(940,0,l),
(940,2048,l)
);
}
);
width = 2032;
},
{
layerId = "B1F27B51-9973-4381-9301-4FE46FE1CA59";
shapes = (
{
closed = 1;
nodes = (
(32,1476,l),
(32,1412,l),
(1100,1412,l),
(1100,1476,l)
);
},
{
closed = 1;
nodes = (
(716,284,ls),
(716,90,o),
(821,-28,o),
(994,-28,cs),
(1031,-28,o),
(1070,-23,o),
(1102,-14,c),
(1102,52,l),
(1071,42,o),
(1027,36,o),
(992,36,cs),
(855,36,o),
(780,124,o),
(780,284,cs),
(780,1904,l),
(716,1904,l)
);
},
{
closed = 1;
nodes = (
(260,2048,l),
(260,0,l),
(324,0,l),
(324,2048,l)
);
}
);
width = 1150;
},
{
associatedMasterId = "CD0E3B44-F66A-4791-B84C-A1128DC61275";
layerId = "92F4247A-7045-4623-BD62-DDF40437E2DC";
shapes = (
{
closed = 1;
nodes = (
(80,1488,l),
(80,1280,l),
(1388,1280,l),
(1388,1488,l)
);
},
{
closed = 1;
nodes = (
(838,380,ls),
(838,160,o),
(920,-28,o),
(1190,-28,cs),
(1286,-28,o),
(1350,-12,o),
(1392,0,c),
(1392,224,l),
(1372,220,o),
(1316,208,o),
(1276,208,cs),
(1128,208,o),
(1116,288,o),
(1116,414,cs),
(1116,1844,l),
(838,1844,l)
);
},
{
closed = 1;
nodes = (
(298,2048,l),
(298,0,l),
(542,0,l),
(542,2048,l)
);
}
);
width = 1468.95094;
},
{
layerId = "CD0E3B44-F66A-4791-B84C-A1128DC61275";
shapes = (
{
closed = 1;
nodes = (
(90,1488,l),
(90,1280,l),
(1398,1280,l),
(1398,1488,l)
);
},
{
closed = 1;
nodes = (
(848,380,ls),
(848,160,o),
(930,-28,o),
(1200,-28,cs),
(1296,-28,o),
(1360,-12,o),
(1402,0,c),
(1402,224,l),
(1382,220,o),
(1326,208,o),
(1286,208,cs),
(1138,208,o),
(1126,288,o),
(1126,414,cs),
(1126,1844,l),
(848,1844,l)
);
},
{
closed = 1;
nodes = (
(308,2048,l),
(308,0,l),
(552,0,l),
(552,2048,l)
);
}
);
width = 1488;
}
);
unicode = 8374;
userData = {
interface.gridadjust.original = "{'width': 1397.0, 'leftMargin': 41, 'rightMargin': 55.0}";
"interface.width-adjustments" = (
-16
);
};
}
{
glyphname = lsquare;
layers = (
{
layerId = "5C20EF92-B63D-42A8-8878-93C2863E0093";
shapes = (
{
closed = 1;
nodes = (
(1036,480,o),
(980,596,o),
(980,756,cs),
(980,1384,l),
(980,1508,o),
(1020,1560,o),
(1068,1560,c),
(1112,1560,o),
(1160,1508,o),
(1160,1472,cs),
(1160,1412,l),
(1160,1140,o),
(868,872,o),
(172,872,c),
(172,616,l),
(1088,616,o),
(1604,1100,o),
(1604,1412,c),
(1604,1472,ls),
(1604,1792,o),
(1368,1988,o),
(1048,1988,c),
(664,1988,o),
(424,1724,o),
(424,1268,c),
(424,592,ls),
(424,216,o),
(700,-28,o),
(1288,-28,c),
(1288,480,l)
);
}
);
width = 1776;
},
{
layerId = "B1F27B51-9973-4381-9301-4FE46FE1CA59";
shapes = (
{
closed = 1;
nodes = (
(488,36,o),
(372,199,o),
(372,496,cs),
(372,1844,ls),
(372,2053,o),
(450,2168,o),
(592,2168,cs),
(733,2168,o),
(812,2053,o),
(812,1846,cs),
(812,1792,ls),
(812,1182,o),
(468,712,o),
(20,712,c),
(20,648,l),
(503,648,o),
(876,1147,o),
(876,1792,cs),
(876,1868,ls),
(876,2089,o),
(765,2232,o),
(594,2232,cs),
(421,2232,o),
(308,2090,o),
(308,1872,cs),
(308,492,ls),
(308,165,o),
(454,-28,o),
(700,-28,c),
(700,36,l)
);
}
);
width = 894;
},
{
associatedMasterId = "CD0E3B44-F66A-4791-B84C-A1128DC61275";
layerId = "70946537-EEBC-4951-A313-9B8985D97C81";
shapes = (
{
closed = 1;
nodes = (
(692,206,o),
(624,350,o),
(624,596,cs),
(624,1614,l),
(624,1808,o),
(668,1904,o),
(760,1904,c),
(822,1904,o),
(866,1840,o),
(866,1702,cs),
(866,1642,l),
(866,1316,o),
(630,832,o),
(66,832,c),
(66,576,l),
(756,576,o),
(1146,1178,o),
(1146,1642,c),
(1146,1702,ls),
(1146,1972,o),
(986,2136,o),
(758,2136,c),
(500,2136,o),
(342,1942,o),
(342,1612,c),
(342,592,ls),
(342,216,o),
(528,-28,o),
(916,-28,c),
(916,206,l)
);
}
);
width = 1212.95094;
},
{
layerId = "CD0E3B44-F66A-4791-B84C-A1128DC61275";
shapes = (
{
closed = 1;
nodes = (
(700,206,o),
(632,350,o),
(632,596,cs),
(632,1614,l),
(632,1808,o),
(676,1904,o),
(768,1904,c),
(830,1904,o),
(874,1840,o),
(874,1702,cs),
(874,1642,l),
(874,1316,o),
(638,832,o),
(74,832,c),
(74,576,l),
(764,576,o),
(1154,1178,o),
(1154,1642,c),
(1154,1702,ls),
(1154,1972,o),
(994,2136,o),
(766,2136,c),
(508,2136,o),
(350,1942,o),
(350,1612,c),
(350,592,ls),
(350,216,o),
(536,-28,o),
(924,-28,c),
(924,206,l)
);
}
);
width = 1228;
}
);
unicode = 8467;
userData = {
interface.gridadjust.original = "{'width': 1346, 'leftMargin': 147, 'rightMargin': 128}";
"interface.width-adjustments" = (
-16
);
};
}
{
glyphname = estimated;
layers = (
{
layerId = "5C20EF92-B63D-42A8-8878-93C2863E0093";
shapes = (
{
closed = 1;
nodes = (
(1371,156,o),
(1191,104,o),
(1012,104,cs),
(867,104,o),
(727,164,o),
(616,256,c),
(616,708,l),
(1728,708,l),
(1727,756,o),
(1727,768,o),
(1728,772,cs),
(1727,1200,o),
(1403,1516,o),
(1012,1516,cs),
(635,1516,o),
(255,1168,o),
(256,744,cs),
(255,320,o),
(595,-28,o),
(1012,-28,cs),
(1207,-28,o),
(1391,36,o),
(1544,128,c),
(1544,272,l)
);
},
{
closed = 1;
nodes = (
(1159,1388,o),
(1295,1328,o),
(1400,1232,c),
(1400,836,l),
(616,836,l),
(616,1220,l),
(731,1320,o),
(871,1388,o),
(1012,1388,c)
);
}
);
width = 1984;
},
{
layerId = "B1F27B51-9973-4381-9301-4FE46FE1CA59";
shapes = (
{
closed = 1;
nodes = (
(1149,156,o),
(981,104,o),
(816,104,cs),
(670,104,o),
(543,164,o),
(452,256,c),
(452,708,l),
(1472,708,l),
(1473,756,o),
(1473,768,o),
(1472,772,cs),
(1473,1200,o),
(1181,1516,o),
(816,1516,cs),
(464,1516,o),
(116,1168,o),
(116,744,cs),
(116,320,o),
(424,-28,o),
(816,-28,cs),
(985,-28,o),
(1156,30,o),
(1308,128,c),
(1308,272,l)
);
},
{
closed = 1;
nodes = (
(949,1388,o),
(1079,1328,o),
(1172,1232,c),
(1172,836,l),
(452,836,l),
(452,1220,l),
(547,1320,o),
(681,1388,o),
(816,1388,c)
);
}
);
width = 1588;
},
{
associatedMasterId = "CD0E3B44-F66A-4791-B84C-A1128DC61275";
layerId = "F4E0D9EF-0EA5-42E9-94BB-E5158B3E61DF";
shapes = (
{
closed = 1;
nodes = (
(1224,156,o),
(1050,104,o),
(878,104,cs),
(734,104,o),
(602,164,o),
(502,256,c),
(502,708,l),
(1560,708,l),
(1560,756,o),
(1560,768,o),
(1560,772,cs),
(1560,1200,o),
(1256,1516,o),
(878,1516,cs),
(518,1516,o),
(158,1168,o),
(158,744,cs),
(158,320,o),
(478,-28,o),
(878,-28,cs),
(1060,-28,o),
(1236,32,o),
(1388,128,c),
(1388,272,l)
);
},
{
closed = 1;
nodes = (
(1018,1388,o),
(1152,1328,o),
(1248,1232,c),
(1248,836,l),
(502,836,l),
(502,1220,l),
(606,1320,o),
(742,1388,o),
(878,1388,c)
);
}
);
width = 1717.49434;
},
{
layerId = "CD0E3B44-F66A-4791-B84C-A1128DC61275";
shapes = (
{
closed = 1;
nodes = (
(1232,156,o),
(1058,104,o),
(886,104,cs),
(742,104,o),
(610,164,o),
(510,256,c),
(510,708,l),
(1568,708,l),
(1568,756,o),
(1568,768,o),
(1568,772,cs),
(1568,1200,o),
(1264,1516,o),
(886,1516,cs),
(526,1516,o),
(166,1168,o),
(166,744,cs),
(166,320,o),
(486,-28,o),
(886,-28,cs),
(1068,-28,o),
(1244,32,o),
(1396,128,c),
(1396,272,l)
);
},
{
closed = 1;
nodes = (
(1026,1388,o),
(1160,1328,o),
(1256,1232,c),
(1256,836,l),
(510,836,l),
(510,1220,l),
(614,1320,o),
(750,1388,o),
(886,1388,c)
);
}
);
width = 1734;
}
);
unicode = 8494;
userData = {
interface.gridadjust.original = "{'width': 1794, 'leftMargin': 210, 'rightMargin': 182}";
"interface.width-adjustments" = (
-16
);
};
}
{
glyphname = uni2183;
layers = (
{
background = {
shapes = (
{
closed = 1;
nodes = (
(301,260,o),
(641,-28,o),
(1156,-28,cs),
(1721,-28,o),
(2049,344,o),
(2048,960,cs),
(2048,1044,ls),
(2049,1660,o),
(1697,2032,o),
(1164,2032,cs),
(597,2032,o),
(317,1704,o),
(276,1300,c),
(796,1300,l),
(805,1512,o),
(901,1616,o),
(1164,1616,cs),
(1437,1616,o),
(1533,1428,o),
(1532,1048,cs),
(1532,960,ls),
(1533,564,o),
(1453,388,o),
(1156,388,cs),
(941,388,o),
(805,472,o),
(800,692,c),
(280,692,l)
);
}
);
};
layerId = "5C20EF92-B63D-42A8-8878-93C2863E0093";
shapes = (
{
closed = 1;
nodes = (
(301,260,o),
(645,-28,o),
(1152,-28,cs),
(1725,-28,o),
(2048,344,o),
(2048,960,cs),
(2048,1088,ls),
(2048,1704,o),
(1707,2076,o),
(1146,2076,cs),
(607,2076,o),
(317,1748,o),
(276,1344,c),
(796,1344,l),
(805,1556,o),
(915,1660,o),
(1142,1660,cs),
(1451,1660,o),
(1532,1472,o),
(1532,1092,cs),
(1532,960,ls),
(1532,564,o),
(1457,388,o),
(1152,388,cs),
(945,388,o),
(805,472,o),
(800,692,c),
(280,692,l)
);
}
);
width = 2324;
},
{
background = {
shapes = (
{
closed = 1;
nodes = (
(47,234,o),
(272,-28,o),
(676,-28,cs),
(1139,-28,o),
(1424,303,o),
(1424,958,cs),
(1424,1044,l),
(1425,1703,o),
(1143,2032,o),
(664,2032,cs),
(275,2032,o),
(46,1771,o),
(20,1396,c),
(88,1396,l),
(111,1738,o),
(308,1968,o),
(664,1968,cs),
(1106,1968,o),
(1360,1668,o),
(1360,1044,cs),
(1360,960,ls),
(1360,336,o),
(1101,36,o),
(676,36,cs),
(310,36,o),
(112,266,o),
(88,608,c),
(20,608,l)
);
}
);
};
layerId = "B1F27B51-9973-4381-9301-4FE46FE1CA59";
shapes = (
{
closed = 1;
nodes = (
(15,234,o),
(238,-28,o),
(646,-28,cs),
(1105,-28,o),
(1392,303,o),
(1392,958,cs),
(1392,1088,ls),
(1392,1747,o),
(1103,2076,o),
(644,2076,cs),
(235,2076,o),
(14,1815,o),
(-12,1440,c),
(56,1440,l),
(79,1782,o),
(268,2012,o),
(640,2012,cs),
(1066,2012,o),
(1328,1712,o),
(1328,1088,cs),
(1328,960,ls),
(1328,336,o),
(1067,36,o),
(646,36,cs),
(276,36,o),
(80,266,o),
(56,608,c),
(-12,608,l)
);
}
);
width = 1380;
},
{
associatedMasterId = "CD0E3B44-F66A-4791-B84C-A1128DC61275";
layerId = "A90FDF86-18BF-4F1E-910F-6550C4611973";
shapes = (
{
closed = 1;
nodes = (
(132,264,o),
(374,-28,o),
(824,-28,cs),
(1338,-28,o),
(1638,340,o),
(1638,906,cs),
(1638,1140,ls),
(1638,1702,o),
(1336,2074,o),
(818,2074,cs),
(374,2074,o),
(128,1792,o),
(88,1400,c),
(370,1400,l),
(410,1676,o),
(528,1850,o),
(816,1850,cs),
(1184,1850,o),
(1360,1560,o),
(1360,1140,cs),
(1360,906,ls),
(1360,522,o),
(1224,196,o),
(824,196,cs),
(532,196,o),
(414,362,o),
(370,638,c),
(88,638,l)
);
}
);
width = 1725.83396;
},
{
layerId = "CD0E3B44-F66A-4791-B84C-A1128DC61275";
shapes = (
{
closed = 1;
nodes = (
(138,264,o),
(380,-28,o),
(830,-28,cs),
(1344,-28,o),
(1644,340,o),
(1644,906,cs),
(1644,1140,ls),
(1644,1702,o),
(1342,2074,o),
(824,2074,cs),
(380,2074,o),
(134,1792,o),
(94,1400,c),
(376,1400,l),
(416,1676,o),
(534,1850,o),
(822,1850,cs),
(1190,1850,o),
(1366,1560,o),
(1366,1140,cs),
(1366,906,ls),
(1366,522,o),
(1230,196,o),
(830,196,cs),
(538,196,o),
(420,362,o),
(376,638,c),
(94,638,l)
);
}
);
width = 1738;
}
);
unicode = 8579;
userData = {
interface.gridadjust.original = "{'width': 1827, 'leftMargin': 121, 'rightMargin': 160}";
"interface.width-adjustments" = (
-16
);
};
}
{
glyphname = upTipRightArrow;
layers = (
{
layerId = "B1F27B51-9973-4381-9301-4FE46FE1CA59";
shapes = (
{
closed = 1;
nodes = (
(2312,1618,l),
(1778,2112,l),
(1778,1124,l)
);
},
{
closed = 1;
nodes = (
(312,0,l),
(312,1650,l),
(248,1650,l),
(248,0,l)
);
},
{
closed = 1;
nodes = (
(1900,1586,l),
(1900,1650,l),
(254,1650,l),
(254,1586,l)
);
}
);
width = 2558;
},
{
layerId = "5C20EF92-B63D-42A8-8878-93C2863E0093";
shapes = (
{
closed = 1;
nodes = (
(2630,1378,l),
(1876,2112,l),
(1876,644,l)
);
},
{
closed = 1;
nodes = (
(688,0,l),
(688,1586,l),
(280,1586,l),
(280,0,l)
);
},
{
closed = 1;
nodes = (
(2124,1170,l),
(2124,1586,l),
(286,1586,l),
(286,1170,l)
);
}
);
width = 2908;
},
{
associatedMasterId = "CD0E3B44-F66A-4791-B84C-A1128DC61275";
layerId = "AF3EEA1D-C002-43AE-B5C3-76A73E0DB8EF";
shapes = (
{
closed = 1;
nodes = (
(2468,1514,l),
(1870,2112,l),
(1870,918,l)
);
},
{
closed = 1;
nodes = (
(468,0,l),
(468,1626,l),
(248,1626,l),
(248,0,l)
);
},
{
closed = 1;
nodes = (
(2054,1404,l),
(2054,1626,l),
(254,1626,l),
(254,1404,l)
);
}
);
width = 2713.67925;
},
{
layerId = "CD0E3B44-F66A-4791-B84C-A1128DC61275";
shapes = (
{
closed = 1;
nodes = (
(2478,1514,l),
(1880,2112,l),
(1880,918,l)
);
},
{
closed = 1;
nodes = (
(478,0,l),
(478,1626,l),
(258,1626,l),
(258,0,l)
);
},
{
closed = 1;
nodes = (
(2064,1404,l),
(2064,1626,l),
(264,1626,l),
(264,1404,l)
);
}
);
width = 2734;
}
);
metricLeft = downTipRightArrow;
metricRight = rightArrow;
note = "Mirror copy of carriagereturn";
unicode = 8625;
}
{
glyphname = ejectsymbol;
layers = (
{
layerId = "B1F27B51-9973-4381-9301-4FE46FE1CA59";
shapes = (
{
closed = 1;
nodes = (
(2210,548,l),
(2210,704,l),
(156,704,l),
(156,548,l)
);
},
{
closed = 1;
nodes = (
(2216,1024,l),
(1184,2078,l),
(152,1024,l)
);
}
);
width = 2368;
},
{
layerId = "5C20EF92-B63D-42A8-8878-93C2863E0093";
shapes = (
{
closed = 1;
nodes = (
(2242,280,l),
(2242,740,l),
(188,740,l),
(188,280,l)
);
},
{
closed = 1;
nodes = (
(2248,1024,l),
(1216,2078,l),
(184,1024,l)
);
}
);
width = 2432;
},
{
associatedMasterId = "CD0E3B44-F66A-4791-B84C-A1128DC61275";
layerId = "FB57CD21-7196-40FE-ADBB-372B2BA7B4A8";
shapes = (
{
closed = 1;
nodes = (
(2210,308,l),
(2210,704,l),
(156,704,l),
(156,308,l)
);
},
{
closed = 1;
nodes = (
(2216,1024,l),
(1184,2078,l),
(152,1024,l)
);
}
);
width = 2368.39245;
},
{
layerId = "CD0E3B44-F66A-4791-B84C-A1128DC61275";
shapes = (
{
closed = 1;
nodes = (
(2220,308,l),
(2220,704,l),
(166,704,l),
(166,308,l)
);
},
{
closed = 1;
nodes = (
(2226,1024,l),
(1194,2078,l),
(162,1024,l)
);
}
);
width = 2388;
}
);
unicode = 9167;
}
{
glyphname = diamondwhite;
layers = (
{
guides = (
{
pos = (388,768);
},
{
angle = 90;
pos = (1348,2072);
}
);
layerId = "5C20EF92-B63D-42A8-8878-93C2863E0093";
shapes = (
{
closed = 1;
nodes = (
(1512,2368,l),
(160,1024,l),
(1512,-320,l),
(2848,1024,l)
);
},
{
closed = 1;
nodes = (
(1510,246,l),
(728,1024,l),
(1510,1802,l),
(2284,1024,l)
);
}
);
width = 3008;
},
{
layerId = "B1F27B51-9973-4381-9301-4FE46FE1CA59";
shapes = (
{
closed = 1;
nodes = (
(1440,2368,l),
(88,1024,l),
(1440,-320,l),
(2776,1024,l)
);
},
{
closed = 1;
nodes = (
(1440,-228,l),
(180,1024,l),
(1440,2276,l),
(2688,1024,l)
);
}
);
width = 2864;
},
{
associatedMasterId = "CD0E3B44-F66A-4791-B84C-A1128DC61275";
layerId = "4A75444F-1FBE-45B4-9466-30B596E9F552";
shapes = (
{
closed = 1;
nodes = (
(1456,2368,l),
(104,1024,l),
(1456,-320,l),
(2792,1024,l)
);
},
{
closed = 1;
nodes = (
(1456,-4,l),
(424,1024,l),
(1456,2052,l),
(2476,1024,l)
);
}
);
width = 2897.56981;
},
{
layerId = "CD0E3B44-F66A-4791-B84C-A1128DC61275";
shapes = (
{
closed = 1;
nodes = (
(1466,2368,l),
(114,1024,l),
(1466,-320,l),
(2802,1024,l)
);
},
{
closed = 1;
nodes = (
(1466,-4,l),
(434,1024,l),
(1466,2052,l),
(2486,1024,l)
);
}
);
width = 2916;
}
);
metricWidth = diamondblack;
unicode = 9671;
userData = {
"interface.width-adjustments" = (
-16
);
};
}
{
glyphname = blackCircle;
kernLeft = C;
kernRight = D;
layers = (
{
layerId = "5C20EF92-B63D-42A8-8878-93C2863E0093";
shapes = (
{
pos = (116,0);
ref = u100001.small;
}
);
width = 2644;
},
{
layerId = "B1F27B51-9973-4381-9301-4FE46FE1CA59";
shapes = (
{
pos = (28,0);
ref = u100001.small;
}
);
width = 2468;
},
{
associatedMasterId = "CD0E3B44-F66A-4791-B84C-A1128DC61275";
layerId = "81EAC171-E99B-4227-8D51-4F7A13D481B8";
shapes = (
{
closed = 1;
nodes = (
(1842,-32,o),
(2314,442,o),
(2312,1024,cs),
(2310,1608,o),
(1842,2080,o),
(1256,2080,cs),
(676,2080,o),
(202,1608,o),
(200,1024,cs),
(198,442,o),
(676,-32,o),
(1256,-32,cs)
);
}
);
width = 2512.39245;
},
{
layerId = "CD0E3B44-F66A-4791-B84C-A1128DC61275";
shapes = (
{
pos = (56,0);
ref = u100001.small;
}
);
width = 2524;
}
);
metricLeft = whiteCircle;
metricRight = whiteCircle;
unicode = 9679;
}
{
color = 0;
glyphname = uni2E8E;
layers = (
{
layerId = "CD0E3B44-F66A-4791-B84C-A1128DC61275";
shapes = (
{
closed = 1;
nodes = (
(777,1977,l),
(777,1378,ls),
(777,910,o),
(715,352,o),
(92,-47,c),
(137,-82,o),
(204,-152,o),
(231,-196,c),
(900,235,o),
(970,850,o),
(970,1378,cs),
(970,1977,l)
);
},
{
closed = 1;
nodes = (
(1674,1982,l),
(1674,178,ls),
(1674,-81,o),
(1739,-152,o),
(1960,-152,cs),
(2008,-152,o),
(2262,-152,o),
(2311,-152,cs),
(2544,-152,o),
(2591,10,o),
(2613,499,c),
(2555,515,o),
(2474,552,o),
(2427,588,c),
(2414,142,o),
(2400,36,o),
(2298,36,cs),
(2240,36,o),
(2030,36,o),
(1986,36,cs),
(1890,36,o),
(1875,58,o),
(1875,176,cs),
(1875,1982,l)
);
},
{
closed = 1;
nodes = (
(164,2050,l),
(164,1859,l),
(2557,1859,l),
(2557,2050,l)
);
}
);
width = 2716;
},
{
layerId = "5C20EF92-B63D-42A8-8878-93C2863E0093";
shapes = (
{
closed = 1;
nodes = (
(687,1979,l),
(687,1325,ls),
(687,914,o),
(618,392,o),
(35,77,c),
(120,8,o),
(258,-147,o),
(310,-236,c),
(998,145,o),
(1084,797,o),
(1084,1325,cs),
(1084,1979,l)
);
},
{
closed = 1;
nodes = (
(1554,1982,l),
(1554,330,ls),
(1554,-77,o),
(1646,-206,o),
(1965,-206,cs),
(2022,-206,o),
(2172,-206,o),
(2231,-206,cs),
(2537,-206,o),
(2627,-7,o),
(2663,518,c),
(2550,546,o),
(2379,623,o),
(2292,690,c),
(2279,272,o),
(2265,171,o),
(2195,171,cs),
(2160,171,o),
(2061,171,o),
(2035,171,cs),
(1967,171,o),
(1965,188,o),
(1965,328,cs),
(1965,1982,l)
);
},
{
closed = 1;
nodes = (
(138,2137,l),
(138,1746,l),
(2588,1746,l),
(2588,2137,l)
);
}
);
width = 2716;
},
{
layerId = "B1F27B51-9973-4381-9301-4FE46FE1CA59";
shapes = (
{
closed = 1;
nodes = (
(835,1975,l),
(835,1414,ls),
(835,907,o),
(778,327,o),
(129,-129,c),
(147,-140,o),
(169,-154,o),
(178,-170,c),
(837,293,o),
(897,884,o),
(897,1414,cs),
(897,1975,l)
);
},
{
closed = 1;
nodes = (
(1752,1982,l),
(1752,81,ls),
(1752,-84,o),
(1799,-117,o),
(1958,-117,cs),
(2000,-117,o),
(2320,-117,o),
(2363,-117,cs),
(2550,-117,o),
(2569,20,o),
(2581,487,c),
(2558,494,o),
(2535,506,o),
(2514,522,c),
(2501,58,o),
(2487,-51,o),
(2365,-51,cs),
(2292,-51,o),
(2009,-51,o),
(1954,-51,cs),
(1839,-51,o),
(1817,-26,o),
(1817,78,cs),
(1817,1982,l)
);
},
{
closed = 1;
nodes = (
(181,1994,l),
(181,1933,l),
(2536,1933,l),
(2536,1994,l)
);
}
);
width = 2716;
}
);
note = cid10831;
unicode = (11918,20800);
}
{
color = 0;
glyphname = uni2E94;
layers = (
{
layerId = "CD0E3B44-F66A-4791-B84C-A1128DC61275";
shapes = (
{
closed = 1;
nodes = (
(141,147,l),
(141,-46,l),
(2577,-46,l),
(2577,147,l)
);
},
{
closed = 1;
nodes = (
(827,1811,l),
(827,1620,l),
(1985,1620,l),
(1985,1811,l)
);
},
{
closed = 1;
nodes = (
(673,909,l),
(673,719,l),
(1899,719,l),
(1899,909,l)
);
},
{
closed = 1;
nodes = (
(1920,1811,l),
(1873,1264,o),
(1778,500,o),
(1700,58,c),
(1913,58,l),
(1984,489,o),
(2073,1250,o),
(2127,1811,c)
);
},
{
closed = 1;
nodes = (
(818,2309,l),
(737,1762,o),
(594,988,o),
(487,550,c),
(700,538,l),
(798,968,o),
(938,1730,o),
(1024,2288,c)
);
}
);
width = 2716;
},
{
layerId = "5C20EF92-B63D-42A8-8878-93C2863E0093";
shapes = (
{
closed = 1;
nodes = (
(105,289,l),
(105,-105,l),
(2613,-105,l),
(2613,289,l)
);
},
{
closed = 1;
nodes = (
(853,1901,l),
(853,1512,l),
(1916,1512,l),
(1916,1901,l)
);
},
{
closed = 1;
nodes = (
(744,1061,l),
(744,674,l),
(1846,674,l),
(1846,1061,l)
);
},
{
closed = 1;
nodes = (
(1782,1901,l),
(1738,1304,o),
(1653,576,o),
(1561,99,c),
(2008,99,l),
(2078,560,o),
(2161,1290,o),
(2213,1901,c)
);
},
{
closed = 1;
nodes = (
(728,2359,l),
(652,1781,o),
(522,1055,o),
(404,599,c),
(844,574,l),
(940,1018,o),
(1062,1725,o),
(1154,2319,c)
);
}
);
width = 2716;
},
{
layerId = "B1F27B51-9973-4381-9301-4FE46FE1CA59";
shapes = (
{
closed = 1;
nodes = (
(163,55,l),
(163,-8,l),
(2555,-8,l),
(2555,55,l)
);
},
{
closed = 1;
nodes = (
(810,1753,l),
(810,1690,l),
(2029,1690,l),
(2029,1753,l)
);
},
{
closed = 1;
nodes = (
(627,811,l),
(627,748,l),
(1935,748,l),
(1935,811,l)
);
},
{
closed = 1;
nodes = (
(2009,1753,l),
(1960,1239,o),
(1859,450,o),
(1790,33,c),
(1853,33,l),
(1923,443,o),
(2016,1225,o),
(2073,1753,c)
);
},
{
closed = 1;
nodes = (
(877,2278,l),
(791,1750,o),
(641,945,o),
(539,518,c),
(608,516,l),
(706,936,o),
(856,1733,o),
(940,2267,c)
);
}
);
width = 2716;
}
);
note = cid17291;
unicode = (11924,24401);
}
{
color = 0;
glyphname = uni2ED8;
layers = (
{
layerId = "CD0E3B44-F66A-4791-B84C-A1128DC61275";
shapes = (
{
closed = 1;
nodes = (
(546,1099,l),
(546,-190,l),
(739,-190,l),
(739,947,l),
(2062,947,l),
(2062,1099,l)
);
},
{
closed = 1;
nodes = (
(1997,1099,l),
(1997,34,ls),
(1997,-7,o),
(1983,-17,o),
(1937,-20,cs),
(1894,-23,o),
(1732,-23,o),
(1563,-17,c),
(1589,-64,o),
(1618,-130,o),
(1629,-180,c),
(1852,-180,o),
(1995,-180,o),
(2082,-153,cs),
(2165,-127,o),
(2192,-77,o),
(2192,32,cs),
(2192,1099,l)
);
},
{
closed = 1;
nodes = (
(663,748,l),
(663,607,l),
(2063,607,l),
(2063,748,l)
);
},
{
closed = 1;
nodes = (
(161,1431,l),
(161,1273,l),
(2554,1273,l),
(2554,1431,l)
);
},
{
closed = 1;
nodes = (
(338,2125,l),
(338,1970,l),
(2408,1970,l),
(2408,2125,l)
);
},
{
closed = 1;
nodes = (
(430,1784,l),
(430,1632,l),
(2293,1632,l),
(2293,1784,l)
);
},
{
closed = 1;
nodes = (
(663,404,l),
(663,261,l),
(2064,261,l),
(2064,404,l)
);
},
{
closed = 1;
nodes = (
(1253,2309,l),
(1253,1334,l),
(1451,1334,l),
(1451,2309,l)
);
}
);
width = 2716;
},
{
layerId = "5C20EF92-B63D-42A8-8878-93C2863E0093";
shapes = (
{
closed = 1;
nodes = (
(477,1118,l),
(477,-230,l),
(874,-230,l),
(874,836,l),
(1958,836,l),
(1958,1118,l)
);
},
{
closed = 1;
nodes = (
(1845,1118,l),
(1845,143,ls),
(1845,100,o),
(1825,91,o),
(1780,88,cs),
(1742,86,o),
(1556,86,o),
(1438,96,c),
(1486,8,o),
(1538,-121,o),
(1558,-220,c),
(1776,-220,o),
(1945,-220,o),
(2078,-172,cs),
(2205,-127,o),
(2245,-46,o),
(2245,135,cs),
(2245,1118,l)
);
},
{
closed = 1;
nodes = (
(727,762,l),
(727,512,l),
(1949,512,l),
(1949,762,l)
);
},
{
closed = 1;
nodes = (
(144,1502,l),
(144,1205,l),
(2571,1205,l),
(2571,1502,l)
);
},
{
closed = 1;
nodes = (
(303,2238,l),
(303,1948,l),
(2431,1948,l),
(2431,2238,l)
);
},
{
closed = 1;
nodes = (
(417,1864,l),
(417,1582,l),
(2310,1582,l),
(2310,1864,l)
);
},
{
closed = 1;
nodes = (
(727,436,l),
(727,181,l),
(1961,181,l),
(1961,436,l)
);
},
{
closed = 1;
nodes = (
(1145,2350,l),
(1145,1303,l),
(1549,1303,l),
(1549,2350,l)
);
}
);
width = 2716;
},
{
layerId = "B1F27B51-9973-4381-9301-4FE46FE1CA59";
shapes = (
{
closed = 1;
nodes = (
(590,1087,l),
(590,-165,l),
(652,-165,l),
(652,1019,l),
(2129,1019,l),
(2129,1087,l)
);
},
{
closed = 1;
nodes = (
(2094,1087,l),
(2094,-35,ls),
(2094,-76,o),
(2085,-87,o),
(2037,-90,cs),
(1991,-92,o),
(1844,-92,o),
(1644,-91,c),
(1657,-111,o),
(1671,-137,o),
(1675,-154,c),
(1901,-154,o),
(2027,-154,o),
(2085,-141,cs),
(2139,-127,o),
(2156,-97,o),
(2156,-35,cs),
(2156,1087,l)
);
},
{
closed = 1;
nodes = (
(623,741,l),
(623,668,l),
(2136,668,l),
(2136,741,l)
);
},
{
closed = 1;
nodes = (
(172,1385,l),
(172,1318,l),
(2543,1318,l),
(2543,1385,l)
);
},
{
closed = 1;
nodes = (
(361,2052,l),
(361,1984,l),
(2393,1984,l),
(2393,2052,l)
);
},
{
closed = 1;
nodes = (
(438,1732,l),
(438,1663,l),
(2283,1663,l),
(2283,1732,l)
);
},
{
closed = 1;
nodes = (
(623,383,l),
(623,313,l),
(2132,313,l),
(2132,383,l)
);
},
{
closed = 1;
nodes = (
(1323,2284,l),
(1323,1355,l),
(1388,1355,l),
(1388,2284,l)
);
}
);
width = 2716;
}
);
note = cid43650;
unicode = (11992,38738);
}
{
color = 0;
glyphname = uni2EEF;
layers = (
{
layerId = "CD0E3B44-F66A-4791-B84C-A1128DC61275";
shapes = (
{
closed = 1;
nodes = (
(310,2096,l),
(310,1931,l),
(2414,1931,l),
(2414,2096,l)
);
},
{
closed = 1;
nodes = (
(548,807,l),
(548,662,l),
(2167,662,l),
(2167,807,l)
);
},
{
closed = 1;
nodes = (
(130,1576,l),
(130,1406,l),
(2588,1406,l),
(2588,1576,l)
);
},
{
closed = 1;
nodes = (
(1248,2309,l),
(1248,1999,l),
(1453,1999,l),
(1453,2309,l)
);
},
{
closed = 1;
nodes = (
(1835,1932,l),
(1795,1838,o),
(1723,1694,o),
(1667,1604,c),
(1852,1566,l),
(1910,1648,o),
(1979,1770,o),
(2042,1891,c)
);
},
{
closed = 1;
nodes = (
(692,1894,l),
(760,1793,o),
(822,1653,o),
(835,1559,c),
(1030,1612,l),
(1009,1703,o),
(948,1841,o),
(871,1936,c)
);
},
{
closed = 1;
nodes = (
(548,1220,l),
(548,1063,l),
(2093,1063,l),
(2093,398,l),
(548,398,l),
(548,240,l),
(2294,240,l),
(2294,1220,l)
);
},
{
closed = 1;
nodes = (
(1253,1143,l),
(1253,97,ls),
(1253,-130,o),
(1342,-185,o),
(1643,-185,cs),
(1707,-185,o),
(2203,-185,o),
(2273,-185,cs),
(2528,-185,o),
(2588,-98,o),
(2616,217,c),
(2563,230,o),
(2487,253,o),
(2440,285,c),
(2426,25,o),
(2399,-25,o),
(2260,-25,cs),
(2153,-25,o),
(1733,-25,o),
(1653,-25,cs),
(1481,-25,o),
(1451,-3,o),
(1451,97,cs),
(1451,1143,l)
);
},
{
closed = 1;
nodes = (
(443,1220,l),
(443,126,l),
(638,126,l),
(638,1220,l)
);
}
);
width = 2716;
},
{
layerId = "5C20EF92-B63D-42A8-8878-93C2863E0093";
shapes = (
{
closed = 1;
nodes = (
(279,2190,l),
(279,1872,l),
(2459,1872,l),
(2459,2190,l)
);
},
{
closed = 1;
nodes = (
(620,878,l),
(620,622,l),
(2087,622,l),
(2087,878,l)
);
},
{
closed = 1;
nodes = (
(122,1698,l),
(122,1365,l),
(2597,1365,l),
(2597,1698,l)
);
},
{
closed = 1;
nodes = (
(1134,2350,l),
(1134,1999,l),
(1560,1999,l),
(1560,2350,l)
);
},
{
closed = 1;
nodes = (
(1659,1918,l),
(1642,1857,o),
(1610,1770,o),
(1587,1699,c),
(1991,1651,l),
(2023,1708,o),
(2050,1770,o),
(2106,1874,c)
);
},
{
closed = 1;
nodes = (
(639,1873,l),
(681,1793,o),
(715,1684,o),
(719,1612,c),
(1120,1707,l),
(1107,1771,o),
(1069,1873,o),
(1017,1941,c)
);
},
{
closed = 1;
nodes = (
(617,1277,l),
(617,983,l),
(1950,983,l),
(1950,507,l),
(617,507,l),
(617,214,l),
(2365,214,l),
(2365,1277,l)
);
},
{
closed = 1;
nodes = (
(1149,1084,l),
(1149,192,ls),
(1149,-138,o),
(1270,-239,o),
(1688,-239,cs),
(1774,-239,o),
(2106,-239,o),
(2197,-239,cs),
(2523,-239,o),
(2629,-143,o),
(2669,163,c),
(2573,190,o),
(2421,235,o),
(2333,290,c),
(2313,101,o),
(2282,65,o),
(2159,65,cs),
(2078,65,o),
(1805,65,o),
(1735,65,cs),
(1580,65,o),
(1553,82,o),
(1553,192,cs),
(1553,1084,l)
);
},
{
closed = 1;
nodes = (
(383,1277,l),
(383,112,l),
(784,112,l),
(784,1277,l)
);
}
);
width = 2716;
},
{
layerId = "B1F27B51-9973-4381-9301-4FE46FE1CA59";
shapes = (
{
closed = 1;
nodes = (
(331,2035,l),
(331,1968,l),
(2385,1968,l),
(2385,2035,l)
);
},
{
closed = 1;
nodes = (
(503,761,l),
(503,688,l),
(2219,688,l),
(2219,761,l)
);
},
{
closed = 1;
nodes = (
(137,1497,l),
(137,1431,l),
(2581,1431,l),
(2581,1497,l)
);
},
{
closed = 1;
nodes = (
(1321,2284,l),
(1321,1999,l),
(1385,1999,l),
(1385,2284,l)
);
},
{
closed = 1;
nodes = (
(1947,1940,l),
(1894,1826,o),
(1796,1645,o),
(1719,1543,c),
(1762,1512,l),
(1837,1611,o),
(1933,1770,o),
(2002,1902,c)
);
},
{
closed = 1;
nodes = (
(727,1908,l),
(813,1793,o),
(891,1633,o),
(910,1525,c),
(972,1551,l),
(944,1659,o),
(870,1819,o),
(775,1933,c)
);
},
{
closed = 1;
nodes = (
(504,1183,l),
(504,1115,l),
(2186,1115,l),
(2186,328,l),
(504,328,l),
(504,257,l),
(2248,257,l),
(2248,1183,l)
);
},
{
closed = 1;
nodes = (
(1320,1181,l),
(1320,36,ls),
(1320,-123,o),
(1388,-150,o),
(1614,-150,cs),
(1664,-150,o),
(2266,-150,o),
(2322,-150,cs),
(2530,-150,o),
(2563,-69,o),
(2580,253,c),
(2557,255,o),
(2530,266,o),
(2509,283,c),
(2499,-25,o),
(2475,-83,o),
(2327,-83,cs),
(2203,-83,o),
(1686,-83,o),
(1600,-83,cs),
(1417,-83,o),
(1385,-58,o),
(1385,36,cs),
(1385,1181,l)
);
},
{
closed = 1;
nodes = (
(480,1183,l),
(480,134,l),
(542,134,l),
(542,1183,l)
);
}
);
width = 2716;
}
);
note = cid29645;
unicode = (12015,31452);
}
{
color = 0;
glyphname = uni2F01;
layers = (
{
layerId = "CD0E3B44-F66A-4791-B84C-A1128DC61275";
shapes = (
{
closed = 1;
nodes = (
(1248,2307,l),
(1248,-185,l),
(1459,-185,l),
(1459,2307,l)
);
}
);
width = 2716;
},
{
layerId = "5C20EF92-B63D-42A8-8878-93C2863E0093";
shapes = (
{
closed = 1;
nodes = (
(1134,2352,l),
(1134,-230,l),
(1575,-230,l),
(1575,2352,l)
);
}
);
width = 2716;
},
{
layerId = "B1F27B51-9973-4381-9301-4FE46FE1CA59";
shapes = (
{
closed = 1;
nodes = (
(1321,2278,l),
(1321,-156,l),
(1384,-156,l),
(1384,2278,l)
);
}
);
width = 2716;
}
);
note = cid09536;
unicode = (12033,20008);
}
{
color = 0;
glyphname = uni2F0A;
layers = (
{
layerId = "CD0E3B44-F66A-4791-B84C-A1128DC61275";
shapes = (
{
closed = 1;
nodes = (
(619,2143,l),
(619,1945,l),
(1388,1945,l),
(1388,2143,l)
);
},
{
closed = 1;
nodes = (
(1288,2143,l),
(1288,1635,o),
(1375,482,o),
(2465,-177,c),
(2498,-127,o),
(2576,-47,o),
(2623,-11,c),
(1548,628,o),
(1486,1661,o),
(1486,2143,c)
);
},
{
closed = 1;
nodes = (
(1212,1615,l),
(1044,843,o),
(704,294,o),
(99,-23,c),
(152,-61,o),
(243,-140,o),
(277,-180,c),
(878,175,o),
(1237,747,o),
(1433,1575,c)
);
}
);
width = 2716;
},
{
layerId = "5C20EF92-B63D-42A8-8878-93C2863E0093";
shapes = (
{
closed = 1;
nodes = (
(628,2206,l),
(628,1801,l),
(1397,1801,l),
(1397,2206,l)
);
},
{
closed = 1;
nodes = (
(1203,2206,l),
(1203,1628,o),
(1338,381,o),
(2345,-222,c),
(2408,-118,o),
(2568,57,o),
(2663,132,c),
(1696,694,o),
(1611,1674,o),
(1611,2206,c)
);
},
{
closed = 1;
nodes = (
(1060,1574,l),
(924,883,o),
(606,370,o),
(59,98,c),
(161,25,o),
(352,-140,o),
(419,-225,c),
(968,113,o),
(1329,702,o),
(1518,1496,c)
);
}
);
width = 2716;
},
{
layerId = "B1F27B51-9973-4381-9301-4FE46FE1CA59";
shapes = (
{
closed = 1;
nodes = (
(612,2102,l),
(612,2038,l),
(1381,2038,l),
(1381,2102,l)
);
},
{
closed = 1;
nodes = (
(1343,2102,l),
(1343,1641,o),
(1399,549,o),
(2543,-148,c),
(2557,-134,o),
(2583,-114,o),
(2598,-103,c),
(1451,584,o),
(1404,1653,o),
(1404,2102,c)
);
},
{
closed = 1;
nodes = (
(1310,1640,l),
(1122,818,o),
(769,244,o),
(125,-101,c),
(145,-115,o),
(173,-140,o),
(185,-151,c),
(820,214,o),
(1177,776,o),
(1378,1628,c)
);
}
);
width = 2716;
}
);
note = cid10892;
unicode = (12042,20837);
}
{
color = 0;
glyphname = uni2F14;
layers = (
{
layerId = "CD0E3B44-F66A-4791-B84C-A1128DC61275";
shapes = (
{
closed = 1;
nodes = (
(524,2234,l),
(524,386,ls),
(524,25,o),
(648,-65,o),
(1061,-65,cs),
(1150,-65,o),
(1883,-65,o),
(1983,-65,cs),
(2421,-65,o),
(2503,121,o),
(2548,673,c),
(2492,686,o),
(2403,727,o),
(2348,766,c),
(2308,246,o),
(2267,132,o),
(1984,132,cs),
(1824,132,o),
(1183,132,o),
(1053,132,cs),
(786,132,o),
(732,177,o),
(732,375,cs),
(732,2234,l)
);
},
{
closed = 1;
nodes = (
(2208,1875,l),
(1824,1646,o),
(1187,1366,o),
(615,1165,c),
(646,1121,o),
(687,1048,o),
(698,993,c),
(1278,1198,o),
(1915,1451,o),
(2355,1690,c)
);
}
);
width = 2716;
},
{
layerId = "5C20EF92-B63D-42A8-8878-93C2863E0093";
shapes = (
{
closed = 1;
nodes = (
(448,2266,l),
(448,529,ls),
(448,29,o),
(603,-106,o),
(1133,-106,cs),
(1249,-106,o),
(1690,-106,o),
(1821,-106,cs),
(2367,-106,o),
(2513,138,o),
(2565,842,c),
(2456,866,o),
(2259,956,o),
(2150,1029,c),
(2102,407,o),
(2064,307,o),
(1795,307,cs),
(1694,307,o),
(1266,307,o),
(1148,307,cs),
(907,307,o),
(886,319,o),
(886,519,cs),
(886,2266,l)
);
},
{
closed = 1;
nodes = (
(2181,2027,l),
(1761,1781,o),
(1196,1497,o),
(646,1311,c),
(708,1224,o),
(794,1066,o),
(819,948,c),
(1373,1138,o),
(1965,1375,o),
(2468,1628,c)
);
}
);
width = 2716;
},
{
layerId = "B1F27B51-9973-4381-9301-4FE46FE1CA59";
shapes = (
{
closed = 1;
nodes = (
(574,2213,l),
(574,293,ls),
(574,22,o),
(677,-40,o),
(1015,-40,cs),
(1086,-40,o),
(2009,-40,o),
(2088,-40,cs),
(2456,-40,o),
(2497,111,o),
(2538,562,c),
(2514,570,o),
(2496,579,o),
(2476,596,c),
(2441,142,o),
(2397,19,o),
(2106,19,cs),
(1908,19,o),
(1131,19,o),
(992,19,cs),
(708,19,o),
(634,85,o),
(634,283,cs),
(634,2213,l)
);
},
{
closed = 1;
nodes = (
(2226,1778,l),
(1865,1558,o),
(1180,1283,o),
(594,1069,c),
(607,1053,o),
(619,1035,o),
(621,1022,c),
(1217,1235,o),
(1883,1500,o),
(2282,1729,c)
);
}
);
width = 2716;
}
);
note = cid11561;
unicode = (12052,21269);
}
{
color = 0;
glyphname = uni2F16;
layers = (
{
layerId = "CD0E3B44-F66A-4791-B84C-A1128DC61275";
shapes = (
{
closed = 1;
nodes = (
(162,2010,l),
(162,1813,l),
(2564,1813,l),
(2564,2010,l)
);
},
{
closed = 1;
nodes = (
(440,1920,l),
(440,447,ls),
(440,89,o),
(609,-32,o),
(989,-32,cs),
(1083,-32,o),
(1887,-32,o),
(2058,-32,cs),
(2248,-32,o),
(2438,-27,o),
(2507,-7,c),
(2496,40,o),
(2481,133,o),
(2475,191,c),
(2381,172,o),
(2195,164,o),
(2061,164,cs),
(1890,164,o),
(1124,164,o),
(968,164,cs),
(724,164,o),
(643,240,o),
(643,435,cs),
(643,1920,l)
);
}
);
width = 2716;
},
{
layerId = "5C20EF92-B63D-42A8-8878-93C2863E0093";
shapes = (
{
closed = 1;
nodes = (
(113,2127,l),
(113,1723,l),
(2609,1723,l),
(2609,2127,l)
);
},
{
closed = 1;
nodes = (
(360,1930,l),
(360,571,ls),
(360,40,o),
(578,-114,o),
(1098,-114,cs),
(1221,-114,o),
(1816,-114,o),
(1978,-114,cs),
(2189,-114,o),
(2448,-107,o),
(2557,-74,c),
(2536,27,o),
(2512,213,o),
(2506,321,c),
(2381,297,o),
(2173,285,o),
(1992,285,cs),
(1814,285,o),
(1193,285,o),
(1058,285,cs),
(826,285,o),
(783,354,o),
(783,547,cs),
(783,1930,l)
);
}
);
width = 2716;
},
{
layerId = "B1F27B51-9973-4381-9301-4FE46FE1CA59";
shapes = (
{
closed = 1;
nodes = (
(194,1935,l),
(194,1871,l),
(2535,1871,l),
(2535,1935,l)
);
},
{
closed = 1;
nodes = (
(492,1914,l),
(492,365,ls),
(492,121,o),
(630,21,o),
(920,21,cs),
(994,21,o),
(1933,21,o),
(2110,21,cs),
(2286,21,o),
(2432,26,o),
(2475,36,c),
(2470,47,o),
(2460,81,o),
(2454,107,c),
(2381,90,o),
(2209,87,o),
(2105,87,cs),
(1940,87,o),
(1080,87,o),
(910,87,cs),
(657,87,o),
(553,167,o),
(553,363,cs),
(553,1914,l)
);
}
);
width = 2716;
}
);
note = cid11628;
unicode = (12054,21304);
}
{
color = 0;
glyphname = uni2F20;
layers = (
{
layerId = "CD0E3B44-F66A-4791-B84C-A1128DC61275";
shapes = (
{
closed = 1;
nodes = (
(297,162,l),
(297,-32,l),
(2431,-32,l),
(2431,162,l)
);
},
{
closed = 1;
nodes = (
(144,1443,l),
(144,1249,l),
(2577,1249,l),
(2577,1443,l)
);
},
{
closed = 1;
nodes = (
(1248,2301,l),
(1248,15,l),
(1456,15,l),
(1456,2301,l)
);
}
);
width = 2716;
},
{
layerId = "5C20EF92-B63D-42A8-8878-93C2863E0093";
shapes = (
{
closed = 1;
nodes = (
(266,275,l),
(266,-119,l),
(2467,-119,l),
(2467,275,l)
);
},
{
closed = 1;
nodes = (
(117,1568,l),
(117,1172,l),
(2613,1172,l),
(2613,1568,l)
);
},
{
closed = 1;
nodes = (
(1134,2351,l),
(1134,2,l),
(1568,2,l),
(1568,2351,l)
);
}
);
width = 2716;
},
{
layerId = "B1F27B51-9973-4381-9301-4FE46FE1CA59";
shapes = (
{
closed = 1;
nodes = (
(318,88,l),
(318,24,l),
(2408,24,l),
(2408,88,l)
);
},
{
closed = 1;
nodes = (
(162,1362,l),
(162,1300,l),
(2555,1300,l),
(2555,1362,l)
);
},
{
closed = 1;
nodes = (
(1321,2269,l),
(1321,23,l),
(1384,23,l),
(1384,2269,l)
);
}
);
width = 2716;
}
);
note = cid13974;
unicode = (12064,22763);
}
{
color = 0;
glyphname = uni2F23;
layers = (
{
layerId = "CD0E3B44-F66A-4791-B84C-A1128DC61275";
shapes = (
{
closed = 1;
nodes = (
(1221,2312,l),
(1011,1811,o),
(647,1378,o),
(214,1114,c),
(263,1078,o),
(352,1005,o),
(385,966,c),
(811,1254,o),
(1191,1711,o),
(1426,2252,c)
);
},
{
closed = 1;
nodes = (
(856,1151,l),
(1114,1001,o),
(1429,765,o),
(1579,608,c),
(1728,750,l),
(1571,912,o),
(1252,1133,o),
(995,1281,c)
);
},
{
closed = 1;
nodes = (
(2204,1874,l),
(2204,1839,l),
(1947,815,o),
(1178,214,o),
(338,-12,c),
(380,-56,o),
(431,-141,o),
(458,-198,c),
(1344,69,o),
(2131,682,o),
(2420,1823,c),
(2277,1886,l),
(2240,1874,l)
);
},
{
closed = 1;
nodes = (
(1062,1874,l),
(1062,1682,l),
(2251,1682,l),
(2251,1874,l)
);
}
);
width = 2716;
},
{
layerId = "5C20EF92-B63D-42A8-8878-93C2863E0093";
shapes = (
{
closed = 1;
nodes = (
(1099,2357,l),
(912,1842,o),
(548,1409,o),
(98,1162,c),
(197,1088,o),
(378,934,o),
(447,849,c),
(896,1140,o),
(1293,1649,o),
(1533,2233,c)
);
},
{
closed = 1;
nodes = (
(829,1037,l),
(1031,915,o),
(1296,712,o),
(1409,572,c),
(1714,862,l),
(1590,1010,o),
(1315,1192,o),
(1112,1307,c)
);
},
{
closed = 1;
nodes = (
(2020,1910,l),
(2020,1839,l),
(1817,950,o),
(1174,379,o),
(298,140,c),
(387,51,o),
(493,-127,o),
(550,-248,c),
(1528,73,o),
(2207,682,o),
(2473,1796,c),
(2166,1931,l),
(2092,1910,l)
);
},
{
closed = 1;
nodes = (
(1048,1910,l),
(1048,1517,l),
(2112,1517,l),
(2112,1910,l)
);
}
);
width = 2716;
},
{
layerId = "B1F27B51-9973-4381-9301-4FE46FE1CA59";
shapes = (
{
closed = 1;
nodes = (
(1300,2283,l),
(1075,1790,o),
(712,1358,o),
(289,1083,c),
(307,1072,o),
(335,1051,o),
(346,1042,c),
(757,1327,o),
(1124,1751,o),
(1358,2264,c)
);
},
{
closed = 1;
nodes = (
(874,1224,l),
(1166,1055,o),
(1514,801,o),
(1689,630,c),
(1736,678,l),
(1559,847,o),
(1211,1095,o),
(919,1264,c)
);
},
{
closed = 1;
nodes = (
(2323,1852,l),
(2323,1839,l),
(2031,728,o),
(1181,107,o),
(364,-109,c),
(374,-124,o),
(392,-150,o),
(398,-167,c),
(1225,66,o),
(2081,682,o),
(2384,1841,c),
(2349,1857,l),
(2336,1852,l)
);
},
{
closed = 1;
nodes = (
(1071,1852,l),
(1071,1789,l),
(2341,1789,l),
(2341,1852,l)
);
}
);
width = 2716;
}
);
note = cid14039;
unicode = (12067,22805);
}
{
color = 0;
glyphname = uni2F24;
layers = (
{
layerId = "CD0E3B44-F66A-4791-B84C-A1128DC61275";
shapes = (
{
closed = 1;
nodes = (
(170,1527,l),
(170,1326,l),
(2557,1326,l),
(2557,1527,l)
);
},
{
closed = 1;
nodes = (
(1295,1399,l),
(1495,671,o),
(1867,99,o),
(2453,-180,c),
(2487,-122,o),
(2549,-42,o),
(2599,2,c),
(2038,239,o),
(1667,787,o),
(1487,1446,c)
);
},
{
closed = 1;
nodes = (
(1257,2307,l),
(1252,1663,o),
(1274,481,o),
(118,-18,c),
(172,-61,o),
(235,-131,o),
(267,-180,c),
(1451,361,o),
(1460,1603,o),
(1468,2307,c)
);
}
);
width = 2716;
},
{
layerId = "5C20EF92-B63D-42A8-8878-93C2863E0093";
shapes = (
{
closed = 1;
nodes = (
(143,1651,l),
(143,1236,l),
(2578,1236,l),
(2578,1651,l)
);
},
{
closed = 1;
nodes = (
(1178,1392,l),
(1384,635,o),
(1705,80,o),
(2349,-220,c),
(2416,-99,o),
(2544,72,o),
(2644,161,c),
(2064,388,o),
(1733,882,o),
(1577,1482,c)
);
},
{
closed = 1;
nodes = (
(1122,2352,l),
(1113,1571,o),
(1179,616,o),
(92,125,c),
(207,32,o),
(330,-109,o),
(392,-215,c),
(1541,357,o),
(1550,1454,o),
(1563,2352,c)
);
}
);
width = 2716;
},
{
layerId = "B1F27B51-9973-4381-9301-4FE46FE1CA59";
shapes = (
{
closed = 1;
nodes = (
(187,1445,l),
(187,1384,l),
(2543,1384,l),
(2543,1445,l)
);
},
{
closed = 1;
nodes = (
(1370,1405,l),
(1568,693,o),
(1971,111,o),
(2520,-154,c),
(2533,-137,o),
(2552,-115,o),
(2570,-100,c),
(2021,143,o),
(1624,726,o),
(1429,1423,c)
);
},
{
closed = 1;
nodes = (
(1344,2278,l),
(1342,1723,o),
(1335,394,o),
(135,-111,c),
(149,-121,o),
(174,-145,o),
(186,-157,c),
(1393,364,o),
(1402,1699,o),
(1407,2278,c)
);
}
);
width = 2716;
}
);
note = cid14075;
unicode = (12068,22823);
}
{
color = 0;
glyphname = uni2F2D;
layers = (
{
layerId = "CD0E3B44-F66A-4791-B84C-A1128DC61275";
shapes = (
{
closed = 1;
nodes = (
(1245,2253,l),
(1245,156,l),
(1448,156,l),
(1448,2253,l)
);
},
{
closed = 1;
nodes = (
(288,1661,l),
(288,-152,l),
(485,-152,l),
(485,1661,l)
);
},
{
closed = 1;
nodes = (
(2239,1663,l),
(2239,-141,l),
(2437,-141,l),
(2437,1663,l)
);
},
{
closed = 1;
nodes = (
(386,271,l),
(386,71,l),
(2324,71,l),
(2324,271,l)
);
}
);
width = 2716;
},
{
layerId = "5C20EF92-B63D-42A8-8878-93C2863E0093";
shapes = (
{
closed = 1;
nodes = (
(1136,2267,l),
(1136,129,l),
(1554,129,l),
(1554,2267,l)
);
},
{
closed = 1;
nodes = (
(229,1682,l),
(229,-202,l),
(637,-202,l),
(637,1682,l)
);
},
{
closed = 1;
nodes = (
(2082,1690,l),
(2082,-191,l),
(2490,-191,l),
(2490,1690,l)
);
},
{
closed = 1;
nodes = (
(431,370,l),
(431,-41,l),
(2260,-41,l),
(2260,370,l)
);
}
);
width = 2716;
},
{
layerId = "B1F27B51-9973-4381-9301-4FE46FE1CA59";
shapes = (
{
closed = 1;
nodes = (
(1314,2245,l),
(1314,174,l),
(1379,174,l),
(1379,2245,l)
);
},
{
closed = 1;
nodes = (
(325,1647,l),
(325,-121,l),
(387,-121,l),
(387,1647,l)
);
},
{
closed = 1;
nodes = (
(2339,1647,l),
(2339,-109,l),
(2401,-109,l),
(2401,1647,l)
);
},
{
closed = 1;
nodes = (
(357,207,l),
(357,143,l),
(2364,143,l),
(2364,207,l)
);
}
);
width = 2716;
}
);
note = cid15891;
unicode = (12077,23665);
}
{
color = 0;
glyphname = uni2F4C;
layers = (
{
layerId = "CD0E3B44-F66A-4791-B84C-A1128DC61275";
shapes = (
{
closed = 1;
nodes = (
(1464,1395,l),
(1464,1200,l),
(2457,1200,l),
(2457,1395,l)
);
},
{
closed = 1;
nodes = (
(135,143,l),
(135,-49,l),
(2574,-49,l),
(2574,143,l)
);
},
{
closed = 1;
nodes = (
(1358,2301,l),
(1358,47,l),
(1562,47,l),
(1562,2301,l)
);
},
{
closed = 1;
nodes = (
(514,1708,l),
(514,52,l),
(713,52,l),
(713,1708,l)
);
}
);
width = 2716;
},
{
layerId = "5C20EF92-B63D-42A8-8878-93C2863E0093";
shapes = (
{
closed = 1;
nodes = (
(1450,1533,l),
(1450,1137,l),
(2457,1137,l),
(2457,1533,l)
);
},
{
closed = 1;
nodes = (
(99,304,l),
(99,-90,l),
(2615,-90,l),
(2615,304,l)
);
},
{
closed = 1;
nodes = (
(1260,2354,l),
(1260,97,l),
(1683,97,l),
(1683,2354,l)
);
},
{
closed = 1;
nodes = (
(428,1811,l),
(428,111,l),
(844,111,l),
(844,1811,l)
);
}
);
width = 2716;
},
{
layerId = "B1F27B51-9973-4381-9301-4FE46FE1CA59";
shapes = (
{
closed = 1;
nodes = (
(1473,1306,l),
(1473,1241,l),
(2457,1241,l),
(2457,1306,l)
);
},
{
closed = 1;
nodes = (
(158,39,l),
(158,-24,l),
(2549,-24,l),
(2549,39,l)
);
},
{
closed = 1;
nodes = (
(1423,2265,l),
(1423,15,l),
(1484,15,l),
(1484,2265,l)
);
},
{
closed = 1;
nodes = (
(568,1640,l),
(568,14,l),
(630,14,l),
(630,1640,l)
);
}
);
width = 2716;
}
);
note = cid22619;
unicode = (12108,27490);
}
{
color = 0;
glyphname = uni2F51;
layers = (
{
layerId = "CD0E3B44-F66A-4791-B84C-A1128DC61275";
shapes = (
{
closed = 1;
nodes = (
(1089,1909,l),
(1089,234,ls),
(1089,-62,o),
(1184,-138,o),
(1510,-138,cs),
(1583,-138,o),
(2134,-138,o),
(2210,-138,cs),
(2507,-138,o),
(2573,-17,o),
(2610,358,c),
(2549,371,o),
(2467,405,o),
(2417,442,c),
(2395,125,o),
(2369,55,o),
(2202,55,cs),
(2087,55,o),
(1607,55,o),
(1518,55,cs),
(1324,55,o),
(1290,85,o),
(1290,231,cs),
(1290,1909,l)
);
},
{
closed = 1;
nodes = (
(2069,2292,l),
(1650,2115,o),
(875,1969,o),
(199,1879,c),
(222,1835,o),
(249,1757,o),
(258,1708,c),
(948,1798,o),
(1733,1938,o),
(2240,2136,c)
);
},
{
closed = 1;
nodes = (
(248,1301,l),
(274,1114,l),
(2361,1407,l),
(2332,1589,l)
);
},
{
closed = 1;
nodes = (
(165,679,l),
(191,492,l),
(2543,802,l),
(2514,984,l)
);
}
);
width = 2716;
},
{
layerId = "5C20EF92-B63D-42A8-8878-93C2863E0093";
shapes = (
{
closed = 1;
nodes = (
(986,1833,l),
(986,377,ls),
(986,-62,o),
(1108,-186,o),
(1560,-186,cs),
(1654,-186,o),
(1995,-186,o),
(2098,-186,cs),
(2481,-186,o),
(2599,-44,o),
(2660,384,c),
(2541,406,o),
(2369,478,o),
(2274,545,c),
(2242,255,o),
(2217,203,o),
(2059,203,cs),
(1978,203,o),
(1673,203,o),
(1598,203,cs),
(1418,203,o),
(1402,215,o),
(1402,377,cs),
(1402,1833,l)
);
},
{
closed = 1;
nodes = (
(1989,2363,l),
(1530,2179,o),
(813,2033,o),
(137,1950,c),
(182,1863,o),
(241,1698,o),
(258,1596,c),
(948,1681,o),
(1717,1818,o),
(2316,2038,c)
);
},
{
closed = 1;
nodes = (
(218,1367,l),
(265,984,l),
(2406,1276,l),
(2350,1647,l)
);
},
{
closed = 1;
nodes = (
(120,750,l),
(170,367,l),
(2562,672,l),
(2507,1041,l)
);
}
);
width = 2716;
},
{
layerId = "B1F27B51-9973-4381-9301-4FE46FE1CA59";
shapes = (
{
closed = 1;
nodes = (
(1157,1959,l),
(1157,141,ls),
(1157,-62,o),
(1234,-107,o),
(1478,-107,cs),
(1537,-107,o),
(2224,-107,o),
(2282,-107,cs),
(2524,-107,o),
(2556,-1,o),
(2578,341,c),
(2556,348,o),
(2529,358,o),
(2509,374,c),
(2494,42,o),
(2467,-42,o),
(2295,-42,cs),
(2156,-42,o),
(1564,-42,o),
(1465,-42,cs),
(1263,-42,o),
(1218,1,o),
(1218,135,cs),
(1218,1959,l)
);
},
{
closed = 1;
nodes = (
(2122,2246,l),
(1728,2075,o),
(914,1929,o),
(238,1833,c),
(248,1817,o),
(256,1795,o),
(258,1780,c),
(948,1873,o),
(1744,2016,o),
(2190,2199,c)
);
},
{
closed = 1;
nodes = (
(269,1258,l),
(280,1198,l),
(2332,1490,l),
(2319,1552,l)
);
},
{
closed = 1;
nodes = (
(194,633,l),
(205,573,l),
(2531,885,l),
(2520,946,l)
);
}
);
width = 2716;
}
);
note = cid22867;
unicode = (12113,27611);
}
{
color = 0;
glyphname = uni2F54;
layers = (
{
layerId = "CD0E3B44-F66A-4791-B84C-A1128DC61275";
shapes = (
{
closed = 1;
nodes = (
(150,1612,l),
(150,1414,l),
(968,1414,l),
(968,1612,l)
);
},
{
closed = 1;
nodes = (
(1258,2304,l),
(1258,93,ls),
(1258,42,o),
(1239,26,o),
(1185,23,cs),
(1131,20,o),
(956,20,o),
(758,26,c),
(789,-32,o),
(828,-131,o),
(839,-188,c),
(1091,-188,o),
(1244,-181,o),
(1336,-146,cs),
(1426,-110,o),
(1464,-47,o),
(1464,93,cs),
(1464,2304,l)
);
},
{
closed = 1;
nodes = (
(901,1612,l),
(901,1565,l),
(785,942,o),
(473,478,o),
(81,234,c),
(130,205,o),
(205,127,o),
(239,80,c),
(638,348,o),
(972,855,o),
(1111,1568,c),
(979,1620,l),
(942,1612,l)
);
},
{
closed = 1;
nodes = (
(1297,1821,l),
(1499,1019,o),
(1868,326,o),
(2486,25,c),
(2523,82,o),
(2588,163,o),
(2638,201,c),
(2030,463,o),
(1639,1127,o),
(1450,1856,c)
);
},
{
closed = 1;
nodes = (
(2347,1868,l),
(2164,1624,o),
(1851,1307,o),
(1616,1117,c),
(1754,1008,l),
(1993,1193,o),
(2302,1494,o),
(2527,1741,c)
);
}
);
width = 2716;
},
{
layerId = "5C20EF92-B63D-42A8-8878-93C2863E0093";
shapes = (
{
closed = 1;
nodes = (
(136,1707,l),
(136,1301,l),
(857,1301,l),
(857,1707,l)
);
},
{
closed = 1;
nodes = (
(1160,2353,l),
(1160,276,ls),
(1160,224,o),
(1147,209,o),
(1088,207,cs),
(1029,204,o),
(858,208,o),
(686,214,c),
(749,98,o),
(828,-109,o),
(848,-233,c),
(1091,-233,o),
(1280,-212,o),
(1413,-146,cs),
(1542,-70,o),
(1585,48,o),
(1585,273,cs),
(1585,2353,l)
);
},
{
closed = 1;
nodes = (
(721,1707,l),
(721,1618,l),
(641,1032,o),
(406,554,o),
(40,300,c),
(140,245,o),
(300,82,o),
(369,-10,c),
(750,282,o),
(1036,863,o),
(1151,1618,c),
(878,1719,l),
(803,1707,l)
);
},
{
closed = 1;
nodes = (
(1247,1918,l),
(1437,1060,o),
(1731,344,o),
(2366,-39,c),
(2436,82,o),
(2572,253,o),
(2669,336,c),
(2061,638,o),
(1724,1271,o),
(1557,1980,c)
);
},
{
closed = 1;
nodes = (
(2248,1939,l),
(2084,1695,o),
(1815,1416,o),
(1598,1233,c),
(1884,1008,l),
(2109,1174,o),
(2387,1435,o),
(2625,1679,c)
);
}
);
width = 2716;
},
{
layerId = "B1F27B51-9973-4381-9301-4FE46FE1CA59";
shapes = (
{
closed = 1;
nodes = (
(158,1551,l),
(158,1487,l),
(1041,1487,l),
(1041,1551,l)
);
},
{
closed = 1;
nodes = (
(1323,2272,l),
(1323,-25,ls),
(1323,-77,o),
(1299,-93,o),
(1248,-96,cs),
(1197,-99,o),
(1021,-102,o),
(803,-96,c),
(815,-116,o),
(828,-145,o),
(833,-159,c),
(1091,-159,o),
(1222,-160,o),
(1285,-146,cs),
(1351,-136,o),
(1387,-107,o),
(1387,-22,cs),
(1387,2272,l)
);
},
{
closed = 1;
nodes = (
(1016,1551,l),
(1016,1529,l),
(878,883,o),
(516,429,o),
(106,191,c),
(124,179,o),
(144,156,o),
(156,138,c),
(566,391,o),
(932,850,o),
(1086,1536,c),
(1045,1556,l),
(1032,1551,l)
);
},
{
closed = 1;
nodes = (
(1328,1758,l),
(1538,994,o),
(1958,313,o),
(2564,65,c),
(2578,82,o),
(2599,104,o),
(2618,114,c),
(2009,350,o),
(1584,1034,o),
(1382,1774,c)
);
},
{
closed = 1;
nodes = (
(2411,1822,l),
(2216,1578,o),
(1873,1238,o),
(1628,1042,c),
(1671,1008,l),
(1918,1205,o),
(2247,1531,o),
(2462,1781,c)
);
}
);
width = 2716;
}
);
note = cid23009;
unicode = (12116,27700);
}
